<ttFont>
    <TTGlyph name=".notdef" xMin="102" yMin="0" xMax="950" yMax="1024">
      <contour>
        <pt x="102" y="1024" on="1"/>
        <pt x="950" y="1024" on="1"/>
        <pt x="950" y="0" on="1"/>
        <pt x="102" y="0" on="1"/>
      </contour>
      <contour>
        <pt x="272" y="77" on="1"/>
        <pt x="780" y="77" on="1"/>
        <pt x="780" y="947" on="1"/>
        <pt x="272" y="947" on="1"/>
      </contour>
    </TTGlyph>
    <TTGlyph name="A" xMin="-12" yMin="0" xMax="1307" yMax="1473">
      <contour>
        <pt x="262" y="223" on="1"/>
        <pt x="254" y="199" on="0"/>
        <pt x="242" y="161" on="0"/>
        <pt x="230" y="129" on="0"/>
        <pt x="218" y="99" on="0"/>
        <pt x="211" y="82" on="1"/>
        <pt x="371" y="90" on="1"/>
        <pt x="371" y="0" on="1"/>
        <pt x="-12" y="0" on="1"/>
        <pt x="-12" y="68" on="1"/>
        <pt x="34" y="68" on="0"/>
        <pt x="92" y="105" on="0"/>
        <pt x="132" y="173" on="0"/>
        <pt x="165" y="267" on="0"/>
        <pt x="186" y="324" on="1"/>
        <pt x="608" y="1473" on="1"/>
        <pt x="657" y="1473" on="1"/>
        <pt x="1114" y="307" on="1"/>
        <pt x="1123" y="286" on="0"/>
        <pt x="1142" y="227" on="0"/>
        <pt x="1159" y="165" on="0"/>
        <pt x="1168" y="105" on="0"/>
        <pt x="1167" y="82" on="1"/>
        <pt x="1307" y="90" on="1"/>
        <pt x="1307" y="0" on="1"/>
        <pt x="838" y="0" on="1"/>
        <pt x="838" y="68" on="1"/>
        <pt x="895" y="69" on="0"/>
        <pt x="949" y="109" on="0"/>
        <pt x="963" y="167" on="0"/>
        <pt x="949" y="233" on="0"/>
        <pt x="938" y="262" on="1"/>
        <pt x="866" y="454" on="1"/>
        <pt x="333" y="442" on="1"/>
        <pt x="311" y="379" on="0"/>
        <pt x="277" y="274" on="0"/>
      </contour>
      <contour>
        <pt x="510" y="942" on="1"/>
        <pt x="463" y="810" on="0"/>
        <pt x="392" y="609" on="0"/>
        <pt x="364" y="530" on="1"/>
        <pt x="838" y="530" on="1"/>
        <pt x="692" y="922" on="1"/>
        <pt x="600" y="1174" on="1"/>
        <pt x="596" y="1174" on="1"/>
      </contour>
    </TTGlyph>
    <TTGlyph name="AE" xMin="-43" yMin="0" xMax="1852" yMax="1434">
      <contour>
        <pt x="1496" y="530" on="1"/>
        <pt x="1496" y="597" on="0"/>
        <pt x="1469" y="671" on="0"/>
        <pt x="1411" y="705" on="0"/>
        <pt x="1320" y="711" on="0"/>
        <pt x="1256" y="711" on="1"/>
        <pt x="1102" y="703" on="1"/>
        <pt x="1102" y="185" on="0"/>
        <pt x="1099" y="108" on="0"/>
        <pt x="1096" y="82" on="1"/>
        <pt x="1499" y="76" on="1"/>
        <pt x="1564" y="76" on="0"/>
        <pt x="1669" y="110" on="0"/>
        <pt x="1742" y="186" on="0"/>
        <pt x="1782" y="309" on="0"/>
        <pt x="1782" y="399" on="1"/>
        <pt x="1852" y="399" on="1"/>
        <pt x="1840" y="0" on="1"/>
        <pt x="783" y="0" on="1"/>
        <pt x="783" y="74" on="1"/>
        <pt x="799" y="74" on="1"/>
        <pt x="839" y="77" on="0"/>
        <pt x="888" y="103" on="0"/>
        <pt x="915" y="150" on="0"/>
        <pt x="924" y="219" on="0"/>
        <pt x="924" y="266" on="1"/>
        <pt x="924" y="453" on="1"/>
        <pt x="425" y="442" on="1"/>
        <pt x="184" y="82" on="1"/>
        <pt x="340" y="90" on="1"/>
        <pt x="340" y="0" on="1"/>
        <pt x="-43" y="0" on="1"/>
        <pt x="-43" y="68" on="1"/>
        <pt x="-2" y="68" on="0"/>
        <pt x="64" y="104" on="0"/>
        <pt x="120" y="159" on="0"/>
        <pt x="166" y="225" on="0"/>
        <pt x="926" y="1353" on="1"/>
        <pt x="742" y="1343" on="1"/>
        <pt x="742" y="1434" on="1"/>
        <pt x="1769" y="1434" on="1"/>
        <pt x="1778" y="1075" on="1"/>
        <pt x="1711" y="1075" on="1"/>
        <pt x="1711" y="1163" on="0"/>
        <pt x="1670" y="1275" on="0"/>
        <pt x="1599" y="1339" on="0"/>
        <pt x="1503" y="1362" on="0"/>
        <pt x="1447" y="1362" on="1"/>
        <pt x="1434" y="1362" on="1"/>
        <pt x="1258" y="1358" on="1"/>
        <pt x="1200" y="1356" on="0"/>
        <pt x="1137" y="1326" on="0"/>
        <pt x="1107" y="1267" on="0"/>
        <pt x="1102" y="1177" on="0"/>
        <pt x="1102" y="1114" on="1"/>
        <pt x="1102" y="784" on="1"/>
        <pt x="1254" y="784" on="1"/>
        <pt x="1318" y="784" on="0"/>
        <pt x="1410" y="794" on="0"/>
        <pt x="1469" y="832" on="0"/>
        <pt x="1496" y="909" on="0"/>
        <pt x="1496" y="977" on="1"/>
        <pt x="1563" y="977" on="1"/>
        <pt x="1563" y="530" on="1"/>
      </contour>
      <contour>
        <pt x="924" y="530" on="1"/>
        <pt x="924" y="1191" on="1"/>
        <pt x="483" y="530" on="1"/>
      </contour>
    </TTGlyph>
    <TTGlyph name="Aacute" xMin="-12" yMin="0" xMax="1307" yMax="1900">
      <component glyphName="A" x="0" y="0" flags="0x204"/>
      <component glyphName="Acute" x="517" y="0" flags="0x4"/>
    </TTGlyph>
    <TTGlyph name="Abreve" xMin="-12" yMin="0" xMax="1307" yMax="1892">
      <component glyphName="A" x="0" y="0" flags="0x200"/>
      <component glyphName="Breve" x="267" y="0" flags="0x0"/>
    </TTGlyph>
    <TTGlyph name="Acircumflex" xMin="-12" yMin="0" xMax="1307" yMax="1907">
      <component glyphName="A" x="0" y="0" flags="0x204"/>
      <component glyphName="Circumflex" x="145" y="0" flags="0x4"/>
    </TTGlyph>
    <TTGlyph name="Acute" xMin="68" yMin="1556" xMax="479" yMax="1900">
      <contour>
        <pt x="113" y="1556" on="1"/>
        <pt x="68" y="1616" on="1"/>
        <pt x="326" y="1862" on="1"/>
        <pt x="356" y="1888" on="0"/>
        <pt x="405" y="1900" on="0"/>
        <pt x="440" y="1893" on="0"/>
        <pt x="461" y="1876" on="0"/>
        <pt x="464" y="1872" on="1"/>
        <pt x="469" y="1865" on="0"/>
        <pt x="479" y="1838" on="0"/>
        <pt x="473" y="1802" on="0"/>
        <pt x="445" y="1760" on="0"/>
        <pt x="410" y="1739" on="1"/>
      </contour>
    </TTGlyph>
    <TTGlyph name="Adieresis" xMin="-12" yMin="0" xMax="1307" yMax="1850">
      <component glyphName="A" x="0" y="0" flags="0x204"/>
      <component glyphName="Dieresis" x="249" y="0" flags="0x4"/>
    </TTGlyph>
    <TTGlyph name="Agrave" xMin="-12" yMin="0" xMax="1307" yMax="1900">
      <component glyphName="A" x="0" y="0" flags="0x204"/>
      <component glyphName="Grave" x="176" y="0" flags="0x4"/>
    </TTGlyph>
    <TTGlyph name="Aogonek" xMin="-12" yMin="-531" xMax="1307" yMax="1473">
      <contour>
        <pt x="1155" y="0" on="1"/>
        <pt x="1101" y="-20" on="0"/>
        <pt x="1003" y="-74" on="0"/>
        <pt x="929" y="-145" on="0"/>
        <pt x="885" y="-230" on="0"/>
        <pt x="885" y="-281" on="1"/>
        <pt x="885" y="-313" on="0"/>
        <pt x="906" y="-365" on="0"/>
        <pt x="940" y="-401" on="0"/>
        <pt x="986" y="-421" on="0"/>
        <pt x="1012" y="-421" on="1"/>
        <pt x="1049" y="-421" on="0"/>
        <pt x="1116" y="-390" on="0"/>
        <pt x="1145" y="-365" on="1"/>
        <pt x="1180" y="-402" on="1"/>
        <pt x="1160" y="-426" on="0"/>
        <pt x="1107" y="-472" on="0"/>
        <pt x="1044" y="-509" on="0"/>
        <pt x="973" y="-531" on="0"/>
        <pt x="936" y="-531" on="1"/>
        <pt x="887" y="-531" on="0"/>
        <pt x="807" y="-500" on="0"/>
        <pt x="750" y="-445" on="0"/>
        <pt x="719" y="-368" on="0"/>
        <pt x="719" y="-322" on="1"/>
        <pt x="719" y="-271" on="0"/>
        <pt x="766" y="-178" on="0"/>
        <pt x="845" y="-97" on="0"/>
        <pt x="951" y="-27" on="0"/>
        <pt x="1010" y="0" on="1"/>
        <pt x="838" y="0" on="1"/>
        <pt x="838" y="68" on="1"/>
        <pt x="895" y="69" on="0"/>
        <pt x="949" y="109" on="0"/>
        <pt x="963" y="167" on="0"/>
        <pt x="949" y="233" on="0"/>
        <pt x="938" y="262" on="1"/>
        <pt x="866" y="454" on="1"/>
        <pt x="333" y="442" on="1"/>
        <pt x="311" y="379" on="0"/>
        <pt x="277" y="274" on="0"/>
        <pt x="262" y="223" on="1"/>
        <pt x="254" y="199" on="0"/>
        <pt x="242" y="161" on="0"/>
        <pt x="230" y="129" on="0"/>
        <pt x="218" y="99" on="0"/>
        <pt x="211" y="82" on="1"/>
        <pt x="371" y="90" on="1"/>
        <pt x="371" y="0" on="1"/>
        <pt x="-12" y="0" on="1"/>
        <pt x="-12" y="68" on="1"/>
        <pt x="34" y="68" on="0"/>
        <pt x="92" y="105" on="0"/>
        <pt x="132" y="173" on="0"/>
        <pt x="165" y="267" on="0"/>
        <pt x="186" y="324" on="1"/>
        <pt x="608" y="1473" on="1"/>
        <pt x="657" y="1473" on="1"/>
        <pt x="1114" y="307" on="1"/>
        <pt x="1123" y="286" on="0"/>
        <pt x="1142" y="227" on="0"/>
        <pt x="1159" y="165" on="0"/>
        <pt x="1168" y="105" on="0"/>
        <pt x="1167" y="82" on="1"/>
        <pt x="1307" y="90" on="1"/>
        <pt x="1307" y="0" on="1"/>
      </contour>
      <contour>
        <pt x="692" y="922" on="1"/>
        <pt x="600" y="1174" on="1"/>
        <pt x="596" y="1174" on="1"/>
        <pt x="510" y="942" on="1"/>
        <pt x="463" y="810" on="0"/>
        <pt x="392" y="609" on="0"/>
        <pt x="364" y="530" on="1"/>
        <pt x="838" y="530" on="1"/>
      </contour>
    </TTGlyph>
    <TTGlyph name="Aring" xMin="-10" yMin="0" xMax="1309" yMax="1917">
      <component glyphName="A" x="2" y="0" flags="0x4"/>
      <component glyphName="Ring" x="303" y="0" flags="0x4"/>
    </TTGlyph>
    <TTGlyph name="Atilde" xMin="-12" yMin="0" xMax="1307" yMax="1864">
      <component glyphName="A" x="0" y="0" flags="0x204"/>
      <component glyphName="Tilde" x="135" y="0" flags="0x4"/>
    </TTGlyph>
    <TTGlyph name="B" xMin="113" yMin="0" xMax="1194" yMax="1438">
      <contour>
        <pt x="254" y="1190" on="1"/>
        <pt x="254" y="1246" on="0"/>
        <pt x="257" y="1326" on="0"/>
        <pt x="261" y="1352" on="1"/>
        <pt x="113" y="1343" on="1"/>
        <pt x="113" y="1434" on="1"/>
        <pt x="226" y="1436" on="0"/>
        <pt x="452" y="1438" on="0"/>
        <pt x="576" y="1438" on="1"/>
        <pt x="695" y="1438" on="0"/>
        <pt x="883" y="1396" on="0"/>
        <pt x="1012" y="1310" on="0"/>
        <pt x="1078" y="1184" on="0"/>
        <pt x="1078" y="1087" on="1"/>
        <pt x="1077" y="1037" on="0"/>
        <pt x="1035" y="937" on="0"/>
        <pt x="951" y="851" on="0"/>
        <pt x="824" y="785" on="0"/>
        <pt x="740" y="770" on="1"/>
        <pt x="740" y="766" on="1"/>
        <pt x="853" y="766" on="0"/>
        <pt x="1023" y="711" on="0"/>
        <pt x="1137" y="614" on="0"/>
        <pt x="1194" y="480" on="0"/>
        <pt x="1194" y="401" on="1"/>
        <pt x="1194" y="307" on="0"/>
        <pt x="1121" y="158" on="0"/>
        <pt x="992" y="55" on="0"/>
        <pt x="815" y="0" on="0"/>
        <pt x="711" y="0" on="1"/>
        <pt x="113" y="0" on="1"/>
        <pt x="113" y="68" on="1"/>
        <pt x="171" y="69" on="0"/>
        <pt x="229" y="108" on="0"/>
        <pt x="253" y="177" on="0"/>
        <pt x="254" y="272" on="0"/>
        <pt x="254" y="330" on="1"/>
      </contour>
      <contour>
        <pt x="586" y="1364" on="1"/>
        <pt x="536" y="1364" on="0"/>
        <pt x="476" y="1344" on="0"/>
        <pt x="443" y="1297" on="0"/>
        <pt x="433" y="1221" on="0"/>
        <pt x="433" y="1165" on="1"/>
        <pt x="433" y="784" on="1"/>
        <pt x="582" y="788" on="1"/>
        <pt x="670" y="790" on="0"/>
        <pt x="789" y="844" on="0"/>
        <pt x="861" y="931" on="0"/>
        <pt x="891" y="1035" on="0"/>
        <pt x="891" y="1098" on="1"/>
        <pt x="891" y="1176" on="0"/>
        <pt x="831" y="1288" on="0"/>
        <pt x="743" y="1343" on="0"/>
        <pt x="637" y="1364" on="0"/>
      </contour>
      <contour>
        <pt x="426" y="82" on="1"/>
        <pt x="450" y="80" on="0"/>
        <pt x="516" y="78" on="0"/>
        <pt x="581" y="78" on="0"/>
        <pt x="633" y="78" on="0"/>
        <pt x="643" y="78" on="1"/>
        <pt x="722" y="78" on="0"/>
        <pt x="852" y="118" on="0"/>
        <pt x="945" y="196" on="0"/>
        <pt x="996" y="312" on="0"/>
        <pt x="996" y="389" on="1"/>
        <pt x="996" y="483" on="0"/>
        <pt x="938" y="607" on="0"/>
        <pt x="841" y="681" on="0"/>
        <pt x="713" y="711" on="0"/>
        <pt x="643" y="711" on="1"/>
        <pt x="582" y="711" on="0"/>
        <pt x="482" y="708" on="0"/>
        <pt x="433" y="705" on="1"/>
        <pt x="433" y="242" on="1"/>
        <pt x="433" y="186" on="0"/>
        <pt x="430" y="108" on="0"/>
      </contour>
    </TTGlyph>
    <TTGlyph name="Breve" xMin="75" yMin="1657" xMax="675" yMax="1892">
      <contour>
        <pt x="675" y="1868" on="1"/>
        <pt x="627" y="1765" on="0"/>
        <pt x="469" y="1657" on="0"/>
        <pt x="375" y="1657" on="1"/>
        <pt x="281" y="1657" on="0"/>
        <pt x="123" y="1765" on="0"/>
        <pt x="75" y="1868" on="1"/>
        <pt x="130" y="1892" on="1"/>
        <pt x="146" y="1871" on="0"/>
        <pt x="197" y="1831" on="0"/>
        <pt x="262" y="1801" on="0"/>
        <pt x="336" y="1782" on="0"/>
        <pt x="375" y="1782" on="1"/>
        <pt x="414" y="1782" on="0"/>
        <pt x="488" y="1801" on="0"/>
        <pt x="553" y="1831" on="0"/>
        <pt x="604" y="1871" on="0"/>
        <pt x="620" y="1892" on="1"/>
      </contour>
    </TTGlyph>
    <TTGlyph name="C" xMin="94" yMin="-33" xMax="1370" yMax="1467">
      <contour>
        <pt x="819" y="1383" on="1"/>
        <pt x="710" y="1383" on="0"/>
        <pt x="519" y="1290" on="0"/>
        <pt x="377" y="1119" on="0"/>
        <pt x="295" y="875" on="0"/>
        <pt x="295" y="725" on="1"/>
        <pt x="295" y="628" on="0"/>
        <pt x="334" y="457" on="0"/>
        <pt x="406" y="312" on="0"/>
        <pt x="506" y="197" on="0"/>
        <pt x="628" y="117" on="0"/>
        <pt x="768" y="74" on="0"/>
        <pt x="844" y="74" on="1"/>
        <pt x="911" y="74" on="0"/>
        <pt x="1044" y="104" on="0"/>
        <pt x="1167" y="164" on="0"/>
        <pt x="1275" y="252" on="0"/>
        <pt x="1317" y="309" on="1"/>
        <pt x="1370" y="266" on="1"/>
        <pt x="1304" y="175" on="0"/>
        <pt x="1153" y="59" on="0"/>
        <pt x="1000" y="-8" on="0"/>
        <pt x="853" y="-33" on="0"/>
        <pt x="790" y="-33" on="1"/>
        <pt x="636" y="-33" on="0"/>
        <pt x="380" y="80" on="0"/>
        <pt x="196" y="276" on="0"/>
        <pt x="94" y="541" on="0"/>
        <pt x="94" y="694" on="1"/>
        <pt x="94" y="790" on="0"/>
        <pt x="133" y="980" on="0"/>
        <pt x="212" y="1151" on="0"/>
        <pt x="330" y="1298" on="0"/>
        <pt x="488" y="1406" on="0"/>
        <pt x="686" y="1467" on="0"/>
        <pt x="805" y="1467" on="1"/>
        <pt x="921" y="1467" on="0"/>
        <pt x="1123" y="1405" on="0"/>
        <pt x="1218" y="1342" on="1"/>
        <pt x="1208" y="1452" on="1"/>
        <pt x="1319" y="1452" on="1"/>
        <pt x="1319" y="977" on="1"/>
        <pt x="1245" y="977" on="1"/>
        <pt x="1234" y="1073" on="0"/>
        <pt x="1165" y="1224" on="0"/>
        <pt x="1056" y="1328" on="0"/>
        <pt x="908" y="1383" on="0"/>
      </contour>
    </TTGlyph>
    <TTGlyph name="Cacute" xMin="94" yMin="-33" xMax="1370" yMax="1900">
      <component glyphName="C" x="0" y="0" flags="0x200"/>
      <component glyphName="Acute" x="600" y="0" flags="0x0"/>
    </TTGlyph>
    <TTGlyph name="Caron" xMin="92" yMin="1528" xMax="870" yMax="1890">
      <contour>
        <pt x="473" y="1528" on="1"/>
        <pt x="469" y="1528" on="1"/>
        <pt x="92" y="1817" on="1"/>
        <pt x="137" y="1886" on="1"/>
        <pt x="477" y="1706" on="1"/>
        <pt x="481" y="1706" on="1"/>
        <pt x="829" y="1890" on="1"/>
        <pt x="870" y="1825" on="1"/>
      </contour>
    </TTGlyph>
    <TTGlyph name="Ccaron" xMin="95" yMin="-33" xMax="1371" yMax="1890">
      <component glyphName="C" x="1" y="0" flags="0x200"/>
      <component glyphName="Caron" x="340" y="0" flags="0x0"/>
    </TTGlyph>
    <TTGlyph name="Ccedilla" xMin="96" yMin="-532" xMax="1372" yMax="1467">
      <contour>
        <pt x="619" y="-454" on="1"/>
        <pt x="671" y="-445" on="0"/>
        <pt x="762" y="-413" on="0"/>
        <pt x="830" y="-371" on="0"/>
        <pt x="869" y="-318" on="0"/>
        <pt x="869" y="-288" on="1"/>
        <pt x="869" y="-253" on="0"/>
        <pt x="830" y="-223" on="0"/>
        <pt x="803" y="-223" on="1"/>
        <pt x="781" y="-223" on="0"/>
        <pt x="733" y="-238" on="0"/>
        <pt x="713" y="-251" on="1"/>
        <pt x="640" y="-217" on="1"/>
        <pt x="688" y="-26" on="1"/>
        <pt x="555" y="-7" on="0"/>
        <pt x="337" y="118" on="0"/>
        <pt x="181" y="309" on="0"/>
        <pt x="96" y="554" on="0"/>
        <pt x="96" y="694" on="1"/>
        <pt x="96" y="790" on="0"/>
        <pt x="135" y="980" on="0"/>
        <pt x="214" y="1151" on="0"/>
        <pt x="332" y="1298" on="0"/>
        <pt x="490" y="1406" on="0"/>
        <pt x="688" y="1467" on="0"/>
        <pt x="807" y="1467" on="1"/>
        <pt x="924" y="1467" on="0"/>
        <pt x="1124" y="1405" on="0"/>
        <pt x="1220" y="1342" on="1"/>
        <pt x="1210" y="1452" on="1"/>
        <pt x="1321" y="1452" on="1"/>
        <pt x="1321" y="977" on="1"/>
        <pt x="1247" y="977" on="1"/>
        <pt x="1236" y="1073" on="0"/>
        <pt x="1167" y="1224" on="0"/>
        <pt x="1058" y="1328" on="0"/>
        <pt x="910" y="1383" on="0"/>
        <pt x="821" y="1383" on="1"/>
        <pt x="712" y="1383" on="0"/>
        <pt x="521" y="1290" on="0"/>
        <pt x="379" y="1119" on="0"/>
        <pt x="297" y="875" on="0"/>
        <pt x="297" y="725" on="1"/>
        <pt x="297" y="580" on="0"/>
        <pt x="383" y="341" on="0"/>
        <pt x="532" y="169" on="0"/>
        <pt x="732" y="74" on="0"/>
        <pt x="846" y="74" on="1"/>
        <pt x="913" y="74" on="0"/>
        <pt x="1046" y="104" on="0"/>
        <pt x="1169" y="164" on="0"/>
        <pt x="1277" y="252" on="0"/>
        <pt x="1319" y="309" on="1"/>
        <pt x="1372" y="266" on="1"/>
        <pt x="1307" y="176" on="0"/>
        <pt x="1160" y="61" on="0"/>
        <pt x="1010" y="-5" on="0"/>
        <pt x="865" y="-32" on="0"/>
        <pt x="801" y="-33" on="1"/>
        <pt x="762" y="-157" on="1"/>
        <pt x="777" y="-148" on="0"/>
        <pt x="813" y="-135" on="0"/>
        <pt x="850" y="-128" on="0"/>
        <pt x="884" y="-124" on="0"/>
        <pt x="896" y="-124" on="1"/>
        <pt x="935" y="-124" on="0"/>
        <pt x="994" y="-147" on="0"/>
        <pt x="1033" y="-186" on="0"/>
        <pt x="1053" y="-239" on="0"/>
        <pt x="1053" y="-270" on="1"/>
        <pt x="1053" y="-312" on="0"/>
        <pt x="1010" y="-380" on="0"/>
        <pt x="939" y="-435" on="0"/>
        <pt x="850" y="-477" on="0"/>
        <pt x="756" y="-507" on="0"/>
        <pt x="666" y="-527" on="0"/>
        <pt x="631" y="-532" on="1"/>
      </contour>
    </TTGlyph>
    <TTGlyph name="Cedilla" xMin="92" yMin="-532" xMax="526" yMax="16">
      <contour>
        <pt x="92" y="-454" on="1"/>
        <pt x="144" y="-445" on="0"/>
        <pt x="235" y="-413" on="0"/>
        <pt x="303" y="-371" on="0"/>
        <pt x="342" y="-318" on="0"/>
        <pt x="342" y="-288" on="1"/>
        <pt x="342" y="-253" on="0"/>
        <pt x="303" y="-223" on="0"/>
        <pt x="276" y="-223" on="1"/>
        <pt x="254" y="-223" on="0"/>
        <pt x="206" y="-238" on="0"/>
        <pt x="186" y="-251" on="1"/>
        <pt x="113" y="-217" on="1"/>
        <pt x="172" y="16" on="1"/>
        <pt x="290" y="16" on="1"/>
        <pt x="235" y="-157" on="1"/>
        <pt x="250" y="-148" on="0"/>
        <pt x="286" y="-135" on="0"/>
        <pt x="323" y="-128" on="0"/>
        <pt x="357" y="-124" on="0"/>
        <pt x="369" y="-124" on="1"/>
        <pt x="408" y="-124" on="0"/>
        <pt x="467" y="-147" on="0"/>
        <pt x="506" y="-186" on="0"/>
        <pt x="526" y="-239" on="0"/>
        <pt x="526" y="-270" on="1"/>
        <pt x="526" y="-312" on="0"/>
        <pt x="483" y="-380" on="0"/>
        <pt x="412" y="-435" on="0"/>
        <pt x="323" y="-477" on="0"/>
        <pt x="229" y="-507" on="0"/>
        <pt x="139" y="-527" on="0"/>
        <pt x="104" y="-532" on="1"/>
      </contour>
    </TTGlyph>
    <TTGlyph name="Circumflex" xMin="92" yMin="1548" xMax="870" yMax="1907">
      <contour>
        <pt x="489" y="1907" on="1"/>
        <pt x="494" y="1907" on="1"/>
        <pt x="870" y="1618" on="1"/>
        <pt x="825" y="1548" on="1"/>
        <pt x="485" y="1729" on="1"/>
        <pt x="481" y="1729" on="1"/>
        <pt x="133" y="1550" on="1"/>
        <pt x="92" y="1616" on="1"/>
      </contour>
    </TTGlyph>
    <TTGlyph name="D" xMin="113" yMin="0" xMax="1432" yMax="1436">
      <contour>
        <pt x="433" y="242" on="1"/>
        <pt x="433" y="186" on="0"/>
        <pt x="430" y="108" on="0"/>
        <pt x="426" y="82" on="1"/>
        <pt x="467" y="80" on="0"/>
        <pt x="541" y="78" on="0"/>
        <pt x="600" y="78" on="0"/>
        <pt x="640" y="78" on="0"/>
        <pt x="646" y="78" on="1"/>
        <pt x="778" y="78" on="0"/>
        <pt x="994" y="176" on="0"/>
        <pt x="1147" y="349" on="0"/>
        <pt x="1231" y="585" on="0"/>
        <pt x="1231" y="723" on="1"/>
        <pt x="1231" y="868" on="0"/>
        <pt x="1152" y="1103" on="0"/>
        <pt x="990" y="1270" on="0"/>
        <pt x="743" y="1360" on="0"/>
        <pt x="574" y="1360" on="1"/>
        <pt x="516" y="1360" on="0"/>
        <pt x="458" y="1324" on="0"/>
        <pt x="434" y="1259" on="0"/>
        <pt x="433" y="1169" on="0"/>
        <pt x="433" y="1114" on="1"/>
      </contour>
      <contour>
        <pt x="596" y="1436" on="1"/>
        <pt x="782" y="1436" on="0"/>
        <pt x="1089" y="1350" on="0"/>
        <pt x="1310" y="1172" on="0"/>
        <pt x="1432" y="900" on="0"/>
        <pt x="1432" y="715" on="1"/>
        <pt x="1432" y="621" on="0"/>
        <pt x="1388" y="442" on="0"/>
        <pt x="1300" y="283" on="0"/>
        <pt x="1169" y="150" on="0"/>
        <pt x="996" y="54" on="0"/>
        <pt x="780" y="0" on="0"/>
        <pt x="652" y="0" on="1"/>
        <pt x="113" y="0" on="1"/>
        <pt x="113" y="68" on="1"/>
        <pt x="171" y="70" on="0"/>
        <pt x="229" y="108" on="0"/>
        <pt x="253" y="174" on="0"/>
        <pt x="254" y="265" on="0"/>
        <pt x="254" y="319" on="1"/>
        <pt x="254" y="1204" on="1"/>
        <pt x="254" y="1246" on="0"/>
        <pt x="257" y="1321" on="0"/>
        <pt x="261" y="1352" on="1"/>
        <pt x="113" y="1343" on="1"/>
        <pt x="113" y="1434" on="1"/>
      </contour>
    </TTGlyph>
    <TTGlyph name="Dcaron" xMin="114" yMin="0" xMax="1433" yMax="1890">
      <component glyphName="D" x="1" y="0" flags="0x200"/>
      <component glyphName="Caron" x="270" y="0" flags="0x0"/>
    </TTGlyph>
    <TTGlyph name="Dcroat" xMin="39" yMin="0" xMax="1434" yMax="1437">
      <contour>
        <pt x="598" y="1436" on="1"/>
        <pt x="783" y="1437" on="0"/>
        <pt x="1091" y="1350" on="0"/>
        <pt x="1312" y="1172" on="0"/>
        <pt x="1434" y="900" on="0"/>
        <pt x="1434" y="715" on="1"/>
        <pt x="1434" y="621" on="0"/>
        <pt x="1390" y="442" on="0"/>
        <pt x="1302" y="283" on="0"/>
        <pt x="1171" y="150" on="0"/>
        <pt x="998" y="54" on="0"/>
        <pt x="782" y="0" on="0"/>
        <pt x="654" y="0" on="1"/>
        <pt x="115" y="0" on="1"/>
        <pt x="115" y="68" on="1"/>
        <pt x="173" y="70" on="0"/>
        <pt x="231" y="108" on="0"/>
        <pt x="255" y="174" on="0"/>
        <pt x="256" y="265" on="0"/>
        <pt x="256" y="319" on="1"/>
        <pt x="256" y="669" on="1"/>
        <pt x="39" y="666" on="1"/>
        <pt x="39" y="772" on="1"/>
        <pt x="256" y="772" on="1"/>
        <pt x="256" y="1204" on="1"/>
        <pt x="256" y="1246" on="0"/>
        <pt x="259" y="1321" on="0"/>
        <pt x="263" y="1352" on="1"/>
        <pt x="115" y="1343" on="1"/>
        <pt x="115" y="1436" on="1"/>
      </contour>
      <contour>
        <pt x="435" y="242" on="1"/>
        <pt x="435" y="186" on="0"/>
        <pt x="432" y="108" on="0"/>
        <pt x="428" y="82" on="1"/>
        <pt x="469" y="80" on="0"/>
        <pt x="543" y="78" on="0"/>
        <pt x="602" y="78" on="0"/>
        <pt x="642" y="78" on="0"/>
        <pt x="648" y="78" on="1"/>
        <pt x="780" y="78" on="0"/>
        <pt x="996" y="176" on="0"/>
        <pt x="1149" y="349" on="0"/>
        <pt x="1233" y="585" on="0"/>
        <pt x="1233" y="723" on="1"/>
        <pt x="1233" y="868" on="0"/>
        <pt x="1154" y="1103" on="0"/>
        <pt x="992" y="1270" on="0"/>
        <pt x="745" y="1360" on="0"/>
        <pt x="576" y="1360" on="1"/>
        <pt x="518" y="1360" on="0"/>
        <pt x="460" y="1324" on="0"/>
        <pt x="436" y="1259" on="0"/>
        <pt x="435" y="1169" on="0"/>
        <pt x="435" y="1114" on="1"/>
        <pt x="435" y="772" on="1"/>
        <pt x="684" y="772" on="1"/>
        <pt x="684" y="674" on="1"/>
        <pt x="435" y="671" on="1"/>
      </contour>
    </TTGlyph>
    <TTGlyph name="Delta" xMin="57" yMin="0" xMax="1374" yMax="1467">
      <contour>
        <pt x="780" y="1467" on="1"/>
        <pt x="1374" y="0" on="1"/>
        <pt x="57" y="0" on="1"/>
        <pt x="617" y="1467" on="1"/>
      </contour>
      <contour>
        <pt x="226" y="124" on="1"/>
        <pt x="1147" y="118" on="1"/>
        <pt x="673" y="1334" on="1"/>
      </contour>
    </TTGlyph>
    <TTGlyph name="Dieresis" xMin="92" yMin="1589" xMax="683" yMax="1850">
      <contour>
        <pt x="683" y="1718" on="1"/>
        <pt x="683" y="1691" on="0"/>
        <pt x="665" y="1644" on="0"/>
        <pt x="634" y="1609" on="0"/>
        <pt x="593" y="1589" on="0"/>
        <pt x="571" y="1589" on="1"/>
        <pt x="548" y="1589" on="0"/>
        <pt x="508" y="1609" on="0"/>
        <pt x="478" y="1644" on="0"/>
        <pt x="460" y="1691" on="0"/>
        <pt x="460" y="1718" on="1"/>
        <pt x="460" y="1745" on="0"/>
        <pt x="478" y="1793" on="0"/>
        <pt x="510" y="1829" on="0"/>
        <pt x="550" y="1850" on="0"/>
        <pt x="573" y="1850" on="1"/>
        <pt x="596" y="1850" on="0"/>
        <pt x="636" y="1829" on="0"/>
        <pt x="666" y="1793" on="0"/>
        <pt x="683" y="1745" on="0"/>
      </contour>
      <contour>
        <pt x="315" y="1718" on="1"/>
        <pt x="315" y="1691" on="0"/>
        <pt x="297" y="1644" on="0"/>
        <pt x="266" y="1609" on="0"/>
        <pt x="225" y="1589" on="0"/>
        <pt x="203" y="1589" on="1"/>
        <pt x="180" y="1589" on="0"/>
        <pt x="140" y="1609" on="0"/>
        <pt x="110" y="1644" on="0"/>
        <pt x="92" y="1691" on="0"/>
        <pt x="92" y="1718" on="1"/>
        <pt x="92" y="1745" on="0"/>
        <pt x="110" y="1793" on="0"/>
        <pt x="142" y="1829" on="0"/>
        <pt x="182" y="1850" on="0"/>
        <pt x="205" y="1850" on="1"/>
        <pt x="228" y="1850" on="0"/>
        <pt x="268" y="1829" on="0"/>
        <pt x="298" y="1793" on="0"/>
        <pt x="315" y="1745" on="0"/>
      </contour>
    </TTGlyph>
    <TTGlyph name="E" xMin="113" yMin="0" xMax="1182" yMax="1434">
      <contour>
        <pt x="433" y="236" on="1"/>
        <pt x="433" y="179" on="0"/>
        <pt x="430" y="102" on="0"/>
        <pt x="426" y="76" on="1"/>
        <pt x="818" y="82" on="1"/>
        <pt x="885" y="83" on="0"/>
        <pt x="993" y="114" on="0"/>
        <pt x="1070" y="187" on="0"/>
        <pt x="1112" y="308" on="0"/>
        <pt x="1112" y="399" on="1"/>
        <pt x="1182" y="399" on="1"/>
        <pt x="1170" y="0" on="1"/>
        <pt x="113" y="0" on="1"/>
        <pt x="113" y="68" on="1"/>
        <pt x="162" y="69" on="0"/>
        <pt x="219" y="98" on="0"/>
        <pt x="247" y="148" on="0"/>
        <pt x="254" y="217" on="0"/>
        <pt x="254" y="259" on="1"/>
        <pt x="254" y="319" on="1"/>
        <pt x="254" y="1204" on="1"/>
        <pt x="254" y="1246" on="0"/>
        <pt x="257" y="1321" on="0"/>
        <pt x="261" y="1352" on="1"/>
        <pt x="113" y="1343" on="1"/>
        <pt x="113" y="1434" on="1"/>
        <pt x="1098" y="1434" on="1"/>
        <pt x="1108" y="1075" on="1"/>
        <pt x="1041" y="1075" on="1"/>
        <pt x="1041" y="1163" on="0"/>
        <pt x="1000" y="1275" on="0"/>
        <pt x="929" y="1339" on="0"/>
        <pt x="833" y="1362" on="0"/>
        <pt x="777" y="1362" on="1"/>
        <pt x="588" y="1359" on="1"/>
        <pt x="531" y="1356" on="0"/>
        <pt x="468" y="1326" on="0"/>
        <pt x="438" y="1267" on="0"/>
        <pt x="433" y="1177" on="0"/>
        <pt x="433" y="1114" on="1"/>
        <pt x="433" y="784" on="1"/>
        <pt x="817" y="784" on="1"/>
        <pt x="802" y="961" on="1"/>
        <pt x="893" y="961" on="1"/>
        <pt x="893" y="530" on="1"/>
        <pt x="826" y="530" on="1"/>
        <pt x="826" y="590" on="0"/>
        <pt x="805" y="661" on="0"/>
        <pt x="760" y="700" on="0"/>
        <pt x="691" y="712" on="0"/>
        <pt x="642" y="712" on="1"/>
        <pt x="628" y="712" on="0"/>
        <pt x="598" y="712" on="0"/>
        <pt x="433" y="705" on="1"/>
      </contour>
    </TTGlyph>
    <TTGlyph name="Eacute" xMin="113" yMin="0" xMax="1182" yMax="1900">
      <component glyphName="E" x="0" y="0" flags="0x204"/>
      <component glyphName="Acute" x="479" y="0" flags="0x4"/>
    </TTGlyph>
    <TTGlyph name="Ecaron" xMin="114" yMin="0" xMax="1183" yMax="1890">
      <component glyphName="E" x="1" y="0" flags="0x200"/>
      <component glyphName="Caron" x="210" y="0" flags="0x0"/>
    </TTGlyph>
    <TTGlyph name="Ecircumflex" xMin="113" yMin="0" xMax="1182" yMax="1907">
      <component glyphName="E" x="0" y="0" flags="0x204"/>
      <component glyphName="Circumflex" x="189" y="0" flags="0x4"/>
    </TTGlyph>
    <TTGlyph name="Edieresis" xMin="113" yMin="0" xMax="1182" yMax="1850">
      <component glyphName="E" x="0" y="0" flags="0x204"/>
      <component glyphName="Dieresis" x="283" y="0" flags="0x4"/>
    </TTGlyph>
    <TTGlyph name="Edotaccent" xMin="113" yMin="0" xMax="1182" yMax="1902">
      <component glyphName="E" x="0" y="0" flags="0x200"/>
      <component glyphName="period" x="438" y="1688" scalex="0.923095703125" scaley="0.922485351562" flags="0x0"/>
    </TTGlyph>
    <TTGlyph name="Egrave" xMin="113" yMin="0" xMax="1182" yMax="1900">
      <component glyphName="E" x="0" y="0" flags="0x204"/>
      <component glyphName="Grave" x="250" y="0" flags="0x4"/>
    </TTGlyph>
    <TTGlyph name="Emacron" xMin="113" yMin="0" xMax="1182" yMax="1844">
      <component glyphName="E" x="0" y="0" flags="0x200"/>
      <component glyphName="macron" x="267" y="410" flags="0x0"/>
    </TTGlyph>
    <TTGlyph name="Eogonek" xMin="113" yMin="-520" xMax="1182" yMax="1434">
      <contour>
        <pt x="1119" y="0" on="1"/>
        <pt x="1069" y="-20" on="0"/>
        <pt x="982" y="-74" on="0"/>
        <pt x="916" y="-142" on="0"/>
        <pt x="878" y="-223" on="0"/>
        <pt x="878" y="-270" on="1"/>
        <pt x="878" y="-302" on="0"/>
        <pt x="899" y="-354" on="0"/>
        <pt x="933" y="-390" on="0"/>
        <pt x="979" y="-410" on="0"/>
        <pt x="1005" y="-410" on="1"/>
        <pt x="1042" y="-410" on="0"/>
        <pt x="1109" y="-379" on="0"/>
        <pt x="1138" y="-354" on="1"/>
        <pt x="1173" y="-391" on="1"/>
        <pt x="1153" y="-415" on="0"/>
        <pt x="1100" y="-461" on="0"/>
        <pt x="1037" y="-498" on="0"/>
        <pt x="966" y="-520" on="0"/>
        <pt x="929" y="-520" on="1"/>
        <pt x="880" y="-520" on="0"/>
        <pt x="800" y="-489" on="0"/>
        <pt x="743" y="-434" on="0"/>
        <pt x="712" y="-357" on="0"/>
        <pt x="712" y="-311" on="1"/>
        <pt x="712" y="-263" on="0"/>
        <pt x="754" y="-174" on="0"/>
        <pt x="827" y="-95" on="0"/>
        <pt x="925" y="-27" on="0"/>
        <pt x="980" y="0" on="1"/>
        <pt x="113" y="0" on="1"/>
        <pt x="113" y="68" on="1"/>
        <pt x="171" y="70" on="0"/>
        <pt x="229" y="108" on="0"/>
        <pt x="253" y="174" on="0"/>
        <pt x="254" y="265" on="0"/>
        <pt x="254" y="319" on="1"/>
        <pt x="254" y="1204" on="1"/>
        <pt x="254" y="1246" on="0"/>
        <pt x="257" y="1321" on="0"/>
        <pt x="261" y="1352" on="1"/>
        <pt x="113" y="1343" on="1"/>
        <pt x="113" y="1434" on="1"/>
        <pt x="1098" y="1434" on="1"/>
        <pt x="1108" y="1075" on="1"/>
        <pt x="1041" y="1075" on="1"/>
        <pt x="1041" y="1166" on="0"/>
        <pt x="998" y="1279" on="0"/>
        <pt x="923" y="1342" on="0"/>
        <pt x="822" y="1363" on="0"/>
        <pt x="764" y="1362" on="1"/>
        <pt x="588" y="1358" on="1"/>
        <pt x="531" y="1356" on="0"/>
        <pt x="468" y="1327" on="0"/>
        <pt x="438" y="1267" on="0"/>
        <pt x="433" y="1176" on="0"/>
        <pt x="433" y="1114" on="1"/>
        <pt x="433" y="784" on="1"/>
        <pt x="817" y="784" on="1"/>
        <pt x="802" y="961" on="1"/>
        <pt x="893" y="961" on="1"/>
        <pt x="893" y="530" on="1"/>
        <pt x="826" y="530" on="1"/>
        <pt x="826" y="598" on="0"/>
        <pt x="799" y="673" on="0"/>
        <pt x="740" y="708" on="0"/>
        <pt x="647" y="713" on="0"/>
        <pt x="582" y="711" on="1"/>
        <pt x="433" y="705" on="1"/>
        <pt x="433" y="236" on="1"/>
        <pt x="433" y="180" on="0"/>
        <pt x="430" y="102" on="0"/>
        <pt x="426" y="76" on="1"/>
        <pt x="818" y="82" on="1"/>
        <pt x="885" y="83" on="0"/>
        <pt x="993" y="114" on="0"/>
        <pt x="1070" y="187" on="0"/>
        <pt x="1112" y="308" on="0"/>
        <pt x="1112" y="399" on="1"/>
        <pt x="1182" y="399" on="1"/>
        <pt x="1170" y="0" on="1"/>
      </contour>
    </TTGlyph>
    <TTGlyph name="Eth" xMin="39" yMin="0" xMax="1434" yMax="1436">
      <contour>
        <pt x="39" y="772" on="1"/>
        <pt x="256" y="772" on="1"/>
        <pt x="256" y="1204" on="1"/>
        <pt x="256" y="1246" on="0"/>
        <pt x="259" y="1321" on="0"/>
        <pt x="263" y="1352" on="1"/>
        <pt x="115" y="1343" on="1"/>
        <pt x="115" y="1434" on="1"/>
        <pt x="598" y="1436" on="1"/>
        <pt x="784" y="1436" on="0"/>
        <pt x="1091" y="1350" on="0"/>
        <pt x="1312" y="1172" on="0"/>
        <pt x="1434" y="900" on="0"/>
        <pt x="1434" y="715" on="1"/>
        <pt x="1434" y="621" on="0"/>
        <pt x="1390" y="442" on="0"/>
        <pt x="1302" y="283" on="0"/>
        <pt x="1171" y="150" on="0"/>
        <pt x="998" y="54" on="0"/>
        <pt x="782" y="0" on="0"/>
        <pt x="654" y="0" on="1"/>
        <pt x="115" y="0" on="1"/>
        <pt x="115" y="68" on="1"/>
        <pt x="164" y="69" on="0"/>
        <pt x="221" y="98" on="0"/>
        <pt x="249" y="148" on="0"/>
        <pt x="256" y="217" on="0"/>
        <pt x="256" y="259" on="1"/>
        <pt x="256" y="668" on="1"/>
        <pt x="39" y="666" on="1"/>
      </contour>
      <contour>
        <pt x="684" y="772" on="1"/>
        <pt x="684" y="674" on="1"/>
        <pt x="435" y="670" on="1"/>
        <pt x="435" y="242" on="1"/>
        <pt x="435" y="185" on="0"/>
        <pt x="432" y="108" on="0"/>
        <pt x="428" y="82" on="1"/>
        <pt x="473" y="80" on="0"/>
        <pt x="551" y="78" on="0"/>
        <pt x="580" y="78" on="1"/>
        <pt x="648" y="78" on="1"/>
        <pt x="780" y="78" on="0"/>
        <pt x="996" y="176" on="0"/>
        <pt x="1149" y="349" on="0"/>
        <pt x="1233" y="585" on="0"/>
        <pt x="1233" y="723" on="1"/>
        <pt x="1233" y="868" on="0"/>
        <pt x="1154" y="1103" on="0"/>
        <pt x="992" y="1270" on="0"/>
        <pt x="745" y="1360" on="0"/>
        <pt x="576" y="1360" on="1"/>
        <pt x="526" y="1360" on="0"/>
        <pt x="470" y="1334" on="0"/>
        <pt x="442" y="1285" on="0"/>
        <pt x="435" y="1216" on="0"/>
        <pt x="435" y="1174" on="1"/>
        <pt x="435" y="772" on="1"/>
      </contour>
    </TTGlyph>
    <TTGlyph name="Euro" xMin="72" yMin="-33" xMax="1471" yMax="1467">
      <contour>
        <pt x="940" y="1381" on="1"/>
        <pt x="856" y="1381" on="0"/>
        <pt x="704" y="1321" on="0"/>
        <pt x="579" y="1206" on="0"/>
        <pt x="487" y="1038" on="0"/>
        <pt x="464" y="929" on="1"/>
        <pt x="1153" y="926" on="1"/>
        <pt x="1098" y="811" on="1"/>
        <pt x="448" y="808" on="1"/>
        <pt x="445" y="767" on="0"/>
        <pt x="445" y="723" on="1"/>
        <pt x="445" y="699" on="0"/>
        <pt x="447" y="652" on="0"/>
        <pt x="449" y="629" on="1"/>
        <pt x="1014" y="627" on="1"/>
        <pt x="957" y="512" on="1"/>
        <pt x="470" y="510" on="1"/>
        <pt x="494" y="411" on="0"/>
        <pt x="587" y="252" on="0"/>
        <pt x="715" y="140" on="0"/>
        <pt x="874" y="80" on="0"/>
        <pt x="965" y="80" on="1"/>
        <pt x="1100" y="80" on="0"/>
        <pt x="1333" y="192" on="0"/>
        <pt x="1418" y="307" on="1"/>
        <pt x="1471" y="264" on="1"/>
        <pt x="1405" y="173" on="0"/>
        <pt x="1261" y="57" on="0"/>
        <pt x="1116" y="-9" on="0"/>
        <pt x="975" y="-33" on="0"/>
        <pt x="912" y="-33" on="1"/>
        <pt x="782" y="-33" on="0"/>
        <pt x="568" y="48" on="0"/>
        <pt x="406" y="192" on="0"/>
        <pt x="298" y="391" on="0"/>
        <pt x="274" y="509" on="1"/>
        <pt x="72" y="508" on="1"/>
        <pt x="101" y="631" on="1"/>
        <pt x="260" y="630" on="1"/>
        <pt x="257" y="670" on="0"/>
        <pt x="257" y="711" on="1"/>
        <pt x="257" y="759" on="0"/>
        <pt x="263" y="807" on="1"/>
        <pt x="72" y="807" on="1"/>
        <pt x="101" y="930" on="1"/>
        <pt x="286" y="929" on="1"/>
        <pt x="314" y="1038" on="0"/>
        <pt x="424" y="1234" on="0"/>
        <pt x="585" y="1381" on="0"/>
        <pt x="796" y="1467" on="0"/>
        <pt x="926" y="1467" on="1"/>
        <pt x="1036" y="1467" on="0"/>
        <pt x="1218" y="1407" on="0"/>
        <pt x="1306" y="1349" on="1"/>
        <pt x="1309" y="1450" on="1"/>
        <pt x="1420" y="1450" on="1"/>
        <pt x="1379" y="1036" on="1"/>
        <pt x="1305" y="1036" on="1"/>
        <pt x="1294" y="1109" on="0"/>
        <pt x="1243" y="1235" on="0"/>
        <pt x="1156" y="1328" on="0"/>
        <pt x="1028" y="1381" on="0"/>
      </contour>
    </TTGlyph>
    <TTGlyph name="F" xMin="113" yMin="0" xMax="1074" yMax="1434">
      <contour>
        <pt x="433" y="244" on="1"/>
        <pt x="433" y="188" on="0"/>
        <pt x="430" y="108" on="0"/>
        <pt x="426" y="82" on="1"/>
        <pt x="635" y="90" on="1"/>
        <pt x="635" y="0" on="1"/>
        <pt x="113" y="0" on="1"/>
        <pt x="113" y="68" on="1"/>
        <pt x="171" y="70" on="0"/>
        <pt x="229" y="108" on="0"/>
        <pt x="253" y="174" on="0"/>
        <pt x="254" y="265" on="0"/>
        <pt x="254" y="319" on="1"/>
        <pt x="254" y="1204" on="1"/>
        <pt x="254" y="1246" on="0"/>
        <pt x="257" y="1321" on="0"/>
        <pt x="261" y="1352" on="1"/>
        <pt x="113" y="1343" on="1"/>
        <pt x="113" y="1434" on="1"/>
        <pt x="1063" y="1434" on="1"/>
        <pt x="1074" y="1075" on="1"/>
        <pt x="1006" y="1075" on="1"/>
        <pt x="1006" y="1166" on="0"/>
        <pt x="961" y="1279" on="0"/>
        <pt x="884" y="1342" on="0"/>
        <pt x="781" y="1363" on="0"/>
        <pt x="723" y="1362" on="1"/>
        <pt x="574" y="1358" on="1"/>
        <pt x="517" y="1356" on="0"/>
        <pt x="458" y="1317" on="0"/>
        <pt x="434" y="1250" on="0"/>
        <pt x="433" y="1159" on="0"/>
        <pt x="433" y="1106" on="1"/>
        <pt x="433" y="752" on="1"/>
        <pt x="789" y="752" on="1"/>
        <pt x="774" y="929" on="1"/>
        <pt x="865" y="929" on="1"/>
        <pt x="865" y="498" on="1"/>
        <pt x="798" y="498" on="1"/>
        <pt x="798" y="558" on="0"/>
        <pt x="777" y="629" on="0"/>
        <pt x="732" y="668" on="0"/>
        <pt x="663" y="680" on="0"/>
        <pt x="614" y="680" on="1"/>
        <pt x="600" y="680" on="0"/>
        <pt x="570" y="680" on="0"/>
        <pt x="433" y="673" on="1"/>
      </contour>
    </TTGlyph>
    <TTGlyph name="G" xMin="96" yMin="-33" xMax="1515" yMax="1467">
      <contour>
        <pt x="1368" y="74" on="1"/>
        <pt x="1312" y="74" on="1"/>
        <pt x="1278" y="74" on="0"/>
        <pt x="1166" y="50" on="0"/>
        <pt x="1091" y="21" on="1"/>
        <pt x="1059" y="9" on="0"/>
        <pt x="983" y="-11" on="0"/>
        <pt x="904" y="-25" on="0"/>
        <pt x="826" y="-33" on="0"/>
        <pt x="792" y="-33" on="1"/>
        <pt x="638" y="-33" on="0"/>
        <pt x="382" y="66" on="0"/>
        <pt x="198" y="251" on="0"/>
        <pt x="96" y="518" on="0"/>
        <pt x="96" y="686" on="1"/>
        <pt x="96" y="782" on="0"/>
        <pt x="135" y="973" on="0"/>
        <pt x="214" y="1146" on="0"/>
        <pt x="332" y="1295" on="0"/>
        <pt x="491" y="1405" on="0"/>
        <pt x="690" y="1467" on="0"/>
        <pt x="809" y="1467" on="1"/>
        <pt x="864" y="1467" on="0"/>
        <pt x="978" y="1451" on="0"/>
        <pt x="1088" y="1422" on="0"/>
        <pt x="1190" y="1380" on="0"/>
        <pt x="1233" y="1354" on="1"/>
        <pt x="1224" y="1452" on="1"/>
        <pt x="1337" y="1452" on="1"/>
        <pt x="1337" y="983" on="1"/>
        <pt x="1263" y="983" on="1"/>
        <pt x="1256" y="1079" on="0"/>
        <pt x="1184" y="1229" on="0"/>
        <pt x="1067" y="1331" on="0"/>
        <pt x="912" y="1385" on="0"/>
        <pt x="823" y="1385" on="1"/>
        <pt x="714" y="1385" on="0"/>
        <pt x="522" y="1288" on="0"/>
        <pt x="380" y="1115" on="0"/>
        <pt x="297" y="876" on="0"/>
        <pt x="297" y="733" on="1"/>
        <pt x="297" y="588" on="0"/>
        <pt x="377" y="343" on="0"/>
        <pt x="522" y="166" on="0"/>
        <pt x="724" y="66" on="0"/>
        <pt x="845" y="66" on="1"/>
        <pt x="886" y="66" on="0"/>
        <pt x="976" y="78" on="0"/>
        <pt x="1067" y="102" on="0"/>
        <pt x="1156" y="141" on="0"/>
        <pt x="1196" y="168" on="1"/>
        <pt x="1196" y="616" on="1"/>
        <pt x="1052" y="608" on="1"/>
        <pt x="1052" y="698" on="1"/>
        <pt x="1515" y="698" on="1"/>
        <pt x="1515" y="631" on="1"/>
        <pt x="1477" y="631" on="0"/>
        <pt x="1425" y="602" on="0"/>
        <pt x="1393" y="557" on="0"/>
        <pt x="1376" y="502" on="0"/>
        <pt x="1369" y="448" on="0"/>
        <pt x="1368" y="401" on="0"/>
        <pt x="1368" y="387" on="1"/>
      </contour>
    </TTGlyph>
    <TTGlyph name="Gamma" xMin="113" yMin="0" xMax="1074" yMax="1434">
      <contour>
        <pt x="1006" y="1075" on="1"/>
        <pt x="1006" y="1166" on="0"/>
        <pt x="961" y="1279" on="0"/>
        <pt x="884" y="1342" on="0"/>
        <pt x="781" y="1363" on="0"/>
        <pt x="723" y="1362" on="1"/>
        <pt x="574" y="1358" on="1"/>
        <pt x="517" y="1356" on="0"/>
        <pt x="458" y="1317" on="0"/>
        <pt x="434" y="1250" on="0"/>
        <pt x="433" y="1159" on="0"/>
        <pt x="433" y="1106" on="1"/>
        <pt x="433" y="244" on="1"/>
        <pt x="433" y="188" on="0"/>
        <pt x="430" y="108" on="0"/>
        <pt x="426" y="82" on="1"/>
        <pt x="635" y="90" on="1"/>
        <pt x="635" y="0" on="1"/>
        <pt x="113" y="0" on="1"/>
        <pt x="113" y="68" on="1"/>
        <pt x="171" y="70" on="0"/>
        <pt x="229" y="108" on="0"/>
        <pt x="253" y="174" on="0"/>
        <pt x="254" y="265" on="0"/>
        <pt x="254" y="319" on="1"/>
        <pt x="254" y="1204" on="1"/>
        <pt x="254" y="1246" on="0"/>
        <pt x="257" y="1321" on="0"/>
        <pt x="261" y="1352" on="1"/>
        <pt x="113" y="1343" on="1"/>
        <pt x="113" y="1434" on="1"/>
        <pt x="1063" y="1434" on="1"/>
        <pt x="1074" y="1075" on="1"/>
      </contour>
    </TTGlyph>
    <TTGlyph name="Gbreve" xMin="97" yMin="-33" xMax="1516" yMax="1892">
      <component glyphName="G" x="1" y="0" flags="0x200"/>
      <component glyphName="Breve" x="438" y="0" flags="0x0"/>
    </TTGlyph>
    <TTGlyph name="Gcommaaccent" xMin="97" yMin="-531" xMax="1516" yMax="1467">
      <component glyphName="G" x="1" y="0" flags="0x200"/>
      <component glyphName="commaaccentcomb" x="514" y="0" flags="0x0"/>
    </TTGlyph>
    <TTGlyph name="Grave" xMin="91" yMin="1556" xMax="502" yMax="1900">
      <contour>
        <pt x="160" y="1739" on="1"/>
        <pt x="125" y="1760" on="0"/>
        <pt x="97" y="1802" on="0"/>
        <pt x="91" y="1838" on="0"/>
        <pt x="101" y="1865" on="0"/>
        <pt x="106" y="1872" on="1"/>
        <pt x="109" y="1876" on="0"/>
        <pt x="130" y="1893" on="0"/>
        <pt x="165" y="1900" on="0"/>
        <pt x="214" y="1888" on="0"/>
        <pt x="244" y="1862" on="1"/>
        <pt x="502" y="1616" on="1"/>
        <pt x="457" y="1556" on="1"/>
      </contour>
    </TTGlyph>
    <TTGlyph name="H" xMin="113" yMin="0" xMax="1485" yMax="1434">
      <contour>
        <pt x="1166" y="693" on="1"/>
        <pt x="433" y="684" on="1"/>
        <pt x="433" y="244" on="1"/>
        <pt x="433" y="188" on="0"/>
        <pt x="430" y="108" on="0"/>
        <pt x="426" y="82" on="1"/>
        <pt x="574" y="90" on="1"/>
        <pt x="574" y="0" on="1"/>
        <pt x="113" y="0" on="1"/>
        <pt x="113" y="68" on="1"/>
        <pt x="171" y="70" on="0"/>
        <pt x="229" y="108" on="0"/>
        <pt x="253" y="174" on="0"/>
        <pt x="254" y="265" on="0"/>
        <pt x="254" y="319" on="1"/>
        <pt x="254" y="1204" on="1"/>
        <pt x="254" y="1246" on="0"/>
        <pt x="257" y="1321" on="0"/>
        <pt x="261" y="1352" on="1"/>
        <pt x="113" y="1343" on="1"/>
        <pt x="113" y="1434" on="1"/>
        <pt x="574" y="1434" on="1"/>
        <pt x="574" y="1366" on="1"/>
        <pt x="516" y="1364" on="0"/>
        <pt x="458" y="1325" on="0"/>
        <pt x="434" y="1259" on="0"/>
        <pt x="433" y="1169" on="0"/>
        <pt x="433" y="1114" on="1"/>
        <pt x="433" y="774" on="1"/>
        <pt x="1166" y="774" on="1"/>
        <pt x="1166" y="1204" on="1"/>
        <pt x="1166" y="1290" on="0"/>
        <pt x="1172" y="1352" on="1"/>
        <pt x="1024" y="1343" on="1"/>
        <pt x="1024" y="1434" on="1"/>
        <pt x="1485" y="1434" on="1"/>
        <pt x="1485" y="1366" on="1"/>
        <pt x="1428" y="1364" on="0"/>
        <pt x="1369" y="1325" on="0"/>
        <pt x="1345" y="1259" on="0"/>
        <pt x="1344" y="1169" on="0"/>
        <pt x="1344" y="1114" on="1"/>
        <pt x="1344" y="244" on="1"/>
        <pt x="1344" y="134" on="0"/>
        <pt x="1338" y="82" on="1"/>
        <pt x="1485" y="90" on="1"/>
        <pt x="1485" y="0" on="1"/>
        <pt x="1024" y="0" on="1"/>
        <pt x="1024" y="68" on="1"/>
        <pt x="1082" y="70" on="0"/>
        <pt x="1141" y="108" on="0"/>
        <pt x="1165" y="174" on="0"/>
        <pt x="1166" y="265" on="0"/>
        <pt x="1166" y="319" on="1"/>
      </contour>
    </TTGlyph>
    <TTGlyph name="I" xMin="113" yMin="0" xMax="574" yMax="1434">
      <contour>
        <pt x="254" y="1204" on="1"/>
        <pt x="254" y="1246" on="0"/>
        <pt x="257" y="1321" on="0"/>
        <pt x="261" y="1352" on="1"/>
        <pt x="113" y="1343" on="1"/>
        <pt x="113" y="1434" on="1"/>
        <pt x="574" y="1434" on="1"/>
        <pt x="574" y="1366" on="1"/>
        <pt x="516" y="1364" on="0"/>
        <pt x="458" y="1325" on="0"/>
        <pt x="434" y="1259" on="0"/>
        <pt x="433" y="1169" on="0"/>
        <pt x="433" y="1114" on="1"/>
        <pt x="433" y="244" on="1"/>
        <pt x="433" y="188" on="0"/>
        <pt x="430" y="108" on="0"/>
        <pt x="426" y="82" on="1"/>
        <pt x="574" y="90" on="1"/>
        <pt x="574" y="0" on="1"/>
        <pt x="113" y="0" on="1"/>
        <pt x="113" y="68" on="1"/>
        <pt x="171" y="70" on="0"/>
        <pt x="229" y="108" on="0"/>
        <pt x="253" y="174" on="0"/>
        <pt x="254" y="265" on="0"/>
        <pt x="254" y="319" on="1"/>
      </contour>
    </TTGlyph>
    <TTGlyph name="Iacute" xMin="113" yMin="0" xMax="612" yMax="1900">
      <component glyphName="I" x="0" y="0" flags="0x4"/>
      <component glyphName="Acute" x="133" y="0" flags="0x4"/>
    </TTGlyph>
    <TTGlyph name="Icircumflex" xMin="-18" yMin="0" xMax="719" yMax="1907">
      <contour>
        <pt x="359" y="1907" on="1"/>
        <pt x="363" y="1907" on="1"/>
        <pt x="719" y="1618" on="1"/>
        <pt x="674" y="1548" on="1"/>
        <pt x="355" y="1729" on="1"/>
        <pt x="351" y="1729" on="1"/>
        <pt x="23" y="1550" on="1"/>
        <pt x="-18" y="1616" on="1"/>
      </contour>
      <contour>
        <pt x="253" y="1204" on="1"/>
        <pt x="253" y="1246" on="0"/>
        <pt x="256" y="1321" on="0"/>
        <pt x="260" y="1352" on="1"/>
        <pt x="112" y="1343" on="1"/>
        <pt x="112" y="1434" on="1"/>
        <pt x="573" y="1434" on="1"/>
        <pt x="573" y="1366" on="1"/>
        <pt x="515" y="1364" on="0"/>
        <pt x="457" y="1325" on="0"/>
        <pt x="433" y="1259" on="0"/>
        <pt x="432" y="1169" on="0"/>
        <pt x="432" y="1114" on="1"/>
        <pt x="432" y="244" on="1"/>
        <pt x="432" y="188" on="0"/>
        <pt x="429" y="108" on="0"/>
        <pt x="425" y="82" on="1"/>
        <pt x="573" y="90" on="1"/>
        <pt x="573" y="0" on="1"/>
        <pt x="112" y="0" on="1"/>
        <pt x="112" y="68" on="1"/>
        <pt x="170" y="70" on="0"/>
        <pt x="228" y="108" on="0"/>
        <pt x="252" y="174" on="0"/>
        <pt x="253" y="265" on="0"/>
        <pt x="253" y="319" on="1"/>
      </contour>
    </TTGlyph>
    <TTGlyph name="Idieresis" xMin="86" yMin="0" xMax="635" yMax="1846">
      <contour>
        <pt x="253" y="1204" on="1"/>
        <pt x="253" y="1246" on="0"/>
        <pt x="256" y="1321" on="0"/>
        <pt x="260" y="1352" on="1"/>
        <pt x="112" y="1343" on="1"/>
        <pt x="112" y="1434" on="1"/>
        <pt x="573" y="1434" on="1"/>
        <pt x="573" y="1366" on="1"/>
        <pt x="515" y="1364" on="0"/>
        <pt x="457" y="1325" on="0"/>
        <pt x="433" y="1259" on="0"/>
        <pt x="432" y="1169" on="0"/>
        <pt x="432" y="1114" on="1"/>
        <pt x="432" y="244" on="1"/>
        <pt x="432" y="188" on="0"/>
        <pt x="429" y="108" on="0"/>
        <pt x="425" y="82" on="1"/>
        <pt x="573" y="90" on="1"/>
        <pt x="573" y="0" on="1"/>
        <pt x="112" y="0" on="1"/>
        <pt x="112" y="68" on="1"/>
        <pt x="170" y="70" on="0"/>
        <pt x="228" y="108" on="0"/>
        <pt x="252" y="174" on="0"/>
        <pt x="253" y="265" on="0"/>
        <pt x="253" y="319" on="1"/>
      </contour>
      <contour>
        <pt x="635" y="1714" on="1"/>
        <pt x="635" y="1688" on="0"/>
        <pt x="616" y="1641" on="0"/>
        <pt x="585" y="1605" on="0"/>
        <pt x="545" y="1586" on="0"/>
        <pt x="523" y="1586" on="1"/>
        <pt x="501" y="1586" on="0"/>
        <pt x="460" y="1605" on="0"/>
        <pt x="430" y="1641" on="0"/>
        <pt x="412" y="1688" on="0"/>
        <pt x="412" y="1714" on="1"/>
        <pt x="412" y="1742" on="0"/>
        <pt x="431" y="1790" on="0"/>
        <pt x="461" y="1826" on="0"/>
        <pt x="502" y="1846" on="0"/>
        <pt x="525" y="1846" on="1"/>
        <pt x="548" y="1846" on="0"/>
        <pt x="588" y="1826" on="0"/>
        <pt x="618" y="1790" on="0"/>
        <pt x="635" y="1742" on="0"/>
      </contour>
      <contour>
        <pt x="309" y="1714" on="1"/>
        <pt x="309" y="1688" on="0"/>
        <pt x="290" y="1641" on="0"/>
        <pt x="259" y="1605" on="0"/>
        <pt x="219" y="1586" on="0"/>
        <pt x="197" y="1586" on="1"/>
        <pt x="175" y="1586" on="0"/>
        <pt x="134" y="1605" on="0"/>
        <pt x="104" y="1641" on="0"/>
        <pt x="86" y="1688" on="0"/>
        <pt x="86" y="1714" on="1"/>
        <pt x="86" y="1742" on="0"/>
        <pt x="105" y="1790" on="0"/>
        <pt x="135" y="1826" on="0"/>
        <pt x="176" y="1846" on="0"/>
        <pt x="199" y="1846" on="1"/>
        <pt x="222" y="1846" on="0"/>
        <pt x="262" y="1826" on="0"/>
        <pt x="292" y="1790" on="0"/>
        <pt x="309" y="1742" on="0"/>
      </contour>
    </TTGlyph>
    <TTGlyph name="Idotaccent" xMin="113" yMin="0" xMax="574" yMax="1901">
      <component glyphName="I" x="0" y="0" flags="0x200"/>
      <component glyphName="period" x="118" y="1687" scalex="0.923095703125" scaley="0.922485351562" flags="0x0"/>
    </TTGlyph>
    <TTGlyph name="Igrave" xMin="33" yMin="0" xMax="573" yMax="1900">
      <component glyphName="I" x="-1" y="0" flags="0x4"/>
      <component glyphName="Grave" x="-58" y="0" flags="0x4"/>
    </TTGlyph>
    <TTGlyph name="Imacron" xMin="84" yMin="0" xMax="627" yMax="1844">
      <component glyphName="I" x="0" y="0" flags="0x200"/>
      <component glyphName="macron" x="-8" y="410" flags="0x0"/>
    </TTGlyph>
    <TTGlyph name="Iogonek" xMin="113" yMin="-531" xMax="587" yMax="1434">
      <contour>
        <pt x="587" y="-402" on="1"/>
        <pt x="567" y="-426" on="0"/>
        <pt x="514" y="-472" on="0"/>
        <pt x="451" y="-509" on="0"/>
        <pt x="380" y="-531" on="0"/>
        <pt x="343" y="-531" on="1"/>
        <pt x="294" y="-531" on="0"/>
        <pt x="214" y="-500" on="0"/>
        <pt x="157" y="-445" on="0"/>
        <pt x="126" y="-368" on="0"/>
        <pt x="126" y="-322" on="1"/>
        <pt x="126" y="-271" on="0"/>
        <pt x="173" y="-178" on="0"/>
        <pt x="252" y="-97" on="0"/>
        <pt x="358" y="-27" on="0"/>
        <pt x="417" y="0" on="1"/>
        <pt x="113" y="0" on="1"/>
        <pt x="113" y="68" on="1"/>
        <pt x="171" y="70" on="0"/>
        <pt x="229" y="108" on="0"/>
        <pt x="253" y="174" on="0"/>
        <pt x="254" y="265" on="0"/>
        <pt x="254" y="319" on="1"/>
        <pt x="254" y="1204" on="1"/>
        <pt x="254" y="1246" on="0"/>
        <pt x="257" y="1321" on="0"/>
        <pt x="261" y="1352" on="1"/>
        <pt x="113" y="1343" on="1"/>
        <pt x="113" y="1434" on="1"/>
        <pt x="574" y="1434" on="1"/>
        <pt x="574" y="1366" on="1"/>
        <pt x="516" y="1364" on="0"/>
        <pt x="458" y="1325" on="0"/>
        <pt x="434" y="1259" on="0"/>
        <pt x="433" y="1169" on="0"/>
        <pt x="433" y="1114" on="1"/>
        <pt x="433" y="244" on="1"/>
        <pt x="433" y="188" on="0"/>
        <pt x="430" y="108" on="0"/>
        <pt x="426" y="82" on="1"/>
        <pt x="574" y="90" on="1"/>
        <pt x="574" y="0" on="1"/>
        <pt x="562" y="0" on="1"/>
        <pt x="508" y="-20" on="0"/>
        <pt x="410" y="-74" on="0"/>
        <pt x="336" y="-145" on="0"/>
        <pt x="292" y="-230" on="0"/>
        <pt x="292" y="-281" on="1"/>
        <pt x="292" y="-313" on="0"/>
        <pt x="313" y="-365" on="0"/>
        <pt x="347" y="-401" on="0"/>
        <pt x="393" y="-421" on="0"/>
        <pt x="419" y="-421" on="1"/>
        <pt x="456" y="-421" on="0"/>
        <pt x="523" y="-390" on="0"/>
        <pt x="552" y="-365" on="1"/>
      </contour>
    </TTGlyph>
    <TTGlyph name="J" xMin="-4" yMin="-33" xMax="703" yMax="1434">
      <contour>
        <pt x="165" y="83" on="1"/>
        <pt x="171" y="74" on="0"/>
        <pt x="192" y="61" on="0"/>
        <pt x="216" y="53" on="0"/>
        <pt x="238" y="51" on="0"/>
        <pt x="246" y="51" on="1"/>
        <pt x="276" y="52" on="0"/>
        <pt x="322" y="78" on="0"/>
        <pt x="352" y="134" on="0"/>
        <pt x="367" y="222" on="0"/>
        <pt x="367" y="285" on="1"/>
        <pt x="367" y="1352" on="1"/>
        <pt x="158" y="1343" on="1"/>
        <pt x="158" y="1434" on="1"/>
        <pt x="703" y="1434" on="1"/>
        <pt x="703" y="1366" on="1"/>
        <pt x="652" y="1366" on="0"/>
        <pt x="590" y="1335" on="0"/>
        <pt x="556" y="1280" on="0"/>
        <pt x="545" y="1206" on="0"/>
        <pt x="545" y="1163" on="1"/>
        <pt x="545" y="500" on="1"/>
        <pt x="545" y="356" on="0"/>
        <pt x="507" y="153" on="0"/>
        <pt x="427" y="25" on="0"/>
        <pt x="300" y="-33" on="0"/>
        <pt x="212" y="-33" on="1"/>
        <pt x="169" y="-33" on="0"/>
        <pt x="91" y="-13" on="0"/>
        <pt x="31" y="25" on="0"/>
        <pt x="-4" y="79" on="0"/>
        <pt x="-4" y="113" on="1"/>
        <pt x="-4" y="133" on="0"/>
        <pt x="7" y="170" on="0"/>
        <pt x="29" y="200" on="0"/>
        <pt x="55" y="215" on="0"/>
        <pt x="77" y="220" on="0"/>
        <pt x="92" y="220" on="1"/>
        <pt x="110" y="220" on="0"/>
        <pt x="144" y="204" on="0"/>
        <pt x="165" y="177" on="0"/>
        <pt x="175" y="144" on="0"/>
        <pt x="175" y="129" on="1"/>
        <pt x="175" y="119" on="0"/>
        <pt x="170" y="94" on="0"/>
      </contour>
    </TTGlyph>
    <TTGlyph name="K" xMin="113" yMin="0" xMax="1389" yMax="1434">
      <contour>
        <pt x="254" y="1204" on="1"/>
        <pt x="254" y="1246" on="0"/>
        <pt x="257" y="1321" on="0"/>
        <pt x="261" y="1352" on="1"/>
        <pt x="113" y="1343" on="1"/>
        <pt x="113" y="1434" on="1"/>
        <pt x="574" y="1434" on="1"/>
        <pt x="574" y="1366" on="1"/>
        <pt x="516" y="1364" on="0"/>
        <pt x="458" y="1325" on="0"/>
        <pt x="434" y="1259" on="0"/>
        <pt x="433" y="1169" on="0"/>
        <pt x="433" y="1114" on="1"/>
        <pt x="433" y="778" on="1"/>
        <pt x="586" y="778" on="1"/>
        <pt x="842" y="1182" on="1"/>
        <pt x="855" y="1202" on="0"/>
        <pt x="888" y="1248" on="0"/>
        <pt x="925" y="1294" on="0"/>
        <pt x="967" y="1337" on="0"/>
        <pt x="988" y="1354" on="1"/>
        <pt x="863" y="1350" on="1"/>
        <pt x="863" y="1434" on="1"/>
        <pt x="1303" y="1434" on="1"/>
        <pt x="1303" y="1366" on="1"/>
        <pt x="1238" y="1361" on="0"/>
        <pt x="1132" y="1336" on="0"/>
        <pt x="1036" y="1277" on="0"/>
        <pt x="941" y="1174" on="0"/>
        <pt x="889" y="1090" on="1"/>
        <pt x="689" y="770" on="1"/>
        <pt x="718" y="752" on="0"/>
        <pt x="764" y="711" on="0"/>
        <pt x="804" y="667" on="0"/>
        <pt x="840" y="620" on="0"/>
        <pt x="859" y="596" on="1"/>
        <pt x="1088" y="291" on="1"/>
        <pt x="1146" y="213" on="0"/>
        <pt x="1230" y="124" on="0"/>
        <pt x="1298" y="79" on="0"/>
        <pt x="1356" y="68" on="0"/>
        <pt x="1389" y="68" on="1"/>
        <pt x="1389" y="0" on="1"/>
        <pt x="1139" y="0" on="1"/>
        <pt x="1124" y="0" on="0"/>
        <pt x="1078" y="33" on="0"/>
        <pt x="1023" y="89" on="0"/>
        <pt x="962" y="162" on="0"/>
        <pt x="932" y="201" on="1"/>
        <pt x="687" y="532" on="1"/>
        <pt x="648" y="583" on="0"/>
        <pt x="570" y="675" on="0"/>
        <pt x="533" y="698" on="1"/>
        <pt x="433" y="696" on="1"/>
        <pt x="433" y="244" on="1"/>
        <pt x="433" y="188" on="0"/>
        <pt x="430" y="108" on="0"/>
        <pt x="426" y="82" on="1"/>
        <pt x="574" y="90" on="1"/>
        <pt x="574" y="0" on="1"/>
        <pt x="113" y="0" on="1"/>
        <pt x="113" y="68" on="1"/>
        <pt x="171" y="70" on="0"/>
        <pt x="229" y="108" on="0"/>
        <pt x="253" y="174" on="0"/>
        <pt x="254" y="265" on="0"/>
        <pt x="254" y="319" on="1"/>
      </contour>
    </TTGlyph>
    <TTGlyph name="Kcommaaccent" xMin="114" yMin="-531" xMax="1390" yMax="1434">
      <component glyphName="K" x="1" y="0" flags="0x0"/>
      <component glyphName="commaaccentcomb" x="415" y="0" flags="0x0"/>
    </TTGlyph>
    <TTGlyph name="L" xMin="113" yMin="0" xMax="1141" yMax="1434">
      <contour>
        <pt x="433" y="236" on="1"/>
        <pt x="433" y="180" on="0"/>
        <pt x="430" y="102" on="0"/>
        <pt x="426" y="76" on="1"/>
        <pt x="809" y="82" on="1"/>
        <pt x="873" y="83" on="0"/>
        <pt x="972" y="122" on="0"/>
        <pt x="1038" y="204" on="0"/>
        <pt x="1072" y="333" on="0"/>
        <pt x="1072" y="424" on="1"/>
        <pt x="1141" y="424" on="1"/>
        <pt x="1129" y="0" on="1"/>
        <pt x="113" y="0" on="1"/>
        <pt x="113" y="68" on="1"/>
        <pt x="171" y="70" on="0"/>
        <pt x="229" y="108" on="0"/>
        <pt x="253" y="174" on="0"/>
        <pt x="254" y="265" on="0"/>
        <pt x="254" y="319" on="1"/>
        <pt x="254" y="1204" on="1"/>
        <pt x="254" y="1246" on="0"/>
        <pt x="257" y="1321" on="0"/>
        <pt x="261" y="1352" on="1"/>
        <pt x="113" y="1343" on="1"/>
        <pt x="113" y="1434" on="1"/>
        <pt x="574" y="1434" on="1"/>
        <pt x="574" y="1366" on="1"/>
        <pt x="516" y="1364" on="0"/>
        <pt x="458" y="1325" on="0"/>
        <pt x="434" y="1259" on="0"/>
        <pt x="433" y="1169" on="0"/>
        <pt x="433" y="1114" on="1"/>
      </contour>
    </TTGlyph>
    <TTGlyph name="Lacute" xMin="113" yMin="0" xMax="1141" yMax="1900">
      <component glyphName="L" x="0" y="0" flags="0x200"/>
      <component glyphName="Acute" x="145" y="0" flags="0x0"/>
    </TTGlyph>
    <TTGlyph name="Lcaron" xMin="113" yMin="0" xMax="1141" yMax="1453">
      <contour>
        <pt x="996" y="1426" on="1"/>
        <pt x="1013" y="1390" on="0"/>
        <pt x="1023" y="1339" on="0"/>
        <pt x="1019" y="1303" on="1"/>
        <pt x="1015" y="1262" on="0"/>
        <pt x="986" y="1181" on="0"/>
        <pt x="941" y="1104" on="0"/>
        <pt x="883" y="1032" on="0"/>
        <pt x="851" y="1000" on="1"/>
        <pt x="797" y="1040" on="1"/>
        <pt x="831" y="1104" on="0"/>
        <pt x="866" y="1215" on="0"/>
        <pt x="877" y="1315" on="0"/>
        <pt x="866" y="1407" on="0"/>
        <pt x="855" y="1453" on="1"/>
      </contour>
      <contour>
        <pt x="574" y="1366" on="1"/>
        <pt x="516" y="1364" on="0"/>
        <pt x="458" y="1325" on="0"/>
        <pt x="434" y="1259" on="0"/>
        <pt x="433" y="1169" on="0"/>
        <pt x="433" y="1114" on="1"/>
        <pt x="433" y="236" on="1"/>
        <pt x="433" y="180" on="0"/>
        <pt x="430" y="102" on="0"/>
        <pt x="426" y="76" on="1"/>
        <pt x="809" y="82" on="1"/>
        <pt x="873" y="83" on="0"/>
        <pt x="972" y="122" on="0"/>
        <pt x="1038" y="204" on="0"/>
        <pt x="1072" y="333" on="0"/>
        <pt x="1072" y="424" on="1"/>
        <pt x="1141" y="424" on="1"/>
        <pt x="1129" y="0" on="1"/>
        <pt x="113" y="0" on="1"/>
        <pt x="113" y="68" on="1"/>
        <pt x="171" y="70" on="0"/>
        <pt x="229" y="108" on="0"/>
        <pt x="253" y="174" on="0"/>
        <pt x="254" y="265" on="0"/>
        <pt x="254" y="319" on="1"/>
        <pt x="254" y="1204" on="1"/>
        <pt x="254" y="1246" on="0"/>
        <pt x="257" y="1321" on="0"/>
        <pt x="261" y="1352" on="1"/>
        <pt x="113" y="1343" on="1"/>
        <pt x="113" y="1434" on="1"/>
        <pt x="574" y="1434" on="1"/>
      </contour>
    </TTGlyph>
    <TTGlyph name="Lcommaaccent" xMin="114" yMin="-531" xMax="1142" yMax="1434">
      <component glyphName="L" x="1" y="0" flags="0x200"/>
      <component glyphName="commaaccentcomb" x="294" y="0" flags="0x0"/>
    </TTGlyph>
    <TTGlyph name="Lslash" xMin="98" yMin="0" xMax="1140" yMax="1434">
      <contour>
        <pt x="432" y="830" on="1"/>
        <pt x="640" y="985" on="1"/>
        <pt x="640" y="874" on="1"/>
        <pt x="432" y="718" on="1"/>
        <pt x="432" y="236" on="1"/>
        <pt x="432" y="179" on="0"/>
        <pt x="429" y="102" on="0"/>
        <pt x="425" y="76" on="1"/>
        <pt x="808" y="82" on="1"/>
        <pt x="872" y="83" on="0"/>
        <pt x="971" y="122" on="0"/>
        <pt x="1037" y="204" on="0"/>
        <pt x="1071" y="333" on="0"/>
        <pt x="1071" y="424" on="1"/>
        <pt x="1140" y="424" on="1"/>
        <pt x="1128" y="0" on="1"/>
        <pt x="112" y="0" on="1"/>
        <pt x="112" y="68" on="1"/>
        <pt x="161" y="69" on="0"/>
        <pt x="218" y="98" on="0"/>
        <pt x="246" y="148" on="0"/>
        <pt x="253" y="217" on="0"/>
        <pt x="253" y="259" on="1"/>
        <pt x="253" y="319" on="1"/>
        <pt x="253" y="583" on="1"/>
        <pt x="98" y="467" on="1"/>
        <pt x="98" y="582" on="1"/>
        <pt x="253" y="697" on="1"/>
        <pt x="253" y="1204" on="1"/>
        <pt x="253" y="1246" on="0"/>
        <pt x="256" y="1321" on="0"/>
        <pt x="260" y="1352" on="1"/>
        <pt x="112" y="1343" on="1"/>
        <pt x="112" y="1434" on="1"/>
        <pt x="573" y="1434" on="1"/>
        <pt x="573" y="1366" on="1"/>
        <pt x="523" y="1364" on="0"/>
        <pt x="467" y="1336" on="0"/>
        <pt x="439" y="1285" on="0"/>
        <pt x="432" y="1216" on="0"/>
        <pt x="432" y="1174" on="1"/>
        <pt x="432" y="1114" on="1"/>
      </contour>
    </TTGlyph>
    <TTGlyph name="M" xMin="90" yMin="-20" xMax="1810" yMax="1434">
      <contour>
        <pt x="129" y="1434" on="1"/>
        <pt x="442" y="1434" on="1"/>
        <pt x="513" y="1273" on="0"/>
        <pt x="642" y="975" on="0"/>
        <pt x="766" y="686" on="0"/>
        <pt x="889" y="399" on="0"/>
        <pt x="954" y="250" on="1"/>
        <pt x="958" y="250" on="1"/>
        <pt x="970" y="278" on="0"/>
        <pt x="997" y="346" on="0"/>
        <pt x="1025" y="418" on="0"/>
        <pt x="1052" y="486" on="0"/>
        <pt x="1063" y="514" on="1"/>
        <pt x="1152" y="738" on="0"/>
        <pt x="1347" y="1192" on="0"/>
        <pt x="1442" y="1434" on="1"/>
        <pt x="1745" y="1434" on="1"/>
        <pt x="1745" y="1366" on="1"/>
        <pt x="1706" y="1367" on="0"/>
        <pt x="1650" y="1344" on="0"/>
        <pt x="1614" y="1292" on="0"/>
        <pt x="1599" y="1206" on="0"/>
        <pt x="1603" y="1143" on="1"/>
        <pt x="1657" y="211" on="1"/>
        <pt x="1659" y="175" on="0"/>
        <pt x="1661" y="110" on="0"/>
        <pt x="1661" y="83" on="1"/>
        <pt x="1810" y="90" on="1"/>
        <pt x="1810" y="0" on="1"/>
        <pt x="1351" y="0" on="1"/>
        <pt x="1351" y="68" on="1"/>
        <pt x="1399" y="69" on="0"/>
        <pt x="1455" y="102" on="0"/>
        <pt x="1484" y="164" on="0"/>
        <pt x="1490" y="253" on="0"/>
        <pt x="1487" y="311" on="1"/>
        <pt x="1434" y="1184" on="1"/>
        <pt x="1428" y="1169" on="0"/>
        <pt x="1414" y="1136" on="0"/>
        <pt x="1407" y="1118" on="1"/>
        <pt x="946" y="-20" on="1"/>
        <pt x="885" y="-20" on="1"/>
        <pt x="818" y="130" on="0"/>
        <pt x="682" y="430" on="0"/>
        <pt x="549" y="734" on="0"/>
        <pt x="420" y="1043" on="0"/>
        <pt x="360" y="1202" on="1"/>
        <pt x="358" y="1112" on="1"/>
        <pt x="356" y="1063" on="0"/>
        <pt x="353" y="936" on="0"/>
        <pt x="348" y="792" on="0"/>
        <pt x="344" y="636" on="0"/>
        <pt x="340" y="478" on="0"/>
        <pt x="336" y="325" on="0"/>
        <pt x="335" y="256" on="1"/>
        <pt x="334" y="210" on="0"/>
        <pt x="332" y="120" on="0"/>
        <pt x="327" y="82" on="1"/>
        <pt x="481" y="90" on="1"/>
        <pt x="481" y="0" on="1"/>
        <pt x="90" y="0" on="1"/>
        <pt x="90" y="68" on="1"/>
        <pt x="138" y="69" on="0"/>
        <pt x="192" y="100" on="0"/>
        <pt x="221" y="151" on="0"/>
        <pt x="229" y="218" on="0"/>
        <pt x="231" y="256" on="1"/>
        <pt x="276" y="1351" on="1"/>
        <pt x="129" y="1346" on="1"/>
      </contour>
    </TTGlyph>
    <TTGlyph name="N" xMin="117" yMin="-33" xMax="1473" yMax="1434">
      <contour>
        <pt x="1332" y="-33" on="1"/>
        <pt x="1233" y="-33" on="1"/>
        <pt x="344" y="1162" on="1"/>
        <pt x="341" y="1162" on="1"/>
        <pt x="348" y="285" on="1"/>
        <pt x="348" y="232" on="0"/>
        <pt x="347" y="131" on="0"/>
        <pt x="344" y="82" on="1"/>
        <pt x="492" y="90" on="1"/>
        <pt x="492" y="0" on="1"/>
        <pt x="117" y="0" on="1"/>
        <pt x="117" y="68" on="1"/>
        <pt x="164" y="68" on="0"/>
        <pt x="218" y="101" on="0"/>
        <pt x="245" y="149" on="0"/>
        <pt x="252" y="205" on="0"/>
        <pt x="252" y="229" on="1"/>
        <pt x="254" y="1352" on="1"/>
        <pt x="117" y="1343" on="1"/>
        <pt x="117" y="1434" on="1"/>
        <pt x="361" y="1434" on="1"/>
        <pt x="1233" y="267" on="1"/>
        <pt x="1235" y="267" on="1"/>
        <pt x="1237" y="1204" on="1"/>
        <pt x="1237" y="1290" on="0"/>
        <pt x="1243" y="1352" on="1"/>
        <pt x="1096" y="1343" on="1"/>
        <pt x="1096" y="1434" on="1"/>
        <pt x="1473" y="1434" on="1"/>
        <pt x="1473" y="1366" on="1"/>
        <pt x="1415" y="1364" on="0"/>
        <pt x="1358" y="1325" on="0"/>
        <pt x="1335" y="1259" on="0"/>
        <pt x="1336" y="1169" on="0"/>
        <pt x="1336" y="1114" on="1"/>
      </contour>
    </TTGlyph>
    <TTGlyph name="Nacute" xMin="117" yMin="-33" xMax="1473" yMax="1900">
      <component glyphName="N" x="0" y="0" flags="0x200"/>
      <component glyphName="Acute" x="585" y="0" flags="0x0"/>
    </TTGlyph>
    <TTGlyph name="Ncaron" xMin="118" yMin="-33" xMax="1474" yMax="1890">
      <component glyphName="N" x="1" y="0" flags="0x200"/>
      <component glyphName="Caron" x="320" y="0" flags="0x0"/>
    </TTGlyph>
    <TTGlyph name="Ncommaaccent" xMin="118" yMin="-531" xMax="1474" yMax="1434">
      <component glyphName="N" x="1" y="0" flags="0x200"/>
      <component glyphName="commaaccentcomb" x="511" y="0" flags="0x0"/>
    </TTGlyph>
    <TTGlyph name="Ntilde" xMin="117" yMin="-33" xMax="1473" yMax="1864">
      <component glyphName="N" x="0" y="0" flags="0x4"/>
      <component glyphName="Tilde" x="306" y="0" flags="0x4"/>
    </TTGlyph>
    <TTGlyph name="O" xMin="94" yMin="-33" xMax="1536" yMax="1467">
      <contour>
        <pt x="295" y="754" on="1"/>
        <pt x="295" y="678" on="0"/>
        <pt x="323" y="515" on="0"/>
        <pt x="380" y="359" on="0"/>
        <pt x="467" y="218" on="0"/>
        <pt x="586" y="113" on="0"/>
        <pt x="735" y="51" on="0"/>
        <pt x="827" y="51" on="1"/>
        <pt x="911" y="51" on="0"/>
        <pt x="1051" y="102" on="0"/>
        <pt x="1163" y="191" on="0"/>
        <pt x="1247" y="312" on="0"/>
        <pt x="1303" y="451" on="0"/>
        <pt x="1332" y="609" on="0"/>
        <pt x="1332" y="678" on="1"/>
        <pt x="1332" y="752" on="0"/>
        <pt x="1300" y="932" on="0"/>
        <pt x="1238" y="1089" on="0"/>
        <pt x="1148" y="1226" on="0"/>
        <pt x="1030" y="1327" on="0"/>
        <pt x="885" y="1385" on="0"/>
        <pt x="800" y="1385" on="1"/>
        <pt x="674" y="1385" on="0"/>
        <pt x="484" y="1273" on="0"/>
        <pt x="358" y="1093" on="0"/>
        <pt x="295" y="868" on="0"/>
      </contour>
      <contour>
        <pt x="94" y="717" on="1"/>
        <pt x="94" y="803" on="0"/>
        <pt x="132" y="981" on="0"/>
        <pt x="210" y="1148" on="0"/>
        <pt x="328" y="1294" on="0"/>
        <pt x="486" y="1404" on="0"/>
        <pt x="686" y="1467" on="0"/>
        <pt x="807" y="1467" on="1"/>
        <pt x="932" y="1467" on="0"/>
        <pt x="1137" y="1403" on="0"/>
        <pt x="1299" y="1294" on="0"/>
        <pt x="1418" y="1147" on="0"/>
        <pt x="1497" y="980" on="0"/>
        <pt x="1536" y="802" on="0"/>
        <pt x="1536" y="717" on="1"/>
        <pt x="1536" y="632" on="0"/>
        <pt x="1497" y="455" on="0"/>
        <pt x="1420" y="288" on="0"/>
        <pt x="1302" y="141" on="0"/>
        <pt x="1143" y="31" on="0"/>
        <pt x="944" y="-33" on="0"/>
        <pt x="823" y="-33" on="1"/>
        <pt x="693" y="-33" on="0"/>
        <pt x="484" y="29" on="0"/>
        <pt x="322" y="136" on="0"/>
        <pt x="205" y="281" on="0"/>
        <pt x="130" y="447" on="0"/>
        <pt x="94" y="628" on="0"/>
      </contour>
    </TTGlyph>
    <TTGlyph name="OE" xMin="94" yMin="-33" xMax="2002" yMax="1467">
      <contour>
        <pt x="1407" y="1358" on="1"/>
        <pt x="1349" y="1356" on="0"/>
        <pt x="1286" y="1326" on="0"/>
        <pt x="1256" y="1267" on="0"/>
        <pt x="1251" y="1177" on="0"/>
        <pt x="1251" y="1114" on="1"/>
        <pt x="1251" y="784" on="1"/>
        <pt x="1403" y="784" on="1"/>
        <pt x="1467" y="784" on="0"/>
        <pt x="1559" y="794" on="0"/>
        <pt x="1617" y="832" on="0"/>
        <pt x="1644" y="909" on="0"/>
        <pt x="1644" y="977" on="1"/>
        <pt x="1712" y="977" on="1"/>
        <pt x="1712" y="530" on="1"/>
        <pt x="1644" y="530" on="1"/>
        <pt x="1644" y="597" on="0"/>
        <pt x="1617" y="671" on="0"/>
        <pt x="1559" y="705" on="0"/>
        <pt x="1467" y="711" on="0"/>
        <pt x="1403" y="711" on="1"/>
        <pt x="1368" y="711" on="0"/>
        <pt x="1285" y="707" on="0"/>
        <pt x="1251" y="702" on="1"/>
        <pt x="1251" y="248" on="1"/>
        <pt x="1251" y="191" on="0"/>
        <pt x="1248" y="114" on="0"/>
        <pt x="1245" y="88" on="1"/>
        <pt x="1638" y="76" on="1"/>
        <pt x="1653" y="76" on="1"/>
        <pt x="1716" y="76" on="0"/>
        <pt x="1819" y="110" on="0"/>
        <pt x="1892" y="187" on="0"/>
        <pt x="1931" y="310" on="0"/>
        <pt x="1931" y="399" on="1"/>
        <pt x="2002" y="399" on="1"/>
        <pt x="1988" y="0" on="1"/>
        <pt x="1073" y="0" on="1"/>
        <pt x="991" y="-17" on="0"/>
        <pt x="848" y="-33" on="0"/>
        <pt x="788" y="-33" on="1"/>
        <pt x="626" y="-33" on="0"/>
        <pt x="369" y="73" on="0"/>
        <pt x="189" y="262" on="0"/>
        <pt x="94" y="521" on="0"/>
        <pt x="94" y="674" on="1"/>
        <pt x="94" y="770" on="0"/>
        <pt x="132" y="961" on="0"/>
        <pt x="209" y="1135" on="0"/>
        <pt x="327" y="1286" on="0"/>
        <pt x="487" y="1398" on="0"/>
        <pt x="690" y="1464" on="0"/>
        <pt x="814" y="1467" on="1"/>
        <pt x="842" y="1467" on="0"/>
        <pt x="908" y="1462" on="0"/>
        <pt x="975" y="1453" on="0"/>
        <pt x="1043" y="1441" on="0"/>
        <pt x="1073" y="1434" on="1"/>
        <pt x="1917" y="1434" on="1"/>
        <pt x="1927" y="1075" on="1"/>
        <pt x="1859" y="1075" on="1"/>
        <pt x="1859" y="1163" on="0"/>
        <pt x="1818" y="1275" on="0"/>
        <pt x="1748" y="1339" on="0"/>
        <pt x="1651" y="1362" on="0"/>
        <pt x="1596" y="1362" on="1"/>
        <pt x="1583" y="1362" on="1"/>
      </contour>
      <contour>
        <pt x="1073" y="1333" on="1"/>
        <pt x="1013" y="1359" on="0"/>
        <pt x="879" y="1381" on="0"/>
        <pt x="819" y="1381" on="1"/>
        <pt x="711" y="1381" on="0"/>
        <pt x="521" y="1290" on="0"/>
        <pt x="378" y="1119" on="0"/>
        <pt x="295" y="873" on="0"/>
        <pt x="295" y="718" on="1"/>
        <pt x="295" y="569" on="0"/>
        <pt x="375" y="329" on="0"/>
        <pt x="521" y="158" on="0"/>
        <pt x="725" y="66" on="0"/>
        <pt x="848" y="66" on="1"/>
        <pt x="905" y="66" on="0"/>
        <pt x="1010" y="81" on="0"/>
        <pt x="1073" y="98" on="1"/>
      </contour>
    </TTGlyph>
    <TTGlyph name="Oacute" xMin="94" yMin="-33" xMax="1536" yMax="1900">
      <component glyphName="O" x="0" y="0" flags="0x204"/>
      <component glyphName="Acute" x="574" y="0" flags="0x4"/>
    </TTGlyph>
    <TTGlyph name="Ocircumflex" xMin="94" yMin="-33" xMax="1536" yMax="1907">
      <component glyphName="O" x="0" y="0" flags="0x204"/>
      <component glyphName="Circumflex" x="340" y="0" flags="0x4"/>
    </TTGlyph>
    <TTGlyph name="Odieresis" xMin="94" yMin="-33" xMax="1536" yMax="1850">
      <component glyphName="O" x="0" y="0" flags="0x204"/>
      <component glyphName="Dieresis" x="425" y="0" flags="0x4"/>
    </TTGlyph>
    <TTGlyph name="Ograve" xMin="94" yMin="-33" xMax="1536" yMax="1900">
      <component glyphName="O" x="0" y="0" flags="0x204"/>
      <component glyphName="Grave" x="446" y="0" flags="0x4"/>
    </TTGlyph>
    <TTGlyph name="Ohungarumlaut" xMin="95" yMin="-33" xMax="1537" yMax="1902">
      <component glyphName="O" x="1" y="0" flags="0x200"/>
      <component glyphName="hungarumlaut.case" x="444" y="0" flags="0x0"/>
    </TTGlyph>
    <TTGlyph name="Omacron" xMin="94" yMin="-33" xMax="1536" yMax="1844">
      <component glyphName="O" x="0" y="0" flags="0x200"/>
      <component glyphName="macron" x="437" y="410" flags="0x0"/>
    </TTGlyph>
    <TTGlyph name="Omega" xMin="117" yMin="0" xMax="1477" yMax="1467">
      <contour>
        <pt x="910" y="154" on="1"/>
        <pt x="977" y="172" on="0"/>
        <pt x="1106" y="271" on="0"/>
        <pt x="1208" y="424" on="0"/>
        <pt x="1270" y="623" on="0"/>
        <pt x="1270" y="741" on="1"/>
        <pt x="1270" y="823" on="0"/>
        <pt x="1243" y="982" on="0"/>
        <pt x="1190" y="1125" on="0"/>
        <pt x="1110" y="1246" on="0"/>
        <pt x="1005" y="1335" on="0"/>
        <pt x="875" y="1385" on="0"/>
        <pt x="797" y="1385" on="1"/>
        <pt x="719" y="1385" on="0"/>
        <pt x="588" y="1336" on="0"/>
        <pt x="481" y="1251" on="0"/>
        <pt x="400" y="1134" on="0"/>
        <pt x="346" y="997" on="0"/>
        <pt x="318" y="848" on="0"/>
        <pt x="318" y="772" on="1"/>
        <pt x="318" y="629" on="0"/>
        <pt x="389" y="406" on="0"/>
        <pt x="501" y="250" on="0"/>
        <pt x="638" y="162" on="0"/>
        <pt x="705" y="154" on="1"/>
        <pt x="705" y="0" on="1"/>
        <pt x="167" y="0" on="1"/>
        <pt x="156" y="276" on="1"/>
        <pt x="218" y="276" on="1"/>
        <pt x="218" y="232" on="0"/>
        <pt x="248" y="176" on="0"/>
        <pt x="310" y="144" on="0"/>
        <pt x="405" y="133" on="0"/>
        <pt x="470" y="133" on="1"/>
        <pt x="615" y="133" on="1"/>
        <pt x="615" y="135" on="1"/>
        <pt x="513" y="163" on="0"/>
        <pt x="331" y="284" on="0"/>
        <pt x="196" y="452" on="0"/>
        <pt x="117" y="660" on="0"/>
        <pt x="117" y="776" on="1"/>
        <pt x="117" y="857" on="0"/>
        <pt x="154" y="1022" on="0"/>
        <pt x="228" y="1176" on="0"/>
        <pt x="341" y="1310" on="0"/>
        <pt x="493" y="1410" on="0"/>
        <pt x="683" y="1467" on="0"/>
        <pt x="799" y="1467" on="1"/>
        <pt x="919" y="1467" on="0"/>
        <pt x="1113" y="1409" on="0"/>
        <pt x="1263" y="1309" on="0"/>
        <pt x="1373" y="1175" on="0"/>
        <pt x="1443" y="1021" on="0"/>
        <pt x="1477" y="856" on="0"/>
        <pt x="1477" y="776" on="1"/>
        <pt x="1477" y="661" on="0"/>
        <pt x="1388" y="457" on="0"/>
        <pt x="1246" y="290" on="0"/>
        <pt x="1070" y="168" on="0"/>
        <pt x="982" y="135" on="1"/>
        <pt x="982" y="133" on="1"/>
        <pt x="1152" y="133" on="1"/>
        <pt x="1217" y="133" on="0"/>
        <pt x="1312" y="144" on="0"/>
        <pt x="1374" y="176" on="0"/>
        <pt x="1404" y="232" on="0"/>
        <pt x="1404" y="276" on="1"/>
        <pt x="1465" y="276" on="1"/>
        <pt x="1453" y="0" on="1"/>
        <pt x="910" y="0" on="1"/>
      </contour>
    </TTGlyph>
    <TTGlyph name="Oslash" xMin="92" yMin="-164" xMax="1534" yMax="1546">
      <contour>
        <pt x="92" y="717" on="1"/>
        <pt x="92" y="803" on="0"/>
        <pt x="130" y="981" on="0"/>
        <pt x="208" y="1148" on="0"/>
        <pt x="326" y="1294" on="0"/>
        <pt x="484" y="1404" on="0"/>
        <pt x="684" y="1467" on="0"/>
        <pt x="805" y="1467" on="1"/>
        <pt x="930" y="1467" on="0"/>
        <pt x="1032" y="1435" on="1"/>
        <pt x="1099" y="1414" on="0"/>
        <pt x="1157" y="1383" on="1"/>
        <pt x="1251" y="1546" on="1"/>
        <pt x="1362" y="1477" on="1"/>
        <pt x="1265" y="1312" on="1"/>
        <pt x="1315" y="1271" on="0"/>
        <pt x="1356" y="1220" on="1"/>
        <pt x="1416" y="1147" on="0"/>
        <pt x="1495" y="980" on="0"/>
        <pt x="1534" y="802" on="0"/>
        <pt x="1534" y="717" on="1"/>
        <pt x="1534" y="632" on="0"/>
        <pt x="1495" y="455" on="0"/>
        <pt x="1418" y="288" on="0"/>
        <pt x="1300" y="141" on="0"/>
        <pt x="1141" y="31" on="0"/>
        <pt x="942" y="-33" on="0"/>
        <pt x="821" y="-33" on="1"/>
        <pt x="691" y="-33" on="0"/>
        <pt x="586" y="-2" on="1"/>
        <pt x="545" y="10" on="0"/>
        <pt x="507" y="26" on="1"/>
        <pt x="395" y="-164" on="1"/>
        <pt x="297" y="-102" on="1"/>
        <pt x="403" y="81" on="1"/>
        <pt x="402" y="82" on="0"/>
        <pt x="401" y="82" on="1"/>
        <pt x="320" y="136" on="0"/>
        <pt x="203" y="281" on="0"/>
        <pt x="128" y="448" on="0"/>
        <pt x="92" y="628" on="0"/>
      </contour>
      <contour>
        <pt x="293" y="754" on="1"/>
        <pt x="293" y="678" on="0"/>
        <pt x="321" y="515" on="0"/>
        <pt x="378" y="359" on="0"/>
        <pt x="421" y="288" on="1"/>
        <pt x="447" y="246" on="0"/>
        <pt x="478" y="211" on="1"/>
        <pt x="1092" y="1271" on="1"/>
        <pt x="1084" y="1278" on="1"/>
        <pt x="1025" y="1328" on="0"/>
        <pt x="881" y="1385" on="0"/>
        <pt x="798" y="1385" on="1"/>
        <pt x="672" y="1385" on="0"/>
        <pt x="482" y="1273" on="0"/>
        <pt x="356" y="1093" on="0"/>
        <pt x="293" y="868" on="0"/>
      </contour>
      <contour>
        <pt x="1189" y="1161" on="1"/>
        <pt x="1185" y="1166" on="0"/>
        <pt x="1182" y="1171" on="1"/>
        <pt x="568" y="130" on="1"/>
        <pt x="610" y="102" on="0"/>
        <pt x="658" y="82" on="1"/>
        <pt x="733" y="51" on="0"/>
        <pt x="825" y="51" on="1"/>
        <pt x="909" y="51" on="0"/>
        <pt x="1049" y="102" on="0"/>
        <pt x="1161" y="191" on="0"/>
        <pt x="1245" y="312" on="0"/>
        <pt x="1302" y="451" on="0"/>
        <pt x="1330" y="603" on="0"/>
        <pt x="1330" y="678" on="1"/>
        <pt x="1330" y="764" on="0"/>
        <pt x="1297" y="936" on="0"/>
        <pt x="1235" y="1093" on="0"/>
      </contour>
    </TTGlyph>
    <TTGlyph name="Otilde" xMin="94" yMin="-33" xMax="1536" yMax="1864">
      <component glyphName="O" x="0" y="0" flags="0x204"/>
      <component glyphName="Tilde" x="340" y="0" flags="0x4"/>
    </TTGlyph>
    <TTGlyph name="P" xMin="113" yMin="0" xMax="1189" yMax="1437">
      <contour>
        <pt x="506" y="539" on="1"/>
        <pt x="496" y="539" on="0"/>
        <pt x="453" y="539" on="0"/>
        <pt x="433" y="540" on="1"/>
        <pt x="433" y="244" on="1"/>
        <pt x="433" y="188" on="0"/>
        <pt x="430" y="108" on="0"/>
        <pt x="426" y="82" on="1"/>
        <pt x="615" y="92" on="1"/>
        <pt x="615" y="0" on="1"/>
        <pt x="113" y="0" on="1"/>
        <pt x="113" y="68" on="1"/>
        <pt x="171" y="70" on="0"/>
        <pt x="229" y="108" on="0"/>
        <pt x="253" y="174" on="0"/>
        <pt x="254" y="265" on="0"/>
        <pt x="254" y="319" on="1"/>
        <pt x="254" y="1204" on="1"/>
        <pt x="254" y="1246" on="0"/>
        <pt x="257" y="1321" on="0"/>
        <pt x="261" y="1352" on="1"/>
        <pt x="113" y="1343" on="1"/>
        <pt x="113" y="1434" on="1"/>
        <pt x="221" y="1436" on="0"/>
        <pt x="449" y="1437" on="0"/>
        <pt x="570" y="1437" on="1"/>
        <pt x="868" y="1437" on="0"/>
        <pt x="1023" y="1337" on="1"/>
        <pt x="1189" y="1228" on="0"/>
        <pt x="1189" y="1018" on="1"/>
        <pt x="1189" y="975" on="0"/>
        <pt x="1170" y="871" on="0"/>
        <pt x="1112" y="760" on="0"/>
        <pt x="1011" y="659" on="0"/>
        <pt x="858" y="584" on="0"/>
        <pt x="646" y="539" on="0"/>
      </contour>
      <contour>
        <pt x="433" y="625" on="1"/>
        <pt x="471" y="620" on="0"/>
        <pt x="528" y="618" on="0"/>
        <pt x="566" y="618" on="1"/>
        <pt x="653" y="618" on="0"/>
        <pt x="808" y="670" on="0"/>
        <pt x="923" y="769" on="0"/>
        <pt x="990" y="911" on="0"/>
        <pt x="990" y="1001" on="1"/>
        <pt x="990" y="1098" on="0"/>
        <pt x="928" y="1234" on="0"/>
        <pt x="816" y="1319" on="0"/>
        <pt x="660" y="1357" on="0"/>
        <pt x="566" y="1357" on="1"/>
        <pt x="511" y="1357" on="0"/>
        <pt x="456" y="1322" on="0"/>
        <pt x="433" y="1258" on="0"/>
        <pt x="433" y="1169" on="0"/>
        <pt x="433" y="1114" on="1"/>
      </contour>
    </TTGlyph>
    <TTGlyph name="Pi" xMin="113" yMin="0" xMax="1445" yMax="1434">
      <contour>
        <pt x="1445" y="1366" on="1"/>
        <pt x="1388" y="1364" on="0"/>
        <pt x="1329" y="1325" on="0"/>
        <pt x="1305" y="1259" on="0"/>
        <pt x="1304" y="1169" on="0"/>
        <pt x="1304" y="1114" on="1"/>
        <pt x="1304" y="244" on="1"/>
        <pt x="1304" y="134" on="0"/>
        <pt x="1298" y="82" on="1"/>
        <pt x="1445" y="90" on="1"/>
        <pt x="1445" y="0" on="1"/>
        <pt x="984" y="0" on="1"/>
        <pt x="984" y="68" on="1"/>
        <pt x="1042" y="70" on="0"/>
        <pt x="1101" y="108" on="0"/>
        <pt x="1125" y="174" on="0"/>
        <pt x="1126" y="265" on="0"/>
        <pt x="1126" y="319" on="1"/>
        <pt x="1126" y="1353" on="1"/>
        <pt x="569" y="1346" on="1"/>
        <pt x="525" y="1344" on="0"/>
        <pt x="473" y="1319" on="0"/>
        <pt x="444" y="1277" on="0"/>
        <pt x="434" y="1218" on="0"/>
        <pt x="433" y="1182" on="1"/>
        <pt x="433" y="244" on="1"/>
        <pt x="433" y="188" on="0"/>
        <pt x="430" y="108" on="0"/>
        <pt x="426" y="82" on="1"/>
        <pt x="574" y="90" on="1"/>
        <pt x="574" y="0" on="1"/>
        <pt x="113" y="0" on="1"/>
        <pt x="113" y="68" on="1"/>
        <pt x="171" y="70" on="0"/>
        <pt x="229" y="108" on="0"/>
        <pt x="253" y="174" on="0"/>
        <pt x="254" y="265" on="0"/>
        <pt x="254" y="319" on="1"/>
        <pt x="254" y="1204" on="1"/>
        <pt x="254" y="1246" on="0"/>
        <pt x="257" y="1321" on="0"/>
        <pt x="261" y="1352" on="1"/>
        <pt x="113" y="1343" on="1"/>
        <pt x="113" y="1434" on="1"/>
        <pt x="1445" y="1434" on="1"/>
      </contour>
    </TTGlyph>
    <TTGlyph name="Q" xMin="94" yMin="-446" xMax="1609" yMax="1467">
      <contour>
        <pt x="94" y="717" on="1"/>
        <pt x="94" y="803" on="0"/>
        <pt x="132" y="981" on="0"/>
        <pt x="210" y="1148" on="0"/>
        <pt x="328" y="1294" on="0"/>
        <pt x="486" y="1404" on="0"/>
        <pt x="686" y="1467" on="0"/>
        <pt x="807" y="1467" on="1"/>
        <pt x="932" y="1467" on="0"/>
        <pt x="1137" y="1403" on="0"/>
        <pt x="1299" y="1294" on="0"/>
        <pt x="1418" y="1147" on="0"/>
        <pt x="1497" y="980" on="0"/>
        <pt x="1536" y="802" on="0"/>
        <pt x="1536" y="717" on="1"/>
        <pt x="1536" y="632" on="0"/>
        <pt x="1497" y="455" on="0"/>
        <pt x="1420" y="288" on="0"/>
        <pt x="1302" y="141" on="0"/>
        <pt x="1143" y="31" on="0"/>
        <pt x="1043" y="-1" on="1"/>
        <pt x="1017" y="-9" on="0"/>
        <pt x="990" y="-15" on="1"/>
        <pt x="995" y="-16" on="0"/>
        <pt x="999" y="-16" on="1"/>
        <pt x="1035" y="-17" on="0"/>
        <pt x="1100" y="-27" on="0"/>
        <pt x="1166" y="-54" on="0"/>
        <pt x="1238" y="-104" on="0"/>
        <pt x="1282" y="-145" on="1"/>
        <pt x="1353" y="-211" on="0"/>
        <pt x="1451" y="-301" on="0"/>
        <pt x="1523" y="-356" on="0"/>
        <pt x="1579" y="-379" on="0"/>
        <pt x="1609" y="-379" on="1"/>
        <pt x="1609" y="-446" on="1"/>
        <pt x="1544" y="-446" on="1"/>
        <pt x="1488" y="-446" on="0"/>
        <pt x="1402" y="-442" on="0"/>
        <pt x="1324" y="-421" on="0"/>
        <pt x="1246" y="-375" on="0"/>
        <pt x="1198" y="-332" on="1"/>
        <pt x="1129" y="-270" on="0"/>
        <pt x="1027" y="-161" on="0"/>
        <pt x="940" y="-80" on="0"/>
        <pt x="858" y="-33" on="0"/>
        <pt x="809" y="-33" on="1"/>
        <pt x="687" y="-31" on="0"/>
        <pt x="588" y="-2" on="1"/>
        <pt x="484" y="29" on="0"/>
        <pt x="322" y="136" on="0"/>
        <pt x="205" y="281" on="0"/>
        <pt x="130" y="447" on="0"/>
        <pt x="94" y="628" on="0"/>
      </contour>
      <contour>
        <pt x="295" y="754" on="1"/>
        <pt x="295" y="678" on="0"/>
        <pt x="323" y="515" on="0"/>
        <pt x="380" y="359" on="0"/>
        <pt x="467" y="218" on="0"/>
        <pt x="586" y="113" on="0"/>
        <pt x="735" y="51" on="0"/>
        <pt x="827" y="51" on="1"/>
        <pt x="911" y="51" on="0"/>
        <pt x="1051" y="102" on="0"/>
        <pt x="1163" y="191" on="0"/>
        <pt x="1247" y="312" on="0"/>
        <pt x="1303" y="451" on="0"/>
        <pt x="1332" y="609" on="0"/>
        <pt x="1332" y="678" on="1"/>
        <pt x="1332" y="752" on="0"/>
        <pt x="1300" y="932" on="0"/>
        <pt x="1238" y="1089" on="0"/>
        <pt x="1148" y="1226" on="0"/>
        <pt x="1030" y="1327" on="0"/>
        <pt x="885" y="1385" on="0"/>
        <pt x="800" y="1385" on="1"/>
        <pt x="674" y="1385" on="0"/>
        <pt x="484" y="1273" on="0"/>
        <pt x="358" y="1093" on="0"/>
        <pt x="295" y="868" on="0"/>
      </contour>
    </TTGlyph>
    <TTGlyph name="R" xMin="113" yMin="0" xMax="1287" yMax="1438">
      <contour>
        <pt x="572" y="640" on="1"/>
        <pt x="538" y="638" on="0"/>
        <pt x="468" y="639" on="0"/>
        <pt x="433" y="642" on="1"/>
        <pt x="433" y="244" on="1"/>
        <pt x="433" y="188" on="0"/>
        <pt x="430" y="108" on="0"/>
        <pt x="426" y="82" on="1"/>
        <pt x="574" y="90" on="1"/>
        <pt x="574" y="0" on="1"/>
        <pt x="113" y="0" on="1"/>
        <pt x="113" y="68" on="1"/>
        <pt x="171" y="70" on="0"/>
        <pt x="229" y="108" on="0"/>
        <pt x="253" y="174" on="0"/>
        <pt x="254" y="265" on="0"/>
        <pt x="254" y="319" on="1"/>
        <pt x="254" y="1204" on="1"/>
        <pt x="254" y="1246" on="0"/>
        <pt x="257" y="1321" on="0"/>
        <pt x="261" y="1352" on="1"/>
        <pt x="113" y="1343" on="1"/>
        <pt x="113" y="1434" on="1"/>
        <pt x="229" y="1436" on="0"/>
        <pt x="463" y="1438" on="0"/>
        <pt x="582" y="1436" on="1"/>
        <pt x="730" y="1433" on="0"/>
        <pt x="941" y="1382" on="0"/>
        <pt x="1076" y="1288" on="0"/>
        <pt x="1139" y="1154" on="0"/>
        <pt x="1139" y="1069" on="1"/>
        <pt x="1139" y="1009" on="0"/>
        <pt x="1107" y="884" on="0"/>
        <pt x="1021" y="772" on="0"/>
        <pt x="872" y="684" on="0"/>
        <pt x="755" y="660" on="1"/>
        <pt x="795" y="631" on="0"/>
        <pt x="859" y="541" on="0"/>
        <pt x="897" y="481" on="1"/>
        <pt x="1037" y="262" on="1"/>
        <pt x="1063" y="221" on="0"/>
        <pt x="1111" y="150" on="0"/>
        <pt x="1168" y="98" on="0"/>
        <pt x="1239" y="68" on="0"/>
        <pt x="1287" y="68" on="1"/>
        <pt x="1287" y="0" on="1"/>
        <pt x="1029" y="0" on="1"/>
        <pt x="999" y="26" on="0"/>
        <pt x="951" y="78" on="0"/>
        <pt x="908" y="134" on="0"/>
        <pt x="868" y="193" on="0"/>
        <pt x="846" y="227" on="1"/>
        <pt x="709" y="446" on="1"/>
        <pt x="695" y="468" on="0"/>
        <pt x="665" y="519" on="0"/>
        <pt x="631" y="571" on="0"/>
        <pt x="593" y="620" on="0"/>
      </contour>
      <contour>
        <pt x="433" y="720" on="1"/>
        <pt x="465" y="718" on="0"/>
        <pt x="524" y="715" on="0"/>
        <pt x="560" y="717" on="1"/>
        <pt x="644" y="720" on="0"/>
        <pt x="783" y="757" on="0"/>
        <pt x="884" y="835" on="0"/>
        <pt x="940" y="958" on="0"/>
        <pt x="940" y="1047" on="1"/>
        <pt x="940" y="1201" on="0"/>
        <pt x="763" y="1358" on="0"/>
        <pt x="574" y="1358" on="1"/>
        <pt x="516" y="1358" on="0"/>
        <pt x="458" y="1323" on="0"/>
        <pt x="434" y="1259" on="0"/>
        <pt x="433" y="1169" on="0"/>
        <pt x="433" y="1114" on="1"/>
      </contour>
    </TTGlyph>
    <TTGlyph name="Racute" xMin="113" yMin="0" xMax="1287" yMax="1900">
      <component glyphName="R" x="0" y="0" flags="0x200"/>
      <component glyphName="Acute" x="414" y="0" flags="0x0"/>
    </TTGlyph>
    <TTGlyph name="Rcaron" xMin="114" yMin="0" xMax="1288" yMax="1890">
      <component glyphName="R" x="1" y="0" flags="0x200"/>
      <component glyphName="Caron" x="170" y="0" flags="0x0"/>
    </TTGlyph>
    <TTGlyph name="Rcommaaccent" xMin="114" yMin="-531" xMax="1288" yMax="1438">
      <component glyphName="R" x="1" y="0" flags="0x200"/>
      <component glyphName="commaaccentcomb" x="324" y="0" flags="0x0"/>
    </TTGlyph>
    <TTGlyph name="Ring" xMin="94" yMin="1464" xMax="561" yMax="1917">
      <contour>
        <pt x="319" y="1847" on="1"/>
        <pt x="271" y="1844" on="0"/>
        <pt x="213" y="1766" on="0"/>
        <pt x="213" y="1700" on="1"/>
        <pt x="213" y="1626" on="0"/>
        <pt x="278" y="1536" on="0"/>
        <pt x="333" y="1536" on="1"/>
        <pt x="354" y="1536" on="0"/>
        <pt x="394" y="1555" on="0"/>
        <pt x="424" y="1591" on="0"/>
        <pt x="442" y="1642" on="0"/>
        <pt x="442" y="1675" on="1"/>
        <pt x="442" y="1760" on="0"/>
        <pt x="377" y="1847" on="0"/>
        <pt x="326" y="1847" on="1"/>
      </contour>
      <contour>
        <pt x="326" y="1917" on="1"/>
        <pt x="367" y="1917" on="0"/>
        <pt x="449" y="1892" on="0"/>
        <pt x="516" y="1839" on="0"/>
        <pt x="559" y="1759" on="0"/>
        <pt x="561" y="1704" on="1"/>
        <pt x="561" y="1648" on="0"/>
        <pt x="522" y="1560" on="0"/>
        <pt x="457" y="1497" on="0"/>
        <pt x="374" y="1464" on="0"/>
        <pt x="330" y="1464" on="1"/>
        <pt x="286" y="1464" on="0"/>
        <pt x="201" y="1490" on="0"/>
        <pt x="135" y="1545" on="0"/>
        <pt x="94" y="1629" on="0"/>
        <pt x="94" y="1687" on="1"/>
        <pt x="94" y="1739" on="0"/>
        <pt x="135" y="1824" on="0"/>
        <pt x="201" y="1884" on="0"/>
        <pt x="284" y="1917" on="0"/>
      </contour>
    </TTGlyph>
    <TTGlyph name="S" xMin="119" yMin="-33" xMax="1071" yMax="1467">
      <contour>
        <pt x="237" y="-16" on="1"/>
        <pt x="131" y="-16" on="1"/>
        <pt x="119" y="420" on="1"/>
        <pt x="198" y="420" on="1"/>
        <pt x="204" y="329" on="0"/>
        <pt x="270" y="192" on="0"/>
        <pt x="377" y="100" on="0"/>
        <pt x="519" y="53" on="0"/>
        <pt x="600" y="53" on="1"/>
        <pt x="660" y="53" on="0"/>
        <pt x="767" y="86" on="0"/>
        <pt x="848" y="151" on="0"/>
        <pt x="895" y="247" on="0"/>
        <pt x="895" y="309" on="1"/>
        <pt x="895" y="384" on="0"/>
        <pt x="829" y="492" on="0"/>
        <pt x="720" y="575" on="0"/>
        <pt x="581" y="642" on="0"/>
        <pt x="437" y="709" on="0"/>
        <pt x="298" y="784" on="0"/>
        <pt x="189" y="883" on="0"/>
        <pt x="123" y="1015" on="0"/>
        <pt x="123" y="1106" on="1"/>
        <pt x="123" y="1141" on="0"/>
        <pt x="139" y="1221" on="0"/>
        <pt x="176" y="1301" on="0"/>
        <pt x="237" y="1376" on="0"/>
        <pt x="329" y="1433" on="0"/>
        <pt x="455" y="1467" on="0"/>
        <pt x="538" y="1467" on="1"/>
        <pt x="578" y="1467" on="0"/>
        <pt x="668" y="1457" on="0"/>
        <pt x="761" y="1433" on="0"/>
        <pt x="853" y="1392" on="0"/>
        <pt x="895" y="1361" on="1"/>
        <pt x="887" y="1449" on="1"/>
        <pt x="991" y="1449" on="1"/>
        <pt x="991" y="1000" on="1"/>
        <pt x="917" y="1000" on="1"/>
        <pt x="912" y="1074" on="0"/>
        <pt x="865" y="1213" on="0"/>
        <pt x="775" y="1320" on="0"/>
        <pt x="643" y="1385" on="0"/>
        <pt x="553" y="1385" on="1"/>
        <pt x="489" y="1385" on="0"/>
        <pt x="391" y="1346" on="0"/>
        <pt x="325" y="1280" on="0"/>
        <pt x="291" y="1193" on="0"/>
        <pt x="291" y="1145" on="1"/>
        <pt x="291" y="1075" on="0"/>
        <pt x="358" y="972" on="0"/>
        <pt x="468" y="892" on="0"/>
        <pt x="608" y="826" on="0"/>
        <pt x="754" y="759" on="0"/>
        <pt x="894" y="682" on="0"/>
        <pt x="1004" y="581" on="0"/>
        <pt x="1071" y="447" on="0"/>
        <pt x="1071" y="356" on="1"/>
        <pt x="1071" y="271" on="0"/>
        <pt x="1007" y="128" on="0"/>
        <pt x="885" y="25" on="0"/>
        <pt x="706" y="-33" on="0"/>
        <pt x="592" y="-33" on="1"/>
        <pt x="546" y="-33" on="0"/>
        <pt x="449" y="-20" on="0"/>
        <pt x="354" y="6" on="0"/>
        <pt x="265" y="46" on="0"/>
        <pt x="227" y="72" on="1"/>
      </contour>
    </TTGlyph>
    <TTGlyph name="Sacute" xMin="119" yMin="-33" xMax="1071" yMax="1900">
      <component glyphName="S" x="0" y="0" flags="0x200"/>
      <component glyphName="Acute" x="331" y="0" flags="0x0"/>
    </TTGlyph>
    <TTGlyph name="Scaron" xMin="119" yMin="-33" xMax="1071" yMax="1890">
      <component glyphName="S" x="0" y="0" flags="0x204"/>
      <component glyphName="Caron" x="92" y="0" flags="0x4"/>
    </TTGlyph>
    <TTGlyph name="Scedilla" xMin="119" yMin="-494" xMax="1071" yMax="1467">
      <contour>
        <pt x="917" y="1000" on="1"/>
        <pt x="912" y="1074" on="0"/>
        <pt x="865" y="1213" on="0"/>
        <pt x="775" y="1320" on="0"/>
        <pt x="643" y="1385" on="0"/>
        <pt x="553" y="1385" on="1"/>
        <pt x="489" y="1385" on="0"/>
        <pt x="391" y="1346" on="0"/>
        <pt x="325" y="1280" on="0"/>
        <pt x="291" y="1193" on="0"/>
        <pt x="291" y="1145" on="1"/>
        <pt x="291" y="1075" on="0"/>
        <pt x="358" y="972" on="0"/>
        <pt x="468" y="892" on="0"/>
        <pt x="608" y="826" on="0"/>
        <pt x="754" y="759" on="0"/>
        <pt x="894" y="682" on="0"/>
        <pt x="1004" y="581" on="0"/>
        <pt x="1071" y="447" on="0"/>
        <pt x="1071" y="356" on="1"/>
        <pt x="1071" y="279" on="0"/>
        <pt x="1018" y="146" on="0"/>
        <pt x="917" y="46" on="0"/>
        <pt x="769" y="-19" on="0"/>
        <pt x="673" y="-29" on="1"/>
        <pt x="632" y="-152" on="1"/>
        <pt x="661" y="-134" on="0"/>
        <pt x="737" y="-116" on="0"/>
        <pt x="772" y="-116" on="1"/>
        <pt x="835" y="-116" on="0"/>
        <pt x="909" y="-189" on="0"/>
        <pt x="909" y="-251" on="1"/>
        <pt x="909" y="-292" on="0"/>
        <pt x="869" y="-358" on="0"/>
        <pt x="803" y="-409" on="0"/>
        <pt x="718" y="-446" on="0"/>
        <pt x="629" y="-472" on="0"/>
        <pt x="542" y="-489" on="0"/>
        <pt x="507" y="-494" on="1"/>
        <pt x="495" y="-425" on="1"/>
        <pt x="547" y="-416" on="0"/>
        <pt x="637" y="-387" on="0"/>
        <pt x="703" y="-348" on="0"/>
        <pt x="741" y="-299" on="0"/>
        <pt x="741" y="-269" on="1"/>
        <pt x="741" y="-238" on="0"/>
        <pt x="708" y="-210" on="0"/>
        <pt x="660" y="-206" on="0"/>
        <pt x="605" y="-223" on="0"/>
        <pt x="583" y="-238" on="1"/>
        <pt x="514" y="-204" on="1"/>
        <pt x="560" y="-32" on="1"/>
        <pt x="517" y="-30" on="0"/>
        <pt x="428" y="-15" on="0"/>
        <pt x="342" y="11" on="0"/>
        <pt x="261" y="48" on="0"/>
        <pt x="227" y="72" on="1"/>
        <pt x="237" y="-16" on="1"/>
        <pt x="131" y="-16" on="1"/>
        <pt x="119" y="420" on="1"/>
        <pt x="198" y="420" on="1"/>
        <pt x="204" y="329" on="0"/>
        <pt x="270" y="192" on="0"/>
        <pt x="377" y="100" on="0"/>
        <pt x="519" y="53" on="0"/>
        <pt x="600" y="53" on="1"/>
        <pt x="660" y="53" on="0"/>
        <pt x="767" y="86" on="0"/>
        <pt x="848" y="151" on="0"/>
        <pt x="895" y="247" on="0"/>
        <pt x="895" y="309" on="1"/>
        <pt x="895" y="384" on="0"/>
        <pt x="829" y="492" on="0"/>
        <pt x="720" y="575" on="0"/>
        <pt x="581" y="642" on="0"/>
        <pt x="437" y="709" on="0"/>
        <pt x="298" y="784" on="0"/>
        <pt x="189" y="883" on="0"/>
        <pt x="123" y="1015" on="0"/>
        <pt x="123" y="1106" on="1"/>
        <pt x="123" y="1141" on="0"/>
        <pt x="139" y="1221" on="0"/>
        <pt x="176" y="1301" on="0"/>
        <pt x="237" y="1376" on="0"/>
        <pt x="329" y="1433" on="0"/>
        <pt x="455" y="1467" on="0"/>
        <pt x="538" y="1467" on="1"/>
        <pt x="578" y="1467" on="0"/>
        <pt x="668" y="1457" on="0"/>
        <pt x="761" y="1433" on="0"/>
        <pt x="853" y="1392" on="0"/>
        <pt x="895" y="1361" on="1"/>
        <pt x="887" y="1449" on="1"/>
        <pt x="991" y="1449" on="1"/>
        <pt x="991" y="1000" on="1"/>
      </contour>
    </TTGlyph>
    <TTGlyph name="Scommaaccent" xMin="120" yMin="-531" xMax="1072" yMax="1467">
      <component glyphName="S" x="1" y="0" flags="0x200"/>
      <component glyphName="commaaccentcomb" x="342" y="0" flags="0x0"/>
    </TTGlyph>
    <TTGlyph name="T" xMin="45" yMin="0" xMax="1263" yMax="1434">
      <contour>
        <pt x="1186" y="1001" on="1"/>
        <pt x="1184" y="1092" on="0"/>
        <pt x="1160" y="1227" on="0"/>
        <pt x="1100" y="1316" on="0"/>
        <pt x="998" y="1360" on="0"/>
        <pt x="919" y="1360" on="1"/>
        <pt x="746" y="1359" on="1"/>
        <pt x="743" y="244" on="1"/>
        <pt x="743" y="134" on="0"/>
        <pt x="737" y="82" on="1"/>
        <pt x="907" y="90" on="1"/>
        <pt x="907" y="0" on="1"/>
        <pt x="426" y="0" on="1"/>
        <pt x="426" y="68" on="1"/>
        <pt x="483" y="70" on="0"/>
        <pt x="541" y="110" on="0"/>
        <pt x="565" y="177" on="0"/>
        <pt x="565" y="267" on="0"/>
        <pt x="565" y="319" on="1"/>
        <pt x="568" y="1357" on="1"/>
        <pt x="356" y="1356" on="1"/>
        <pt x="291" y="1356" on="0"/>
        <pt x="202" y="1313" on="0"/>
        <pt x="146" y="1225" on="0"/>
        <pt x="121" y="1092" on="0"/>
        <pt x="121" y="1001" on="1"/>
        <pt x="45" y="1001" on="1"/>
        <pt x="57" y="1434" on="1"/>
        <pt x="1251" y="1434" on="1"/>
        <pt x="1263" y="1001" on="1"/>
      </contour>
    </TTGlyph>
    <TTGlyph name="Tcaron" xMin="46" yMin="0" xMax="1264" yMax="1890">
      <component glyphName="T" x="1" y="0" flags="0x200"/>
      <component glyphName="Caron" x="180" y="0" flags="0x0"/>
    </TTGlyph>
    <TTGlyph name="Thorn" xMin="113" yMin="0" xMax="1169" yMax="1434">
      <contour>
        <pt x="254" y="1204" on="1"/>
        <pt x="254" y="1246" on="0"/>
        <pt x="257" y="1321" on="0"/>
        <pt x="261" y="1352" on="1"/>
        <pt x="113" y="1343" on="1"/>
        <pt x="113" y="1434" on="1"/>
        <pt x="574" y="1434" on="1"/>
        <pt x="574" y="1366" on="1"/>
        <pt x="524" y="1364" on="0"/>
        <pt x="468" y="1336" on="0"/>
        <pt x="440" y="1285" on="0"/>
        <pt x="436" y="1250" on="1"/>
        <pt x="433" y="1220" on="0"/>
        <pt x="433" y="1184" on="1"/>
        <pt x="543" y="1186" on="1"/>
        <pt x="846" y="1186" on="0"/>
        <pt x="1169" y="986" on="0"/>
        <pt x="1169" y="777" on="1"/>
        <pt x="1169" y="723" on="0"/>
        <pt x="1142" y="615" on="0"/>
        <pt x="1078" y="515" on="0"/>
        <pt x="972" y="430" on="0"/>
        <pt x="818" y="366" on="0"/>
        <pt x="622" y="330" on="0"/>
        <pt x="461" y="330" on="1"/>
        <pt x="433" y="330" on="1"/>
        <pt x="433" y="244" on="1"/>
        <pt x="433" y="187" on="0"/>
        <pt x="430" y="108" on="0"/>
        <pt x="426" y="82" on="1"/>
        <pt x="574" y="90" on="1"/>
        <pt x="574" y="0" on="1"/>
        <pt x="113" y="0" on="1"/>
        <pt x="113" y="68" on="1"/>
        <pt x="162" y="69" on="0"/>
        <pt x="219" y="98" on="0"/>
        <pt x="247" y="148" on="0"/>
        <pt x="254" y="217" on="0"/>
        <pt x="254" y="259" on="1"/>
      </contour>
      <contour>
        <pt x="487" y="1107" on="1"/>
        <pt x="460" y="1106" on="0"/>
        <pt x="433" y="1104" on="1"/>
        <pt x="433" y="414" on="1"/>
        <pt x="455" y="411" on="0"/>
        <pt x="473" y="410" on="1"/>
        <pt x="495" y="408" on="0"/>
        <pt x="518" y="408" on="1"/>
        <pt x="633" y="408" on="0"/>
        <pt x="803" y="459" on="0"/>
        <pt x="914" y="554" on="0"/>
        <pt x="969" y="689" on="0"/>
        <pt x="969" y="772" on="1"/>
        <pt x="969" y="937" on="0"/>
        <pt x="763" y="1108" on="0"/>
        <pt x="555" y="1108" on="1"/>
        <pt x="517" y="1108" on="0"/>
      </contour>
    </TTGlyph>
    <TTGlyph name="Tilde" xMin="92" yMin="1591" xMax="883" yMax="1864">
      <contour>
        <pt x="313" y="1737" on="1"/>
        <pt x="269" y="1737" on="0"/>
        <pt x="200" y="1671" on="0"/>
        <pt x="162" y="1614" on="1"/>
        <pt x="92" y="1653" on="1"/>
        <pt x="110" y="1698" on="0"/>
        <pt x="163" y="1774" on="0"/>
        <pt x="224" y="1830" on="0"/>
        <pt x="291" y="1863" on="0"/>
        <pt x="324" y="1864" on="1"/>
        <pt x="364" y="1864" on="0"/>
        <pt x="429" y="1843" on="0"/>
        <pt x="483" y="1811" on="0"/>
        <pt x="530" y="1773" on="0"/>
        <pt x="576" y="1741" on="0"/>
        <pt x="623" y="1720" on="0"/>
        <pt x="651" y="1720" on="1"/>
        <pt x="678" y="1720" on="0"/>
        <pt x="726" y="1742" on="0"/>
        <pt x="767" y="1778" on="0"/>
        <pt x="802" y="1826" on="0"/>
        <pt x="817" y="1853" on="1"/>
        <pt x="883" y="1821" on="1"/>
        <pt x="861" y="1758" on="0"/>
        <pt x="805" y="1670" on="0"/>
        <pt x="741" y="1616" on="0"/>
        <pt x="673" y="1591" on="0"/>
        <pt x="639" y="1591" on="1"/>
        <pt x="599" y="1591" on="0"/>
        <pt x="534" y="1613" on="0"/>
        <pt x="478" y="1645" on="0"/>
        <pt x="429" y="1683" on="0"/>
        <pt x="382" y="1715" on="0"/>
        <pt x="337" y="1737" on="0"/>
      </contour>
    </TTGlyph>
    <TTGlyph name="U" xMin="63" yMin="-33" xMax="1478" yMax="1434">
      <contour>
        <pt x="1332" y="639" on="1"/>
        <pt x="1331" y="505" on="0"/>
        <pt x="1274" y="262" on="0"/>
        <pt x="1145" y="77" on="0"/>
        <pt x="935" y="-33" on="0"/>
        <pt x="781" y="-33" on="1"/>
        <pt x="617" y="-33" on="0"/>
        <pt x="395" y="53" on="0"/>
        <pt x="260" y="232" on="0"/>
        <pt x="202" y="508" on="0"/>
        <pt x="202" y="698" on="1"/>
        <pt x="202" y="1114" on="1"/>
        <pt x="202" y="1141" on="0"/>
        <pt x="203" y="1207" on="0"/>
        <pt x="206" y="1273" on="0"/>
        <pt x="208" y="1332" on="0"/>
        <pt x="210" y="1352" on="1"/>
        <pt x="63" y="1346" on="1"/>
        <pt x="63" y="1434" on="1"/>
        <pt x="523" y="1434" on="1"/>
        <pt x="523" y="1366" on="1"/>
        <pt x="471" y="1366" on="0"/>
        <pt x="414" y="1331" on="0"/>
        <pt x="387" y="1281" on="0"/>
        <pt x="382" y="1225" on="0"/>
        <pt x="382" y="1204" on="1"/>
        <pt x="382" y="688" on="1"/>
        <pt x="382" y="612" on="0"/>
        <pt x="394" y="463" on="0"/>
        <pt x="427" y="329" on="0"/>
        <pt x="486" y="215" on="0"/>
        <pt x="580" y="131" on="0"/>
        <pt x="714" y="84" on="0"/>
        <pt x="806" y="84" on="1"/>
        <pt x="917" y="84" on="0"/>
        <pt x="1076" y="164" on="0"/>
        <pt x="1179" y="309" on="0"/>
        <pt x="1228" y="509" on="0"/>
        <pt x="1230" y="629" on="1"/>
        <pt x="1238" y="1204" on="1"/>
        <pt x="1238" y="1290" on="0"/>
        <pt x="1244" y="1352" on="1"/>
        <pt x="1097" y="1343" on="1"/>
        <pt x="1097" y="1434" on="1"/>
        <pt x="1478" y="1434" on="1"/>
        <pt x="1478" y="1366" on="1"/>
        <pt x="1420" y="1364" on="0"/>
        <pt x="1361" y="1325" on="0"/>
        <pt x="1337" y="1259" on="0"/>
        <pt x="1336" y="1169" on="0"/>
        <pt x="1336" y="1114" on="1"/>
      </contour>
    </TTGlyph>
    <TTGlyph name="Uacute" xMin="63" yMin="-33" xMax="1478" yMax="1900">
      <component glyphName="U" x="0" y="0" flags="0x204"/>
      <component glyphName="Acute" x="634" y="0" flags="0x4"/>
    </TTGlyph>
    <TTGlyph name="Ucircumflex" xMin="63" yMin="-33" xMax="1478" yMax="1907">
      <component glyphName="U" x="0" y="0" flags="0x204"/>
      <component glyphName="Circumflex" x="318" y="0" flags="0x4"/>
    </TTGlyph>
    <TTGlyph name="Udieresis" xMin="63" yMin="-33" xMax="1478" yMax="1850">
      <component glyphName="U" x="0" y="0" flags="0x204"/>
      <component glyphName="Dieresis" x="420" y="0" flags="0x4"/>
    </TTGlyph>
    <TTGlyph name="Ugrave" xMin="63" yMin="-33" xMax="1478" yMax="1900">
      <component glyphName="U" x="0" y="0" flags="0x204"/>
      <component glyphName="Grave" x="414" y="0" flags="0x4"/>
    </TTGlyph>
    <TTGlyph name="Uhungarumlaut" xMin="64" yMin="-33" xMax="1479" yMax="1902">
      <component glyphName="U" x="1" y="0" flags="0x200"/>
      <component glyphName="hungarumlaut.case" x="442" y="0" flags="0x0"/>
    </TTGlyph>
    <TTGlyph name="Umacron" xMin="63" yMin="-33" xMax="1478" yMax="1844">
      <component glyphName="U" x="0" y="0" flags="0x200"/>
      <component glyphName="macron" x="437" y="410" flags="0x0"/>
    </TTGlyph>
    <TTGlyph name="Uogonek" xMin="63" yMin="-519" xMax="1478" yMax="1434">
      <contour>
        <pt x="1478" y="1366" on="1"/>
        <pt x="1420" y="1364" on="0"/>
        <pt x="1361" y="1325" on="0"/>
        <pt x="1336" y="1259" on="0"/>
        <pt x="1333" y="1169" on="0"/>
        <pt x="1332" y="1114" on="1"/>
        <pt x="1332" y="639" on="1"/>
        <pt x="1331" y="535" on="0"/>
        <pt x="1297" y="342" on="0"/>
        <pt x="1223" y="177" on="0"/>
        <pt x="1104" y="49" on="0"/>
        <pt x="1019" y="12" on="1"/>
        <pt x="1016" y="11" on="1"/>
        <pt x="1008" y="8" on="0"/>
        <pt x="993" y="2" on="0"/>
        <pt x="985" y="-1" on="1"/>
        <pt x="936" y="-21" on="0"/>
        <pt x="850" y="-75" on="0"/>
        <pt x="786" y="-142" on="0"/>
        <pt x="749" y="-223" on="0"/>
        <pt x="749" y="-269" on="1"/>
        <pt x="749" y="-301" on="0"/>
        <pt x="770" y="-353" on="0"/>
        <pt x="804" y="-389" on="0"/>
        <pt x="850" y="-409" on="0"/>
        <pt x="876" y="-409" on="1"/>
        <pt x="913" y="-409" on="0"/>
        <pt x="980" y="-378" on="0"/>
        <pt x="1009" y="-353" on="1"/>
        <pt x="1044" y="-390" on="1"/>
        <pt x="1024" y="-414" on="0"/>
        <pt x="971" y="-460" on="0"/>
        <pt x="908" y="-497" on="0"/>
        <pt x="837" y="-519" on="0"/>
        <pt x="800" y="-519" on="1"/>
        <pt x="751" y="-519" on="0"/>
        <pt x="671" y="-488" on="0"/>
        <pt x="614" y="-433" on="0"/>
        <pt x="583" y="-356" on="0"/>
        <pt x="583" y="-310" on="1"/>
        <pt x="583" y="-269" on="0"/>
        <pt x="614" y="-192" on="0"/>
        <pt x="669" y="-122" on="0"/>
        <pt x="745" y="-60" on="0"/>
        <pt x="789" y="-33" on="1"/>
        <pt x="781" y="-33" on="1"/>
        <pt x="617" y="-33" on="0"/>
        <pt x="395" y="53" on="0"/>
        <pt x="260" y="232" on="0"/>
        <pt x="202" y="508" on="0"/>
        <pt x="202" y="698" on="1"/>
        <pt x="202" y="1114" on="1"/>
        <pt x="202" y="1141" on="0"/>
        <pt x="203" y="1207" on="0"/>
        <pt x="206" y="1273" on="0"/>
        <pt x="208" y="1332" on="0"/>
        <pt x="210" y="1352" on="1"/>
        <pt x="63" y="1346" on="1"/>
        <pt x="63" y="1434" on="1"/>
        <pt x="523" y="1434" on="1"/>
        <pt x="523" y="1366" on="1"/>
        <pt x="471" y="1366" on="0"/>
        <pt x="414" y="1331" on="0"/>
        <pt x="387" y="1281" on="0"/>
        <pt x="382" y="1225" on="0"/>
        <pt x="382" y="1204" on="1"/>
        <pt x="382" y="688" on="1"/>
        <pt x="382" y="612" on="0"/>
        <pt x="394" y="463" on="0"/>
        <pt x="427" y="329" on="0"/>
        <pt x="486" y="215" on="0"/>
        <pt x="580" y="131" on="0"/>
        <pt x="714" y="84" on="0"/>
        <pt x="806" y="84" on="1"/>
        <pt x="917" y="84" on="0"/>
        <pt x="1076" y="164" on="0"/>
        <pt x="1179" y="309" on="0"/>
        <pt x="1228" y="509" on="0"/>
        <pt x="1230" y="629" on="1"/>
        <pt x="1238" y="1204" on="1"/>
        <pt x="1238" y="1290" on="0"/>
        <pt x="1244" y="1352" on="1"/>
        <pt x="1097" y="1343" on="1"/>
        <pt x="1097" y="1434" on="1"/>
        <pt x="1478" y="1434" on="1"/>
      </contour>
    </TTGlyph>
    <TTGlyph name="Uring" xMin="64" yMin="-33" xMax="1479" yMax="1969">
      <component glyphName="U" x="1" y="0" flags="0x200"/>
      <component glyphName="ring" x="470" y="410" flags="0x0"/>
    </TTGlyph>
    <TTGlyph name="V" xMin="-8" yMin="-20" xMax="1374" yMax="1434">
      <contour>
        <pt x="-8" y="1434" on="1"/>
        <pt x="467" y="1434" on="1"/>
        <pt x="467" y="1366" on="1"/>
        <pt x="465" y="1364" on="1"/>
        <pt x="414" y="1361" on="0"/>
        <pt x="353" y="1329" on="0"/>
        <pt x="330" y="1273" on="0"/>
        <pt x="342" y="1194" on="0"/>
        <pt x="363" y="1143" on="1"/>
        <pt x="387" y="1082" on="0"/>
        <pt x="433" y="967" on="0"/>
        <pt x="480" y="851" on="0"/>
        <pt x="529" y="731" on="0"/>
        <pt x="557" y="666" on="1"/>
        <pt x="582" y="608" on="0"/>
        <pt x="631" y="496" on="0"/>
        <pt x="674" y="394" on="0"/>
        <pt x="711" y="304" on="0"/>
        <pt x="723" y="270" on="1"/>
        <pt x="727" y="270" on="1"/>
        <pt x="1000" y="1040" on="0"/>
        <pt x="1092" y="1304" on="0"/>
        <pt x="1116" y="1352" on="1"/>
        <pt x="959" y="1343" on="1"/>
        <pt x="959" y="1434" on="1"/>
        <pt x="1374" y="1434" on="1"/>
        <pt x="1374" y="1366" on="1"/>
        <pt x="1329" y="1364" on="0"/>
        <pt x="1261" y="1342" on="0"/>
        <pt x="1209" y="1295" on="0"/>
        <pt x="1167" y="1220" on="0"/>
        <pt x="1098" y="1026" on="0"/>
        <pt x="995" y="742" on="0"/>
        <pt x="908" y="503" on="0"/>
        <pt x="792" y="186" on="0"/>
        <pt x="717" y="-20" on="1"/>
        <pt x="660" y="-20" on="1"/>
        <pt x="195" y="1069" on="1"/>
        <pt x="172" y="1121" on="0"/>
        <pt x="142" y="1204" on="0"/>
        <pt x="121" y="1271" on="0"/>
        <pt x="110" y="1325" on="0"/>
        <pt x="107" y="1348" on="1"/>
        <pt x="-8" y="1343" on="1"/>
      </contour>
    </TTGlyph>
    <TTGlyph name="W" xMin="14" yMin="-20" xMax="2068" yMax="1438">
      <contour>
        <pt x="14" y="1434" on="1"/>
        <pt x="511" y="1434" on="1"/>
        <pt x="511" y="1366" on="1"/>
        <pt x="451" y="1363" on="0"/>
        <pt x="382" y="1339" on="0"/>
        <pt x="354" y="1287" on="0"/>
        <pt x="361" y="1204" on="0"/>
        <pt x="378" y="1143" on="1"/>
        <pt x="435" y="956" on="0"/>
        <pt x="608" y="455" on="0"/>
        <pt x="638" y="370" on="0"/>
        <pt x="653" y="322" on="1"/>
        <pt x="657" y="322" on="1"/>
        <pt x="667" y="356" on="0"/>
        <pt x="691" y="434" on="0"/>
        <pt x="714" y="508" on="0"/>
        <pt x="828" y="862" on="0"/>
        <pt x="883" y="1030" on="0"/>
        <pt x="932" y="1181" on="0"/>
        <pt x="1013" y="1438" on="1"/>
        <pt x="1079" y="1438" on="1"/>
        <pt x="1179" y="1122" on="0"/>
        <pt x="1231" y="970" on="0"/>
        <pt x="1424" y="394" on="0"/>
        <pt x="1453" y="297" on="1"/>
        <pt x="1458" y="297" on="1"/>
        <pt x="1670" y="939" on="0"/>
        <pt x="1765" y="1234" on="0"/>
        <pt x="1796" y="1315" on="0"/>
        <pt x="1816" y="1350" on="1"/>
        <pt x="1652" y="1343" on="1"/>
        <pt x="1652" y="1434" on="1"/>
        <pt x="2068" y="1434" on="1"/>
        <pt x="2068" y="1366" on="1"/>
        <pt x="2016" y="1360" on="0"/>
        <pt x="1948" y="1335" on="0"/>
        <pt x="1895" y="1271" on="0"/>
        <pt x="1846" y="1157" on="0"/>
        <pt x="1542" y="245" on="0"/>
        <pt x="1445" y="-20" on="1"/>
        <pt x="1384" y="-20" on="1"/>
        <pt x="1001" y="1075" on="1"/>
        <pt x="640" y="-20" on="1"/>
        <pt x="581" y="-20" on="1"/>
        <pt x="198" y="1123" on="0"/>
        <pt x="169" y="1206" on="0"/>
        <pt x="148" y="1272" on="0"/>
        <pt x="134" y="1325" on="0"/>
        <pt x="130" y="1348" on="1"/>
        <pt x="14" y="1343" on="1"/>
      </contour>
    </TTGlyph>
    <TTGlyph name="X" xMin="18" yMin="0" xMax="1343" yMax="1434">
      <contour>
        <pt x="18" y="1434" on="1"/>
        <pt x="548" y="1434" on="1"/>
        <pt x="548" y="1366" on="1"/>
        <pt x="458" y="1362" on="1"/>
        <pt x="402" y="1359" on="0"/>
        <pt x="361" y="1328" on="0"/>
        <pt x="362" y="1282" on="0"/>
        <pt x="393" y="1224" on="0"/>
        <pt x="411" y="1196" on="1"/>
        <pt x="484" y="1084" on="0"/>
        <pt x="626" y="885" on="0"/>
        <pt x="666" y="830" on="1"/>
        <pt x="940" y="1224" on="0"/>
        <pt x="987" y="1287" on="0"/>
        <pt x="1028" y="1337" on="0"/>
        <pt x="1044" y="1352" on="1"/>
        <pt x="872" y="1343" on="1"/>
        <pt x="872" y="1434" on="1"/>
        <pt x="1275" y="1434" on="1"/>
        <pt x="1275" y="1366" on="1"/>
        <pt x="1226" y="1359" on="0"/>
        <pt x="1138" y="1303" on="0"/>
        <pt x="1058" y="1223" on="0"/>
        <pt x="987" y="1127" on="0"/>
        <pt x="723" y="753" on="1"/>
        <pt x="1083" y="276" on="1"/>
        <pt x="1224" y="86" on="1"/>
        <pt x="1343" y="90" on="1"/>
        <pt x="1343" y="0" on="1"/>
        <pt x="841" y="0" on="1"/>
        <pt x="841" y="68" on="1"/>
        <pt x="900" y="65" on="0"/>
        <pt x="956" y="92" on="0"/>
        <pt x="968" y="137" on="0"/>
        <pt x="945" y="192" on="0"/>
        <pt x="927" y="217" on="1"/>
        <pt x="627" y="615" on="1"/>
        <pt x="386" y="258" on="0"/>
        <pt x="307" y="139" on="0"/>
        <pt x="257" y="80" on="1"/>
        <pt x="427" y="90" on="1"/>
        <pt x="427" y="0" on="1"/>
        <pt x="24" y="0" on="1"/>
        <pt x="24" y="68" on="1"/>
        <pt x="73" y="78" on="0"/>
        <pt x="147" y="119" on="0"/>
        <pt x="211" y="180" on="0"/>
        <pt x="271" y="262" on="0"/>
        <pt x="306" y="313" on="1"/>
        <pt x="571" y="694" on="1"/>
        <pt x="482" y="820" on="0"/>
        <pt x="263" y="1126" on="0"/>
        <pt x="206" y="1210" on="0"/>
        <pt x="167" y="1272" on="0"/>
        <pt x="143" y="1320" on="0"/>
        <pt x="132" y="1348" on="1"/>
        <pt x="18" y="1343" on="1"/>
      </contour>
    </TTGlyph>
    <TTGlyph name="Y" xMin="-12" yMin="0" xMax="1319" yMax="1434">
      <contour>
        <pt x="581" y="553" on="1"/>
        <pt x="226" y="1116" on="1"/>
        <pt x="173" y="1198" on="0"/>
        <pt x="123" y="1309" on="0"/>
        <pt x="115" y="1348" on="1"/>
        <pt x="-12" y="1343" on="1"/>
        <pt x="-12" y="1434" on="1"/>
        <pt x="516" y="1434" on="1"/>
        <pt x="516" y="1366" on="1"/>
        <pt x="445" y="1366" on="0"/>
        <pt x="371" y="1333" on="0"/>
        <pt x="350" y="1274" on="0"/>
        <pt x="377" y="1192" on="0"/>
        <pt x="408" y="1143" on="1"/>
        <pt x="446" y="1082" on="0"/>
        <pt x="514" y="973" on="0"/>
        <pt x="582" y="867" on="0"/>
        <pt x="655" y="757" on="0"/>
        <pt x="699" y="696" on="1"/>
        <pt x="703" y="696" on="1"/>
        <pt x="932" y="1132" on="0"/>
        <pt x="1020" y="1292" on="0"/>
        <pt x="1048" y="1334" on="0"/>
        <pt x="1063" y="1350" on="1"/>
        <pt x="901" y="1343" on="1"/>
        <pt x="901" y="1434" on="1"/>
        <pt x="1319" y="1434" on="1"/>
        <pt x="1319" y="1366" on="1"/>
        <pt x="1268" y="1363" on="0"/>
        <pt x="1188" y="1329" on="0"/>
        <pt x="1118" y="1264" on="0"/>
        <pt x="1053" y="1167" on="0"/>
        <pt x="759" y="614" on="1"/>
        <pt x="758" y="515" on="0"/>
        <pt x="757" y="244" on="0"/>
        <pt x="758" y="244" on="1"/>
        <pt x="758" y="134" on="0"/>
        <pt x="752" y="82" on="1"/>
        <pt x="922" y="90" on="1"/>
        <pt x="922" y="0" on="1"/>
        <pt x="441" y="0" on="1"/>
        <pt x="441" y="68" on="1"/>
        <pt x="498" y="70" on="0"/>
        <pt x="556" y="110" on="0"/>
        <pt x="580" y="177" on="0"/>
        <pt x="580" y="267" on="0"/>
        <pt x="580" y="319" on="1"/>
      </contour>
    </TTGlyph>
    <TTGlyph name="Yacute" xMin="-12" yMin="0" xMax="1319" yMax="1900">
      <component glyphName="Y" x="0" y="0" flags="0x204"/>
      <component glyphName="Acute" x="543" y="0" flags="0x4"/>
    </TTGlyph>
    <TTGlyph name="Ydieresis" xMin="-12" yMin="0" xMax="1319" yMax="1850">
      <component glyphName="Y" x="0" y="0" flags="0x204"/>
      <component glyphName="Dieresis" x="266" y="0" flags="0x4"/>
    </TTGlyph>
    <TTGlyph name="Z" xMin="88" yMin="0" xMax="1151" yMax="1434">
      <contour>
        <pt x="88" y="94" on="1"/>
        <pt x="146" y="175" on="0"/>
        <pt x="292" y="381" on="0"/>
        <pt x="473" y="644" on="0"/>
        <pt x="688" y="972" on="0"/>
        <pt x="815" y="1174" on="1"/>
        <pt x="844" y="1220" on="0"/>
        <pt x="908" y="1313" on="0"/>
        <pt x="946" y="1358" on="1"/>
        <pt x="424" y="1350" on="1"/>
        <pt x="363" y="1347" on="0"/>
        <pt x="273" y="1306" on="0"/>
        <pt x="213" y="1223" on="0"/>
        <pt x="183" y="1097" on="0"/>
        <pt x="183" y="1010" on="1"/>
        <pt x="113" y="1010" on="1"/>
        <pt x="125" y="1434" on="1"/>
        <pt x="1141" y="1434" on="1"/>
        <pt x="1141" y="1362" on="1"/>
        <pt x="406" y="246" on="1"/>
        <pt x="383" y="213" on="0"/>
        <pt x="346" y="163" on="0"/>
        <pt x="313" y="123" on="0"/>
        <pt x="282" y="91" on="0"/>
        <pt x="266" y="76" on="1"/>
        <pt x="764" y="84" on="1"/>
        <pt x="831" y="85" on="0"/>
        <pt x="948" y="125" on="0"/>
        <pt x="1033" y="208" on="0"/>
        <pt x="1082" y="334" on="0"/>
        <pt x="1082" y="420" on="1"/>
        <pt x="1151" y="420" on="1"/>
        <pt x="1139" y="0" on="1"/>
        <pt x="88" y="0" on="1"/>
      </contour>
    </TTGlyph>
    <TTGlyph name="Zacute" xMin="88" yMin="0" xMax="1151" yMax="1900">
      <component glyphName="Z" x="0" y="0" flags="0x200"/>
      <component glyphName="Acute" x="399" y="0" flags="0x0"/>
    </TTGlyph>
    <TTGlyph name="Zcaron" xMin="88" yMin="0" xMax="1151" yMax="1890">
      <component glyphName="Z" x="0" y="0" flags="0x204"/>
      <component glyphName="Caron" x="137" y="0" flags="0x4"/>
    </TTGlyph>
    <TTGlyph name="Zdotaccent" xMin="88" yMin="0" xMax="1151" yMax="1901">
      <component glyphName="Z" x="0" y="0" flags="0x200"/>
      <component glyphName="period" x="392" y="1687" scalex="0.923095703125" scaley="0.922485351562" flags="0x0"/>
    </TTGlyph>
    <TTGlyph name="a" xMin="70" yMin="-33" xMax="1006" yMax="1057">
      <contour>
        <pt x="694" y="501" on="1"/>
        <pt x="647" y="499" on="0"/>
        <pt x="546" y="486" on="0"/>
        <pt x="449" y="459" on="0"/>
        <pt x="363" y="417" on="0"/>
        <pt x="299" y="359" on="0"/>
        <pt x="263" y="283" on="0"/>
        <pt x="265" y="235" on="1"/>
        <pt x="266" y="197" on="0"/>
        <pt x="293" y="140" on="0"/>
        <pt x="336" y="103" on="0"/>
        <pt x="392" y="84" on="0"/>
        <pt x="424" y="84" on="1"/>
        <pt x="465" y="84" on="0"/>
        <pt x="537" y="100" on="0"/>
        <pt x="602" y="131" on="0"/>
        <pt x="663" y="175" on="0"/>
        <pt x="694" y="204" on="1"/>
      </contour>
      <contour>
        <pt x="132" y="811" on="1"/>
        <pt x="132" y="862" on="0"/>
        <pt x="192" y="952" on="0"/>
        <pt x="300" y="1019" on="0"/>
        <pt x="449" y="1057" on="0"/>
        <pt x="537" y="1057" on="1"/>
        <pt x="709" y="1057" on="0"/>
        <pt x="872" y="875" on="0"/>
        <pt x="871" y="677" on="1"/>
        <pt x="869" y="217" on="1"/>
        <pt x="869" y="185" on="0"/>
        <pt x="866" y="120" on="0"/>
        <pt x="861" y="78" on="1"/>
        <pt x="1006" y="86" on="1"/>
        <pt x="1006" y="0" on="1"/>
        <pt x="713" y="0" on="1"/>
        <pt x="707" y="35" on="0"/>
        <pt x="701" y="87" on="0"/>
        <pt x="699" y="116" on="1"/>
        <pt x="630" y="47" on="0"/>
        <pt x="467" y="-33" on="0"/>
        <pt x="376" y="-33" on="1"/>
        <pt x="299" y="-33" on="0"/>
        <pt x="184" y="4" on="0"/>
        <pt x="108" y="70" on="0"/>
        <pt x="70" y="159" on="0"/>
        <pt x="70" y="210" on="1"/>
        <pt x="70" y="273" on="0"/>
        <pt x="125" y="377" on="0"/>
        <pt x="218" y="458" on="0"/>
        <pt x="342" y="517" on="0"/>
        <pt x="481" y="555" on="0"/>
        <pt x="626" y="572" on="0"/>
        <pt x="695" y="571" on="1"/>
        <pt x="695" y="699" on="1"/>
        <pt x="695" y="752" on="0"/>
        <pt x="683" y="852" on="0"/>
        <pt x="642" y="934" on="0"/>
        <pt x="555" y="982" on="0"/>
        <pt x="498" y="982" on="1"/>
        <pt x="465" y="982" on="0"/>
        <pt x="405" y="971" on="0"/>
        <pt x="347" y="945" on="0"/>
        <pt x="300" y="903" on="0"/>
        <pt x="285" y="874" on="1"/>
        <pt x="300" y="857" on="0"/>
        <pt x="311" y="816" on="0"/>
        <pt x="311" y="797" on="1"/>
        <pt x="311" y="785" on="0"/>
        <pt x="301" y="754" on="0"/>
        <pt x="280" y="727" on="0"/>
        <pt x="247" y="710" on="0"/>
        <pt x="219" y="710" on="1"/>
        <pt x="179" y="710" on="0"/>
        <pt x="132" y="769" on="0"/>
      </contour>
    </TTGlyph>
    <TTGlyph name="aacute" xMin="70" yMin="-33" xMax="1006" yMax="1567">
      <component glyphName="a" x="0" y="0" flags="0x204"/>
      <component glyphName="acute" x="304" y="0" flags="0x4"/>
    </TTGlyph>
    <TTGlyph name="abreve" xMin="71" yMin="-33" xMax="1007" yMax="1509">
      <component glyphName="a" x="1" y="0" flags="0x200"/>
      <component glyphName="breve" x="143" y="0" flags="0x0"/>
    </TTGlyph>
    <TTGlyph name="acircumflex" xMin="70" yMin="-33" xMax="1006" yMax="1593">
      <component glyphName="a" x="0" y="0" flags="0x204"/>
      <component glyphName="circumflex" x="95" y="0" flags="0x4"/>
    </TTGlyph>
    <TTGlyph name="acute" xMin="92" yMin="1188" xMax="423" yMax="1567">
      <contour>
        <pt x="149" y="1188" on="1"/>
        <pt x="92" y="1235" on="1"/>
        <pt x="264" y="1511" on="1"/>
        <pt x="287" y="1544" on="0"/>
        <pt x="332" y="1567" on="0"/>
        <pt x="365" y="1567" on="0"/>
        <pt x="396" y="1554" on="0"/>
        <pt x="416" y="1528" on="0"/>
        <pt x="423" y="1506" on="0"/>
        <pt x="423" y="1493" on="1"/>
        <pt x="423" y="1482" on="0"/>
        <pt x="417" y="1462" on="0"/>
        <pt x="414" y="1455" on="1"/>
        <pt x="405" y="1432" on="0"/>
        <pt x="379" y="1405" on="1"/>
      </contour>
    </TTGlyph>
    <TTGlyph name="adieresis" xMin="70" yMin="-33" xMax="1006" yMax="1493">
      <component glyphName="a" x="0" y="0" flags="0x204"/>
      <component glyphName="dieresis" x="103" y="0" flags="0x4"/>
    </TTGlyph>
    <TTGlyph name="ae" xMin="70" yMin="-33" xMax="1508" yMax="1057">
      <contour>
        <pt x="707" y="219" on="1"/>
        <pt x="704" y="240" on="0"/>
        <pt x="698" y="309" on="0"/>
        <pt x="692" y="386" on="0"/>
        <pt x="687" y="463" on="0"/>
        <pt x="686" y="493" on="1"/>
        <pt x="617" y="490" on="0"/>
        <pt x="469" y="462" on="0"/>
        <pt x="345" y="403" on="0"/>
        <pt x="265" y="308" on="0"/>
        <pt x="265" y="239" on="1"/>
        <pt x="265" y="192" on="0"/>
        <pt x="297" y="132" on="0"/>
        <pt x="347" y="97" on="0"/>
        <pt x="406" y="83" on="0"/>
        <pt x="432" y="83" on="1"/>
        <pt x="517" y="83" on="0"/>
        <pt x="650" y="155" on="0"/>
      </contour>
      <contour>
        <pt x="1125" y="977" on="1"/>
        <pt x="1065" y="977" on="0"/>
        <pt x="980" y="929" on="0"/>
        <pt x="924" y="847" on="0"/>
        <pt x="892" y="739" on="0"/>
        <pt x="885" y="678" on="1"/>
        <pt x="1311" y="678" on="1"/>
        <pt x="1311" y="732" on="0"/>
        <pt x="1298" y="839" on="0"/>
        <pt x="1258" y="924" on="0"/>
        <pt x="1185" y="977" on="0"/>
      </contour>
      <contour>
        <pt x="136" y="804" on="1"/>
        <pt x="136" y="850" on="0"/>
        <pt x="188" y="941" on="0"/>
        <pt x="287" y="1013" on="0"/>
        <pt x="427" y="1057" on="0"/>
        <pt x="516" y="1057" on="1"/>
        <pt x="619" y="1057" on="0"/>
        <pt x="762" y="964" on="0"/>
        <pt x="799" y="880" on="1"/>
        <pt x="856" y="958" on="0"/>
        <pt x="1023" y="1057" on="0"/>
        <pt x="1133" y="1057" on="1"/>
        <pt x="1211" y="1057" on="0"/>
        <pt x="1343" y="1007" on="0"/>
        <pt x="1440" y="898" on="0"/>
        <pt x="1495" y="726" on="0"/>
        <pt x="1496" y="604" on="1"/>
        <pt x="871" y="592" on="1"/>
        <pt x="868" y="553" on="0"/>
        <pt x="868" y="518" on="1"/>
        <pt x="868" y="410" on="0"/>
        <pt x="914" y="243" on="0"/>
        <pt x="996" y="130" on="0"/>
        <pt x="1108" y="72" on="0"/>
        <pt x="1174" y="72" on="1"/>
        <pt x="1222" y="72" on="0"/>
        <pt x="1303" y="98" on="0"/>
        <pt x="1372" y="143" on="0"/>
        <pt x="1431" y="206" on="0"/>
        <pt x="1457" y="242" on="1"/>
        <pt x="1508" y="201" on="1"/>
        <pt x="1466" y="137" on="0"/>
        <pt x="1375" y="48" on="0"/>
        <pt x="1278" y="-8" on="0"/>
        <pt x="1177" y="-33" on="0"/>
        <pt x="1125" y="-33" on="1"/>
        <pt x="1004" y="-33" on="0"/>
        <pt x="816" y="59" on="0"/>
        <pt x="759" y="161" on="1"/>
        <pt x="757" y="161" on="1"/>
        <pt x="718" y="108" on="0"/>
        <pt x="628" y="34" on="0"/>
        <pt x="530" y="-12" on="0"/>
        <pt x="424" y="-33" on="0"/>
        <pt x="369" y="-33" on="1"/>
        <pt x="299" y="-33" on="0"/>
        <pt x="188" y="3" on="0"/>
        <pt x="111" y="66" on="0"/>
        <pt x="70" y="154" on="0"/>
        <pt x="70" y="205" on="1"/>
        <pt x="70" y="269" on="0"/>
        <pt x="124" y="371" on="0"/>
        <pt x="216" y="451" on="0"/>
        <pt x="338" y="508" on="0"/>
        <pt x="476" y="545" on="0"/>
        <pt x="621" y="563" on="0"/>
        <pt x="689" y="563" on="1"/>
        <pt x="689" y="688" on="1"/>
        <pt x="689" y="743" on="0"/>
        <pt x="678" y="848" on="0"/>
        <pt x="636" y="931" on="0"/>
        <pt x="555" y="982" on="0"/>
        <pt x="486" y="982" on="1"/>
        <pt x="452" y="982" on="0"/>
        <pt x="388" y="965" on="0"/>
        <pt x="334" y="933" on="0"/>
        <pt x="293" y="888" on="0"/>
        <pt x="282" y="860" on="1"/>
        <pt x="296" y="847" on="0"/>
        <pt x="310" y="805" on="0"/>
        <pt x="310" y="793" on="1"/>
        <pt x="310" y="781" on="0"/>
        <pt x="300" y="751" on="0"/>
        <pt x="279" y="724" on="0"/>
        <pt x="245" y="706" on="0"/>
        <pt x="221" y="706" on="1"/>
        <pt x="183" y="706" on="0"/>
        <pt x="136" y="759" on="0"/>
      </contour>
    </TTGlyph>
    <TTGlyph name="agrave" xMin="70" yMin="-33" xMax="1006" yMax="1567">
      <component glyphName="a" x="0" y="0" flags="0x204"/>
      <component glyphName="grave" x="191" y="0" flags="0x4"/>
    </TTGlyph>
    <TTGlyph name="amacron" xMin="70" yMin="-33" xMax="1006" yMax="1434">
      <component glyphName="a" x="0" y="0" flags="0x200"/>
      <component glyphName="macron" x="150" y="0" flags="0x0"/>
    </TTGlyph>
    <TTGlyph name="ampersand" xMin="74" yMin="-33" xMax="1440" yMax="1467">
      <contour>
        <pt x="1121" y="547" on="1"/>
        <pt x="1123" y="506" on="0"/>
        <pt x="1105" y="388" on="0"/>
        <pt x="1079" y="322" on="1"/>
        <pt x="1102" y="301" on="0"/>
        <pt x="1153" y="255" on="0"/>
        <pt x="1182" y="229" on="1"/>
        <pt x="1275" y="146" on="0"/>
        <pt x="1408" y="68" on="0"/>
        <pt x="1440" y="68" on="1"/>
        <pt x="1440" y="0" on="1"/>
        <pt x="1250" y="0" on="1"/>
        <pt x="1230" y="0" on="0"/>
        <pt x="1101" y="77" on="0"/>
        <pt x="995" y="169" on="1"/>
        <pt x="962" y="127" on="0"/>
        <pt x="877" y="53" on="0"/>
        <pt x="768" y="-1" on="0"/>
        <pt x="635" y="-33" on="0"/>
        <pt x="554" y="-33" on="1"/>
        <pt x="465" y="-33" on="0"/>
        <pt x="292" y="11" on="0"/>
        <pt x="157" y="107" on="0"/>
        <pt x="74" y="260" on="0"/>
        <pt x="74" y="369" on="1"/>
        <pt x="74" y="435" on="0"/>
        <pt x="119" y="552" on="0"/>
        <pt x="203" y="654" on="0"/>
        <pt x="322" y="739" on="0"/>
        <pt x="396" y="771" on="1"/>
        <pt x="355" y="822" on="0"/>
        <pt x="295" y="915" on="0"/>
        <pt x="257" y="1006" on="0"/>
        <pt x="240" y="1097" on="0"/>
        <pt x="240" y="1145" on="1"/>
        <pt x="241" y="1218" on="0"/>
        <pt x="298" y="1337" on="0"/>
        <pt x="398" y="1421" on="0"/>
        <pt x="537" y="1467" on="0"/>
        <pt x="619" y="1467" on="1"/>
        <pt x="697" y="1467" on="0"/>
        <pt x="823" y="1423" on="0"/>
        <pt x="912" y="1345" on="0"/>
        <pt x="961" y="1240" on="0"/>
        <pt x="961" y="1180" on="1"/>
        <pt x="961" y="1123" on="0"/>
        <pt x="925" y="1017" on="0"/>
        <pt x="845" y="916" on="0"/>
        <pt x="717" y="819" on="0"/>
        <pt x="624" y="772" on="1"/>
        <pt x="663" y="730" on="0"/>
        <pt x="747" y="644" on="0"/>
        <pt x="789" y="600" on="1"/>
        <pt x="810" y="577" on="0"/>
        <pt x="853" y="534" on="0"/>
        <pt x="903" y="485" on="0"/>
        <pt x="964" y="427" on="0"/>
        <pt x="1004" y="390" on="1"/>
        <pt x="1014" y="426" on="0"/>
        <pt x="1023" y="492" on="0"/>
        <pt x="1023" y="520" on="1"/>
        <pt x="1023" y="555" on="0"/>
        <pt x="1009" y="626" on="0"/>
        <pt x="974" y="685" on="0"/>
        <pt x="914" y="723" on="0"/>
        <pt x="869" y="725" on="1"/>
        <pt x="869" y="793" on="1"/>
        <pt x="1227" y="793" on="1"/>
        <pt x="1227" y="709" on="1"/>
        <pt x="1057" y="716" on="1"/>
        <pt x="1089" y="688" on="0"/>
        <pt x="1119" y="604" on="0"/>
      </contour>
      <contour>
        <pt x="871" y="283" on="1"/>
        <pt x="732" y="418" on="0"/>
        <pt x="522" y="625" on="0"/>
        <pt x="448" y="710" on="1"/>
        <pt x="399" y="681" on="0"/>
        <pt x="334" y="600" on="0"/>
        <pt x="295" y="514" on="0"/>
        <pt x="279" y="431" on="0"/>
        <pt x="279" y="400" on="1"/>
        <pt x="279" y="316" on="0"/>
        <pt x="331" y="193" on="0"/>
        <pt x="415" y="113" on="0"/>
        <pt x="523" y="72" on="0"/>
        <pt x="580" y="70" on="1"/>
        <pt x="644" y="67" on="0"/>
        <pt x="750" y="90" on="0"/>
        <pt x="836" y="133" on="0"/>
        <pt x="903" y="193" on="0"/>
        <pt x="929" y="228" on="1"/>
        <pt x="900" y="253" on="0"/>
      </contour>
      <contour>
        <pt x="412" y="1161" on="1"/>
        <pt x="412" y="1117" on="0"/>
        <pt x="437" y="1030" on="0"/>
        <pt x="482" y="945" on="0"/>
        <pt x="543" y="861" on="0"/>
        <pt x="579" y="822" on="1"/>
        <pt x="694" y="897" on="0"/>
        <pt x="804" y="1083" on="0"/>
        <pt x="804" y="1173" on="1"/>
        <pt x="804" y="1222" on="0"/>
        <pt x="778" y="1306" on="0"/>
        <pt x="729" y="1366" on="0"/>
        <pt x="656" y="1400" on="0"/>
        <pt x="609" y="1400" on="1"/>
        <pt x="567" y="1400" on="0"/>
        <pt x="494" y="1369" on="0"/>
        <pt x="442" y="1308" on="0"/>
        <pt x="412" y="1219" on="0"/>
      </contour>
    </TTGlyph>
    <TTGlyph name="aogonek" xMin="70" yMin="-520" xMax="1006" yMax="1057">
      <contour>
        <pt x="933" y="0" on="1"/>
        <pt x="883" y="-20" on="0"/>
        <pt x="796" y="-74" on="0"/>
        <pt x="730" y="-142" on="0"/>
        <pt x="692" y="-223" on="0"/>
        <pt x="692" y="-270" on="1"/>
        <pt x="692" y="-302" on="0"/>
        <pt x="713" y="-354" on="0"/>
        <pt x="747" y="-390" on="0"/>
        <pt x="793" y="-410" on="0"/>
        <pt x="819" y="-410" on="1"/>
        <pt x="856" y="-410" on="0"/>
        <pt x="923" y="-379" on="0"/>
        <pt x="952" y="-354" on="1"/>
        <pt x="987" y="-391" on="1"/>
        <pt x="967" y="-415" on="0"/>
        <pt x="914" y="-461" on="0"/>
        <pt x="851" y="-498" on="0"/>
        <pt x="780" y="-520" on="0"/>
        <pt x="743" y="-520" on="1"/>
        <pt x="694" y="-520" on="0"/>
        <pt x="614" y="-489" on="0"/>
        <pt x="557" y="-434" on="0"/>
        <pt x="526" y="-357" on="0"/>
        <pt x="526" y="-311" on="1"/>
        <pt x="526" y="-263" on="0"/>
        <pt x="568" y="-174" on="0"/>
        <pt x="641" y="-95" on="0"/>
        <pt x="739" y="-27" on="0"/>
        <pt x="794" y="0" on="1"/>
        <pt x="713" y="0" on="1"/>
        <pt x="707" y="35" on="0"/>
        <pt x="701" y="87" on="0"/>
        <pt x="699" y="116" on="1"/>
        <pt x="630" y="47" on="0"/>
        <pt x="467" y="-33" on="0"/>
        <pt x="376" y="-33" on="1"/>
        <pt x="299" y="-33" on="0"/>
        <pt x="184" y="4" on="0"/>
        <pt x="108" y="70" on="0"/>
        <pt x="70" y="159" on="0"/>
        <pt x="70" y="210" on="1"/>
        <pt x="70" y="273" on="0"/>
        <pt x="125" y="377" on="0"/>
        <pt x="218" y="458" on="0"/>
        <pt x="342" y="517" on="0"/>
        <pt x="481" y="555" on="0"/>
        <pt x="626" y="572" on="0"/>
        <pt x="695" y="571" on="1"/>
        <pt x="695" y="699" on="1"/>
        <pt x="695" y="752" on="0"/>
        <pt x="683" y="852" on="0"/>
        <pt x="643" y="930" on="0"/>
        <pt x="565" y="980" on="0"/>
        <pt x="498" y="982" on="1"/>
        <pt x="468" y="983" on="0"/>
        <pt x="405" y="971" on="0"/>
        <pt x="347" y="945" on="0"/>
        <pt x="300" y="903" on="0"/>
        <pt x="285" y="874" on="1"/>
        <pt x="300" y="857" on="0"/>
        <pt x="311" y="816" on="0"/>
        <pt x="311" y="797" on="1"/>
        <pt x="311" y="785" on="0"/>
        <pt x="301" y="754" on="0"/>
        <pt x="280" y="727" on="0"/>
        <pt x="244" y="709" on="0"/>
        <pt x="219" y="710" on="1"/>
        <pt x="176" y="711" on="0"/>
        <pt x="132" y="769" on="0"/>
        <pt x="132" y="811" on="1"/>
        <pt x="132" y="862" on="0"/>
        <pt x="192" y="952" on="0"/>
        <pt x="300" y="1019" on="0"/>
        <pt x="449" y="1057" on="0"/>
        <pt x="537" y="1057" on="1"/>
        <pt x="709" y="1057" on="0"/>
        <pt x="872" y="875" on="0"/>
        <pt x="869" y="677" on="1"/>
        <pt x="869" y="217" on="1"/>
        <pt x="869" y="185" on="0"/>
        <pt x="866" y="120" on="0"/>
        <pt x="861" y="78" on="1"/>
        <pt x="1006" y="86" on="1"/>
        <pt x="1006" y="0" on="1"/>
      </contour>
      <contour>
        <pt x="694" y="204" on="1"/>
        <pt x="693" y="227" on="0"/>
        <pt x="693" y="281" on="0"/>
        <pt x="693" y="310" on="1"/>
        <pt x="693" y="314" on="0"/>
        <pt x="693" y="348" on="0"/>
        <pt x="694" y="400" on="0"/>
        <pt x="694" y="465" on="0"/>
        <pt x="694" y="501" on="1"/>
        <pt x="647" y="499" on="0"/>
        <pt x="546" y="486" on="0"/>
        <pt x="449" y="459" on="0"/>
        <pt x="363" y="417" on="0"/>
        <pt x="299" y="359" on="0"/>
        <pt x="263" y="283" on="0"/>
        <pt x="265" y="235" on="1"/>
        <pt x="266" y="197" on="0"/>
        <pt x="293" y="140" on="0"/>
        <pt x="336" y="103" on="0"/>
        <pt x="392" y="84" on="0"/>
        <pt x="424" y="84" on="1"/>
        <pt x="465" y="84" on="0"/>
        <pt x="537" y="100" on="0"/>
        <pt x="602" y="131" on="0"/>
        <pt x="663" y="175" on="0"/>
      </contour>
    </TTGlyph>
    <TTGlyph name="approxequal" xMin="152" yMin="308" xMax="1062" yMax="911">
      <contour>
        <pt x="404" y="780" on="1"/>
        <pt x="362" y="780" on="0"/>
        <pt x="294" y="766" on="0"/>
        <pt x="234" y="740" on="0"/>
        <pt x="180" y="706" on="0"/>
        <pt x="152" y="688" on="1"/>
        <pt x="152" y="809" on="1"/>
        <pt x="184" y="833" on="0"/>
        <pt x="243" y="871" on="0"/>
        <pt x="304" y="898" on="0"/>
        <pt x="371" y="911" on="0"/>
        <pt x="412" y="911" on="1"/>
        <pt x="467" y="911" on="0"/>
        <pt x="549" y="889" on="0"/>
        <pt x="613" y="857" on="0"/>
        <pt x="666" y="819" on="0"/>
        <pt x="721" y="787" on="0"/>
        <pt x="784" y="766" on="0"/>
        <pt x="826" y="766" on="1"/>
        <pt x="894" y="766" on="0"/>
        <pt x="1013" y="815" on="0"/>
        <pt x="1062" y="857" on="1"/>
        <pt x="1062" y="736" on="1"/>
        <pt x="1020" y="691" on="0"/>
        <pt x="899" y="636" on="0"/>
        <pt x="818" y="636" on="1"/>
        <pt x="767" y="636" on="0"/>
        <pt x="688" y="658" on="0"/>
        <pt x="624" y="690" on="0"/>
        <pt x="568" y="727" on="0"/>
        <pt x="510" y="759" on="0"/>
        <pt x="445" y="780" on="0"/>
      </contour>
      <contour>
        <pt x="404" y="453" on="1"/>
        <pt x="362" y="453" on="0"/>
        <pt x="294" y="438" on="0"/>
        <pt x="234" y="412" on="0"/>
        <pt x="180" y="379" on="0"/>
        <pt x="152" y="360" on="1"/>
        <pt x="152" y="481" on="1"/>
        <pt x="184" y="505" on="0"/>
        <pt x="243" y="543" on="0"/>
        <pt x="304" y="570" on="0"/>
        <pt x="371" y="583" on="0"/>
        <pt x="412" y="583" on="1"/>
        <pt x="467" y="583" on="0"/>
        <pt x="549" y="561" on="0"/>
        <pt x="613" y="529" on="0"/>
        <pt x="666" y="491" on="0"/>
        <pt x="721" y="459" on="0"/>
        <pt x="784" y="438" on="0"/>
        <pt x="826" y="438" on="1"/>
        <pt x="894" y="438" on="0"/>
        <pt x="1013" y="487" on="0"/>
        <pt x="1062" y="529" on="1"/>
        <pt x="1062" y="408" on="1"/>
        <pt x="1020" y="364" on="0"/>
        <pt x="899" y="308" on="0"/>
        <pt x="818" y="308" on="1"/>
        <pt x="767" y="308" on="0"/>
        <pt x="688" y="330" on="0"/>
        <pt x="624" y="362" on="0"/>
        <pt x="568" y="399" on="0"/>
        <pt x="510" y="431" on="0"/>
        <pt x="445" y="453" on="0"/>
      </contour>
    </TTGlyph>
    <TTGlyph name="aring" xMin="70" yMin="-33" xMax="1006" yMax="1559">
      <component glyphName="a" x="0" y="0" flags="0x204"/>
      <component glyphName="ring" x="191" y="0" flags="0x4"/>
    </TTGlyph>
    <TTGlyph name="asciicircum" xMin="123" yMin="894" xMax="1563" yMax="1467">
      <contour>
        <pt x="936" y="1467" on="1"/>
        <pt x="1563" y="894" on="1"/>
        <pt x="1382" y="894" on="1"/>
        <pt x="837" y="1394" on="1"/>
        <pt x="291" y="904" on="1"/>
        <pt x="123" y="904" on="1"/>
        <pt x="754" y="1467" on="1"/>
      </contour>
    </TTGlyph>
    <TTGlyph name="asciitilde" xMin="139" yMin="473" xMax="1049" yMax="766">
      <contour>
        <pt x="391" y="627" on="1"/>
        <pt x="349" y="627" on="0"/>
        <pt x="281" y="611" on="0"/>
        <pt x="221" y="584" on="0"/>
        <pt x="167" y="548" on="0"/>
        <pt x="139" y="528" on="1"/>
        <pt x="139" y="657" on="1"/>
        <pt x="171" y="683" on="0"/>
        <pt x="230" y="724" on="0"/>
        <pt x="291" y="752" on="0"/>
        <pt x="358" y="766" on="0"/>
        <pt x="399" y="766" on="1"/>
        <pt x="454" y="766" on="0"/>
        <pt x="536" y="743" on="0"/>
        <pt x="600" y="709" on="0"/>
        <pt x="653" y="668" on="0"/>
        <pt x="708" y="634" on="0"/>
        <pt x="771" y="611" on="0"/>
        <pt x="813" y="611" on="1"/>
        <pt x="881" y="611" on="0"/>
        <pt x="1000" y="664" on="0"/>
        <pt x="1049" y="709" on="1"/>
        <pt x="1049" y="580" on="1"/>
        <pt x="1007" y="532" on="0"/>
        <pt x="886" y="473" on="0"/>
        <pt x="805" y="473" on="1"/>
        <pt x="754" y="473" on="0"/>
        <pt x="675" y="496" on="0"/>
        <pt x="611" y="530" on="0"/>
        <pt x="555" y="570" on="0"/>
        <pt x="497" y="604" on="0"/>
        <pt x="432" y="627" on="0"/>
      </contour>
    </TTGlyph>
    <TTGlyph name="asterisk" xMin="80" yMin="603" xMax="979" yMax="1467">
      <contour>
        <pt x="559" y="1041" on="1"/>
        <pt x="613" y="1075" on="0"/>
        <pt x="743" y="1139" on="0"/>
        <pt x="806" y="1170" on="1"/>
        <pt x="828" y="1181" on="0"/>
        <pt x="880" y="1195" on="0"/>
        <pt x="928" y="1193" on="0"/>
        <pt x="966" y="1170" on="0"/>
        <pt x="974" y="1144" on="1"/>
        <pt x="979" y="1129" on="0"/>
        <pt x="979" y="1116" on="1"/>
        <pt x="979" y="1104" on="0"/>
        <pt x="968" y="1078" on="0"/>
        <pt x="933" y="1049" on="0"/>
        <pt x="883" y="1031" on="0"/>
        <pt x="858" y="1025" on="1"/>
        <pt x="825" y="1019" on="0"/>
        <pt x="753" y="1005" on="0"/>
        <pt x="681" y="994" on="0"/>
        <pt x="610" y="985" on="0"/>
        <pt x="579" y="984" on="1"/>
        <pt x="629" y="944" on="0"/>
        <pt x="732" y="842" on="0"/>
        <pt x="780" y="791" on="1"/>
        <pt x="799" y="771" on="0"/>
        <pt x="826" y="727" on="0"/>
        <pt x="837" y="691" on="0"/>
        <pt x="837" y="678" on="1"/>
        <pt x="837" y="663" on="0"/>
        <pt x="825" y="633" on="0"/>
        <pt x="806" y="619" on="1"/>
        <pt x="784" y="603" on="0"/>
        <pt x="742" y="606" on="0"/>
        <pt x="705" y="631" on="0"/>
        <pt x="672" y="672" on="0"/>
        <pt x="659" y="693" on="1"/>
        <pt x="643" y="723" on="0"/>
        <pt x="607" y="789" on="0"/>
        <pt x="573" y="855" on="0"/>
        <pt x="543" y="920" on="0"/>
        <pt x="532" y="949" on="1"/>
        <pt x="520" y="920" on="0"/>
        <pt x="490" y="855" on="0"/>
        <pt x="456" y="789" on="0"/>
        <pt x="421" y="723" on="0"/>
        <pt x="405" y="693" on="1"/>
        <pt x="393" y="672" on="0"/>
        <pt x="361" y="631" on="0"/>
        <pt x="323" y="606" on="0"/>
        <pt x="280" y="603" on="0"/>
        <pt x="257" y="619" on="1"/>
        <pt x="239" y="634" on="0"/>
        <pt x="228" y="661" on="0"/>
        <pt x="228" y="678" on="1"/>
        <pt x="228" y="690" on="0"/>
        <pt x="238" y="727" on="0"/>
        <pt x="266" y="773" on="0"/>
        <pt x="282" y="791" on="1"/>
        <pt x="330" y="842" on="0"/>
        <pt x="432" y="946" on="0"/>
        <pt x="483" y="984" on="1"/>
        <pt x="451" y="985" on="0"/>
        <pt x="380" y="994" on="0"/>
        <pt x="307" y="1005" on="0"/>
        <pt x="235" y="1019" on="0"/>
        <pt x="202" y="1025" on="1"/>
        <pt x="178" y="1030" on="0"/>
        <pt x="128" y="1048" on="0"/>
        <pt x="92" y="1077" on="0"/>
        <pt x="80" y="1106" on="0"/>
        <pt x="80" y="1117" on="1"/>
        <pt x="80" y="1130" on="0"/>
        <pt x="85" y="1144" on="1"/>
        <pt x="94" y="1171" on="0"/>
        <pt x="132" y="1194" on="0"/>
        <pt x="179" y="1195" on="0"/>
        <pt x="230" y="1181" on="0"/>
        <pt x="253" y="1170" on="1"/>
        <pt x="316" y="1141" on="0"/>
        <pt x="449" y="1076" on="0"/>
        <pt x="501" y="1041" on="1"/>
        <pt x="483" y="1101" on="0"/>
        <pt x="462" y="1249" on="0"/>
        <pt x="454" y="1318" on="1"/>
        <pt x="451" y="1342" on="0"/>
        <pt x="453" y="1395" on="0"/>
        <pt x="470" y="1439" on="0"/>
        <pt x="503" y="1467" on="0"/>
        <pt x="532" y="1467" on="1"/>
        <pt x="560" y="1467" on="0"/>
        <pt x="593" y="1439" on="0"/>
        <pt x="608" y="1395" on="0"/>
        <pt x="609" y="1342" on="0"/>
        <pt x="606" y="1318" on="1"/>
        <pt x="598" y="1249" on="0"/>
        <pt x="577" y="1101" on="0"/>
      </contour>
    </TTGlyph>
    <TTGlyph name="at" xMin="102" yMin="-195" xMax="1544" yMax="1304">
      <contour>
        <pt x="1005" y="907" on="1"/>
        <pt x="957" y="926" on="0"/>
        <pt x="878" y="926" on="1"/>
        <pt x="806" y="926" on="0"/>
        <pt x="698" y="837" on="0"/>
        <pt x="627" y="697" on="0"/>
        <pt x="591" y="527" on="0"/>
        <pt x="591" y="446" on="1"/>
        <pt x="591" y="343" on="0"/>
        <pt x="647" y="221" on="0"/>
        <pt x="700" y="221" on="1"/>
        <pt x="737" y="221" on="0"/>
        <pt x="810" y="283" on="0"/>
        <pt x="878" y="388" on="0"/>
        <pt x="936" y="526" on="0"/>
        <pt x="979" y="678" on="0"/>
        <pt x="1004" y="835" on="0"/>
      </contour>
      <contour>
        <pt x="1544" y="651" on="1"/>
        <pt x="1544" y="544" on="0"/>
        <pt x="1499" y="380" on="0"/>
        <pt x="1427" y="261" on="0"/>
        <pt x="1334" y="184" on="0"/>
        <pt x="1220" y="132" on="0"/>
        <pt x="1149" y="132" on="1"/>
        <pt x="1116" y="132" on="0"/>
        <pt x="1035" y="156" on="0"/>
        <pt x="977" y="219" on="0"/>
        <pt x="960" y="293" on="0"/>
        <pt x="960" y="332" on="1"/>
        <pt x="960" y="364" on="0"/>
        <pt x="969" y="439" on="0"/>
        <pt x="980" y="498" on="1"/>
        <pt x="976" y="498" on="1"/>
        <pt x="938" y="381" on="0"/>
        <pt x="857" y="241" on="0"/>
        <pt x="775" y="166" on="0"/>
        <pt x="698" y="143" on="0"/>
        <pt x="665" y="143" on="1"/>
        <pt x="622" y="143" on="0"/>
        <pt x="543" y="176" on="0"/>
        <pt x="483" y="245" on="0"/>
        <pt x="448" y="353" on="0"/>
        <pt x="448" y="428" on="1"/>
        <pt x="448" y="540" on="0"/>
        <pt x="510" y="743" on="0"/>
        <pt x="632" y="896" on="0"/>
        <pt x="812" y="987" on="0"/>
        <pt x="929" y="987" on="1"/>
        <pt x="953" y="987" on="0"/>
        <pt x="1009" y="984" on="0"/>
        <pt x="1068" y="978" on="0"/>
        <pt x="1125" y="968" on="0"/>
        <pt x="1150" y="961" on="1"/>
        <pt x="1142" y="891" on="0"/>
        <pt x="1123" y="748" on="0"/>
        <pt x="1107" y="612" on="0"/>
        <pt x="1093" y="489" on="0"/>
        <pt x="1086" y="409" on="0"/>
        <pt x="1086" y="369" on="1"/>
        <pt x="1086" y="327" on="0"/>
        <pt x="1102" y="255" on="0"/>
        <pt x="1131" y="216" on="0"/>
        <pt x="1169" y="202" on="0"/>
        <pt x="1185" y="202" on="1"/>
        <pt x="1223" y="202" on="0"/>
        <pt x="1290" y="243" on="0"/>
        <pt x="1354" y="334" on="0"/>
        <pt x="1399" y="491" on="0"/>
        <pt x="1399" y="586" on="1"/>
        <pt x="1399" y="770" on="0"/>
        <pt x="1310" y="1009" on="0"/>
        <pt x="1163" y="1151" on="0"/>
        <pt x="973" y="1220" on="0"/>
        <pt x="846" y="1219" on="1"/>
        <pt x="795" y="1220" on="0"/>
        <pt x="641" y="1189" on="0"/>
        <pt x="471" y="1089" on="0"/>
        <pt x="333" y="905" on="0"/>
        <pt x="260" y="668" on="0"/>
        <pt x="260" y="539" on="1"/>
        <pt x="260" y="428" on="0"/>
        <pt x="305" y="247" on="0"/>
        <pt x="386" y="105" on="0"/>
        <pt x="498" y="0" on="0"/>
        <pt x="630" y="-69" on="0"/>
        <pt x="786" y="-106" on="0"/>
        <pt x="853" y="-106" on="1"/>
        <pt x="943" y="-106" on="0"/>
        <pt x="1027" y="-96" on="0"/>
        <pt x="1162" y="-58" on="0"/>
        <pt x="1285" y="20" on="0"/>
        <pt x="1339" y="84" on="1"/>
        <pt x="1388" y="33" on="1"/>
        <pt x="1269" y="-94" on="0"/>
        <pt x="991" y="-195" on="0"/>
        <pt x="856" y="-195" on="1"/>
        <pt x="714" y="-195" on="0"/>
        <pt x="520" y="-147" on="0"/>
        <pt x="353" y="-52" on="0"/>
        <pt x="227" y="81" on="0"/>
        <pt x="144" y="243" on="0"/>
        <pt x="102" y="428" on="0"/>
        <pt x="102" y="526" on="1"/>
        <pt x="102" y="612" on="0"/>
        <pt x="140" y="790" on="0"/>
        <pt x="216" y="958" on="0"/>
        <pt x="333" y="1108" on="0"/>
        <pt x="492" y="1224" on="0"/>
        <pt x="671" y="1288" on="0"/>
        <pt x="810" y="1304" on="0"/>
        <pt x="856" y="1304" on="1"/>
        <pt x="958" y="1304" on="0"/>
        <pt x="1138" y="1264" on="0"/>
        <pt x="1300" y="1173" on="0"/>
        <pt x="1422" y="1046" on="0"/>
        <pt x="1503" y="897" on="0"/>
        <pt x="1544" y="733" on="0"/>
      </contour>
    </TTGlyph>
    <TTGlyph name="atilde" xMin="70" yMin="-33" xMax="1006" yMax="1489">
      <component glyphName="a" x="0" y="0" flags="0x204"/>
      <component glyphName="tilde" x="80" y="0" flags="0x4"/>
    </TTGlyph>
    <TTGlyph name="b" xMin="16" yMin="-33" xMax="1105" yMax="1546">
      <contour>
        <pt x="155" y="1280" on="1"/>
        <pt x="155" y="1312" on="0"/>
        <pt x="156" y="1372" on="0"/>
        <pt x="161" y="1413" on="1"/>
        <pt x="16" y="1405" on="1"/>
        <pt x="16" y="1491" on="1"/>
        <pt x="83" y="1491" on="0"/>
        <pt x="172" y="1500" on="0"/>
        <pt x="228" y="1516" on="0"/>
        <pt x="260" y="1535" on="0"/>
        <pt x="272" y="1546" on="1"/>
        <pt x="331" y="1546" on="1"/>
        <pt x="331" y="935" on="1"/>
        <pt x="388" y="992" on="0"/>
        <pt x="545" y="1057" on="0"/>
        <pt x="642" y="1057" on="1"/>
        <pt x="740" y="1057" on="0"/>
        <pt x="909" y="984" on="0"/>
        <pt x="1034" y="849" on="0"/>
        <pt x="1105" y="656" on="0"/>
        <pt x="1105" y="536" on="1"/>
        <pt x="1105" y="405" on="0"/>
        <pt x="1016" y="195" on="0"/>
        <pt x="869" y="47" on="0"/>
        <pt x="676" y="-33" on="0"/>
        <pt x="573" y="-33" on="1"/>
        <pt x="538" y="-33" on="0"/>
        <pt x="460" y="-22" on="0"/>
        <pt x="380" y="7" on="0"/>
        <pt x="304" y="55" on="0"/>
        <pt x="272" y="92" on="1"/>
        <pt x="223" y="0" on="1"/>
        <pt x="151" y="0" on="1"/>
      </contour>
      <contour>
        <pt x="579" y="956" on="1"/>
        <pt x="511" y="956" on="0"/>
        <pt x="379" y="893" on="0"/>
        <pt x="331" y="840" on="1"/>
        <pt x="331" y="322" on="1"/>
        <pt x="331" y="240" on="0"/>
        <pt x="371" y="135" on="0"/>
        <pt x="439" y="74" on="0"/>
        <pt x="526" y="51" on="0"/>
        <pt x="573" y="51" on="1"/>
        <pt x="647" y="51" on="0"/>
        <pt x="766" y="114" on="0"/>
        <pt x="849" y="229" on="0"/>
        <pt x="894" y="389" on="0"/>
        <pt x="894" y="486" on="1"/>
        <pt x="894" y="589" on="0"/>
        <pt x="855" y="762" on="0"/>
        <pt x="777" y="886" on="0"/>
        <pt x="659" y="956" on="0"/>
      </contour>
    </TTGlyph>
    <TTGlyph name="backslash" xMin="43" yMin="-556" xMax="1372" yMax="1556">
      <component glyphName="slash" x="1415" y="0" scalex="-0.999938964844" scaley="1.0" flags="0x4"/>
    </TTGlyph>
    <TTGlyph name="bar" xMin="162" yMin="-555" xMax="315" yMax="1556">
      <contour>
        <pt x="315" y="1556" on="1"/>
        <pt x="307" y="-555" on="1"/>
        <pt x="168" y="-555" on="1"/>
        <pt x="162" y="1556" on="1"/>
      </contour>
    </TTGlyph>
    <TTGlyph name="braceleft" xMin="14" yMin="-555" xMax="659" yMax="1556">
      <contour>
        <pt x="192" y="537" on="1"/>
        <pt x="236" y="528" on="0"/>
        <pt x="319" y="486" on="0"/>
        <pt x="383" y="417" on="0"/>
        <pt x="422" y="320" on="0"/>
        <pt x="422" y="256" on="1"/>
        <pt x="422" y="232" on="0"/>
        <pt x="418" y="167" on="0"/>
        <pt x="415" y="130" on="1"/>
        <pt x="402" y="-22" on="0"/>
        <pt x="398" y="-73" on="0"/>
        <pt x="396" y="-107" on="0"/>
        <pt x="395" y="-132" on="0"/>
        <pt x="395" y="-145" on="1"/>
        <pt x="395" y="-232" on="0"/>
        <pt x="417" y="-364" on="0"/>
        <pt x="474" y="-453" on="0"/>
        <pt x="572" y="-498" on="0"/>
        <pt x="647" y="-498" on="1"/>
        <pt x="659" y="-498" on="1"/>
        <pt x="659" y="-555" on="1"/>
        <pt x="602" y="-555" on="1"/>
        <pt x="497" y="-555" on="0"/>
        <pt x="356" y="-499" on="0"/>
        <pt x="272" y="-389" on="0"/>
        <pt x="237" y="-225" on="0"/>
        <pt x="237" y="-117" on="1"/>
        <pt x="237" y="-72" on="0"/>
        <pt x="244" y="33" on="0"/>
        <pt x="251" y="139" on="0"/>
        <pt x="258" y="239" on="0"/>
        <pt x="258" y="279" on="1"/>
        <pt x="258" y="331" on="0"/>
        <pt x="239" y="409" on="0"/>
        <pt x="194" y="460" on="0"/>
        <pt x="118" y="486" on="0"/>
        <pt x="61" y="486" on="1"/>
        <pt x="14" y="486" on="1"/>
        <pt x="14" y="592" on="1"/>
        <pt x="61" y="592" on="1"/>
        <pt x="118" y="592" on="0"/>
        <pt x="194" y="615" on="0"/>
        <pt x="239" y="663" on="0"/>
        <pt x="258" y="738" on="0"/>
        <pt x="258" y="791" on="1"/>
        <pt x="258" y="872" on="0"/>
        <pt x="237" y="1043" on="0"/>
        <pt x="237" y="1134" on="1"/>
        <pt x="237" y="1242" on="0"/>
        <pt x="272" y="1401" on="0"/>
        <pt x="356" y="1505" on="0"/>
        <pt x="497" y="1556" on="0"/>
        <pt x="602" y="1556" on="1"/>
        <pt x="659" y="1556" on="1"/>
        <pt x="659" y="1486" on="1"/>
        <pt x="636" y="1486" on="1"/>
        <pt x="564" y="1486" on="0"/>
        <pt x="471" y="1448" on="0"/>
        <pt x="416" y="1368" on="0"/>
        <pt x="395" y="1247" on="0"/>
        <pt x="395" y="1163" on="1"/>
        <pt x="395" y="1146" on="0"/>
        <pt x="397" y="1105" on="0"/>
        <pt x="399" y="1082" on="1"/>
        <pt x="412" y="943" on="1"/>
        <pt x="417" y="895" on="0"/>
        <pt x="423" y="831" on="0"/>
        <pt x="422" y="813" on="1"/>
        <pt x="422" y="749" on="0"/>
        <pt x="383" y="654" on="0"/>
        <pt x="319" y="588" on="0"/>
        <pt x="236" y="549" on="0"/>
        <pt x="192" y="541" on="1"/>
        <pt x="192" y="537" on="1"/>
      </contour>
    </TTGlyph>
    <TTGlyph name="braceright" xMin="25" yMin="-555" xMax="670" yMax="1556">
      <contour>
        <pt x="492" y="537" on="1"/>
        <pt x="492" y="541" on="1"/>
        <pt x="448" y="549" on="0"/>
        <pt x="365" y="588" on="0"/>
        <pt x="301" y="654" on="0"/>
        <pt x="262" y="749" on="0"/>
        <pt x="262" y="813" on="1"/>
        <pt x="261" y="831" on="0"/>
        <pt x="267" y="895" on="0"/>
        <pt x="272" y="943" on="1"/>
        <pt x="285" y="1082" on="1"/>
        <pt x="287" y="1105" on="0"/>
        <pt x="289" y="1146" on="0"/>
        <pt x="289" y="1163" on="1"/>
        <pt x="289" y="1247" on="0"/>
        <pt x="268" y="1368" on="0"/>
        <pt x="213" y="1448" on="0"/>
        <pt x="120" y="1486" on="0"/>
        <pt x="48" y="1486" on="1"/>
        <pt x="25" y="1486" on="1"/>
        <pt x="25" y="1556" on="1"/>
        <pt x="82" y="1556" on="1"/>
        <pt x="187" y="1556" on="0"/>
        <pt x="328" y="1505" on="0"/>
        <pt x="412" y="1401" on="0"/>
        <pt x="447" y="1242" on="0"/>
        <pt x="447" y="1134" on="1"/>
        <pt x="447" y="1043" on="0"/>
        <pt x="426" y="872" on="0"/>
        <pt x="426" y="791" on="1"/>
        <pt x="426" y="738" on="0"/>
        <pt x="445" y="663" on="0"/>
        <pt x="490" y="615" on="0"/>
        <pt x="566" y="592" on="0"/>
        <pt x="623" y="592" on="1"/>
        <pt x="670" y="592" on="1"/>
        <pt x="670" y="486" on="1"/>
        <pt x="623" y="486" on="1"/>
        <pt x="566" y="486" on="0"/>
        <pt x="490" y="460" on="0"/>
        <pt x="445" y="409" on="0"/>
        <pt x="426" y="331" on="0"/>
        <pt x="426" y="279" on="1"/>
        <pt x="426" y="239" on="0"/>
        <pt x="433" y="139" on="0"/>
        <pt x="440" y="33" on="0"/>
        <pt x="447" y="-72" on="0"/>
        <pt x="447" y="-117" on="1"/>
        <pt x="447" y="-225" on="0"/>
        <pt x="412" y="-389" on="0"/>
        <pt x="328" y="-499" on="0"/>
        <pt x="187" y="-555" on="0"/>
        <pt x="82" y="-555" on="1"/>
        <pt x="25" y="-555" on="1"/>
        <pt x="25" y="-498" on="1"/>
        <pt x="37" y="-498" on="1"/>
        <pt x="112" y="-498" on="0"/>
        <pt x="210" y="-453" on="0"/>
        <pt x="267" y="-364" on="0"/>
        <pt x="289" y="-232" on="0"/>
        <pt x="289" y="-145" on="1"/>
        <pt x="289" y="-132" on="0"/>
        <pt x="288" y="-107" on="0"/>
        <pt x="286" y="-73" on="0"/>
        <pt x="282" y="-22" on="0"/>
        <pt x="269" y="130" on="1"/>
        <pt x="266" y="167" on="0"/>
        <pt x="262" y="232" on="0"/>
        <pt x="262" y="256" on="1"/>
        <pt x="262" y="320" on="0"/>
        <pt x="301" y="417" on="0"/>
        <pt x="365" y="486" on="0"/>
        <pt x="448" y="528" on="0"/>
      </contour>
    </TTGlyph>
    <TTGlyph name="bracketleft" xMin="162" yMin="-522" xMax="711" yMax="1546">
      <contour>
        <pt x="164" y="1546" on="1"/>
        <pt x="707" y="1546" on="1"/>
        <pt x="707" y="1423" on="1"/>
        <pt x="317" y="1417" on="1"/>
        <pt x="308" y="-393" on="1"/>
        <pt x="711" y="-399" on="1"/>
        <pt x="711" y="-522" on="1"/>
        <pt x="162" y="-522" on="1"/>
      </contour>
    </TTGlyph>
    <TTGlyph name="bracketright" xMin="25" yMin="-522" xMax="574" yMax="1546">
      <contour>
        <pt x="572" y="-522" on="1"/>
        <pt x="29" y="-522" on="1"/>
        <pt x="29" y="-399" on="1"/>
        <pt x="419" y="-393" on="1"/>
        <pt x="428" y="1417" on="1"/>
        <pt x="25" y="1423" on="1"/>
        <pt x="25" y="1546" on="1"/>
        <pt x="574" y="1546" on="1"/>
      </contour>
    </TTGlyph>
    <TTGlyph name="breve" xMin="92" yMin="1237" xMax="651" yMax="1509">
      <contour>
        <pt x="369" y="1237" on="1"/>
        <pt x="329" y="1237" on="0"/>
        <pt x="247" y="1266" on="0"/>
        <pt x="172" y="1325" on="0"/>
        <pt x="111" y="1414" on="0"/>
        <pt x="92" y="1475" on="1"/>
        <pt x="152" y="1505" on="1"/>
        <pt x="167" y="1477" on="0"/>
        <pt x="214" y="1425" on="0"/>
        <pt x="273" y="1386" on="0"/>
        <pt x="340" y="1362" on="0"/>
        <pt x="375" y="1362" on="1"/>
        <pt x="410" y="1362" on="0"/>
        <pt x="477" y="1387" on="0"/>
        <pt x="535" y="1428" on="0"/>
        <pt x="581" y="1481" on="0"/>
        <pt x="596" y="1509" on="1"/>
        <pt x="651" y="1485" on="1"/>
        <pt x="612" y="1377" on="0"/>
        <pt x="554" y="1316" on="1"/>
        <pt x="478" y="1237" on="0"/>
      </contour>
    </TTGlyph>
    <TTGlyph name="brokenbar" xMin="172" yMin="-555" xMax="325" yMax="1556">
      <contour>
        <pt x="325" y="1556" on="1"/>
        <pt x="317" y="789" on="1"/>
        <pt x="178" y="789" on="1"/>
        <pt x="172" y="1556" on="1"/>
      </contour>
      <contour>
        <pt x="325" y="207" on="1"/>
        <pt x="317" y="-555" on="1"/>
        <pt x="178" y="-555" on="1"/>
        <pt x="172" y="207" on="1"/>
      </contour>
    </TTGlyph>
    <TTGlyph name="bullet" xMin="102" yMin="463" xMax="719" yMax="1069">
      <contour>
        <pt x="102" y="766" on="1"/>
        <pt x="102" y="830" on="0"/>
        <pt x="150" y="940" on="0"/>
        <pt x="233" y="1022" on="0"/>
        <pt x="345" y="1069" on="0"/>
        <pt x="409" y="1069" on="1"/>
        <pt x="474" y="1069" on="0"/>
        <pt x="586" y="1022" on="0"/>
        <pt x="669" y="940" on="0"/>
        <pt x="719" y="830" on="0"/>
        <pt x="719" y="766" on="1"/>
        <pt x="719" y="702" on="0"/>
        <pt x="670" y="592" on="0"/>
        <pt x="586" y="510" on="0"/>
        <pt x="473" y="463" on="0"/>
        <pt x="409" y="463" on="1"/>
        <pt x="345" y="463" on="0"/>
        <pt x="233" y="510" on="0"/>
        <pt x="150" y="592" on="0"/>
        <pt x="102" y="702" on="0"/>
      </contour>
    </TTGlyph>
    <TTGlyph name="c" xMin="84" yMin="-33" xMax="1020" yMax="1057">
      <contour>
        <pt x="838" y="871" on="1"/>
        <pt x="824" y="907" on="0"/>
        <pt x="770" y="950" on="0"/>
        <pt x="707" y="974" on="0"/>
        <pt x="644" y="981" on="0"/>
        <pt x="623" y="981" on="1"/>
        <pt x="553" y="981" on="0"/>
        <pt x="432" y="924" on="0"/>
        <pt x="344" y="814" on="0"/>
        <pt x="293" y="650" on="0"/>
        <pt x="293" y="544" on="1"/>
        <pt x="293" y="442" on="0"/>
        <pt x="344" y="269" on="0"/>
        <pt x="436" y="144" on="0"/>
        <pt x="566" y="74" on="0"/>
        <pt x="645" y="74" on="1"/>
        <pt x="693" y="74" on="0"/>
        <pt x="787" y="101" on="0"/>
        <pt x="871" y="149" on="0"/>
        <pt x="942" y="213" on="0"/>
        <pt x="967" y="250" on="1"/>
        <pt x="1020" y="209" on="1"/>
        <pt x="979" y="145" on="0"/>
        <pt x="874" y="54" on="0"/>
        <pt x="759" y="-5" on="0"/>
        <pt x="642" y="-33" on="0"/>
        <pt x="590" y="-33" on="1"/>
        <pt x="486" y="-33" on="0"/>
        <pt x="302" y="38" on="0"/>
        <pt x="164" y="173" on="0"/>
        <pt x="84" y="369" on="0"/>
        <pt x="84" y="494" on="1"/>
        <pt x="84" y="565" on="0"/>
        <pt x="119" y="703" on="0"/>
        <pt x="185" y="828" on="0"/>
        <pt x="279" y="935" on="0"/>
        <pt x="398" y="1013" on="0"/>
        <pt x="539" y="1057" on="0"/>
        <pt x="618" y="1057" on="1"/>
        <pt x="703" y="1057" on="0"/>
        <pt x="843" y="1015" on="0"/>
        <pt x="943" y="945" on="0"/>
        <pt x="997" y="854" on="0"/>
        <pt x="997" y="804" on="1"/>
        <pt x="997" y="760" on="0"/>
        <pt x="948" y="697" on="0"/>
        <pt x="902" y="696" on="1"/>
        <pt x="875" y="695" on="0"/>
        <pt x="839" y="714" on="0"/>
        <pt x="817" y="742" on="0"/>
        <pt x="807" y="775" on="0"/>
        <pt x="807" y="788" on="1"/>
        <pt x="807" y="808" on="0"/>
        <pt x="820" y="852" on="0"/>
      </contour>
    </TTGlyph>
    <TTGlyph name="cacute" xMin="84" yMin="-33" xMax="1020" yMax="1567">
      <component glyphName="c" x="0" y="0" flags="0x200"/>
      <component glyphName="acute" x="380" y="0" flags="0x0"/>
    </TTGlyph>
    <TTGlyph name="caron" xMin="92" yMin="1174" xMax="727" yMax="1577">
      <contour>
        <pt x="401" y="1174" on="1"/>
        <pt x="397" y="1174" on="1"/>
        <pt x="92" y="1507" on="1"/>
        <pt x="147" y="1573" on="1"/>
        <pt x="408" y="1350" on="1"/>
        <pt x="412" y="1350" on="1"/>
        <pt x="676" y="1577" on="1"/>
        <pt x="727" y="1518" on="1"/>
      </contour>
    </TTGlyph>
    <TTGlyph name="ccaron" xMin="85" yMin="-33" xMax="1021" yMax="1577">
      <component glyphName="c" x="1" y="0" flags="0x200"/>
      <component glyphName="caron" x="188" y="0" flags="0x0"/>
    </TTGlyph>
    <TTGlyph name="ccedilla" xMin="86" yMin="-494" xMax="1022" yMax="1057">
      <contour>
        <pt x="662" y="-116" on="1"/>
        <pt x="725" y="-116" on="0"/>
        <pt x="799" y="-188" on="0"/>
        <pt x="799" y="-251" on="1"/>
        <pt x="799" y="-292" on="0"/>
        <pt x="759" y="-358" on="0"/>
        <pt x="693" y="-409" on="0"/>
        <pt x="608" y="-446" on="0"/>
        <pt x="519" y="-472" on="0"/>
        <pt x="432" y="-489" on="0"/>
        <pt x="397" y="-494" on="1"/>
        <pt x="385" y="-425" on="1"/>
        <pt x="437" y="-416" on="0"/>
        <pt x="527" y="-387" on="0"/>
        <pt x="593" y="-348" on="0"/>
        <pt x="631" y="-299" on="0"/>
        <pt x="631" y="-269" on="1"/>
        <pt x="631" y="-236" on="0"/>
        <pt x="593" y="-208" on="0"/>
        <pt x="566" y="-208" on="1"/>
        <pt x="543" y="-208" on="0"/>
        <pt x="493" y="-224" on="0"/>
        <pt x="473" y="-238" on="1"/>
        <pt x="404" y="-204" on="1"/>
        <pt x="454" y="-16" on="1"/>
        <pt x="424" y="-8" on="0"/>
        <pt x="396" y="2" on="1"/>
        <pt x="304" y="38" on="0"/>
        <pt x="166" y="173" on="0"/>
        <pt x="86" y="369" on="0"/>
        <pt x="86" y="494" on="1"/>
        <pt x="86" y="565" on="0"/>
        <pt x="121" y="703" on="0"/>
        <pt x="187" y="828" on="0"/>
        <pt x="281" y="935" on="0"/>
        <pt x="400" y="1013" on="0"/>
        <pt x="541" y="1057" on="0"/>
        <pt x="620" y="1057" on="1"/>
        <pt x="705" y="1057" on="0"/>
        <pt x="845" y="1015" on="0"/>
        <pt x="945" y="945" on="0"/>
        <pt x="999" y="853" on="0"/>
        <pt x="999" y="804" on="1"/>
        <pt x="999" y="782" on="0"/>
        <pt x="986" y="743" on="0"/>
        <pt x="962" y="713" on="0"/>
        <pt x="928" y="696" on="0"/>
        <pt x="904" y="696" on="1"/>
        <pt x="877" y="696" on="0"/>
        <pt x="841" y="714" on="0"/>
        <pt x="819" y="742" on="0"/>
        <pt x="809" y="774" on="0"/>
        <pt x="809" y="788" on="1"/>
        <pt x="809" y="808" on="0"/>
        <pt x="822" y="852" on="0"/>
        <pt x="840" y="871" on="1"/>
        <pt x="826" y="907" on="0"/>
        <pt x="772" y="950" on="0"/>
        <pt x="709" y="974" on="0"/>
        <pt x="647" y="981" on="0"/>
        <pt x="625" y="981" on="1"/>
        <pt x="555" y="981" on="0"/>
        <pt x="434" y="924" on="0"/>
        <pt x="346" y="814" on="0"/>
        <pt x="295" y="650" on="0"/>
        <pt x="295" y="544" on="1"/>
        <pt x="295" y="442" on="0"/>
        <pt x="346" y="269" on="0"/>
        <pt x="438" y="144" on="0"/>
        <pt x="568" y="74" on="0"/>
        <pt x="647" y="74" on="1"/>
        <pt x="695" y="74" on="0"/>
        <pt x="789" y="101" on="0"/>
        <pt x="873" y="149" on="0"/>
        <pt x="944" y="213" on="0"/>
        <pt x="969" y="250" on="1"/>
        <pt x="1022" y="209" on="1"/>
        <pt x="981" y="145" on="0"/>
        <pt x="876" y="54" on="0"/>
        <pt x="761" y="-5" on="0"/>
        <pt x="644" y="-33" on="0"/>
        <pt x="592" y="-33" on="1"/>
        <pt x="577" y="-33" on="0"/>
        <pt x="562" y="-32" on="1"/>
        <pt x="522" y="-152" on="1"/>
        <pt x="551" y="-134" on="0"/>
        <pt x="627" y="-116" on="0"/>
      </contour>
    </TTGlyph>
    <TTGlyph name="cedilla" xMin="92" yMin="-494" xMax="506" yMax="16">
      <contour>
        <pt x="369" y="-116" on="1"/>
        <pt x="432" y="-116" on="0"/>
        <pt x="506" y="-188" on="0"/>
        <pt x="506" y="-251" on="1"/>
        <pt x="506" y="-292" on="0"/>
        <pt x="466" y="-358" on="0"/>
        <pt x="400" y="-409" on="0"/>
        <pt x="315" y="-446" on="0"/>
        <pt x="226" y="-472" on="0"/>
        <pt x="139" y="-489" on="0"/>
        <pt x="104" y="-494" on="1"/>
        <pt x="92" y="-425" on="1"/>
        <pt x="144" y="-416" on="0"/>
        <pt x="234" y="-387" on="0"/>
        <pt x="300" y="-348" on="0"/>
        <pt x="338" y="-299" on="0"/>
        <pt x="338" y="-269" on="1"/>
        <pt x="338" y="-236" on="0"/>
        <pt x="300" y="-208" on="0"/>
        <pt x="273" y="-208" on="1"/>
        <pt x="250" y="-208" on="0"/>
        <pt x="200" y="-224" on="0"/>
        <pt x="180" y="-238" on="1"/>
        <pt x="111" y="-204" on="1"/>
        <pt x="170" y="16" on="1"/>
        <pt x="285" y="16" on="1"/>
        <pt x="229" y="-152" on="1"/>
        <pt x="258" y="-134" on="0"/>
        <pt x="334" y="-116" on="0"/>
      </contour>
    </TTGlyph>
    <TTGlyph name="cent" xMin="74" yMin="-274" xMax="1010" yMax="1274">
      <contour>
        <pt x="828" y="873" on="1"/>
        <pt x="814" y="909" on="0"/>
        <pt x="760" y="952" on="0"/>
        <pt x="697" y="976" on="0"/>
        <pt x="635" y="983" on="0"/>
        <pt x="613" y="983" on="1"/>
        <pt x="543" y="983" on="0"/>
        <pt x="422" y="926" on="0"/>
        <pt x="334" y="814" on="0"/>
        <pt x="283" y="650" on="0"/>
        <pt x="283" y="544" on="1"/>
        <pt x="283" y="442" on="0"/>
        <pt x="334" y="268" on="0"/>
        <pt x="426" y="142" on="0"/>
        <pt x="556" y="71" on="0"/>
        <pt x="635" y="71" on="1"/>
        <pt x="683" y="71" on="0"/>
        <pt x="777" y="99" on="0"/>
        <pt x="861" y="147" on="0"/>
        <pt x="932" y="212" on="0"/>
        <pt x="957" y="249" on="1"/>
        <pt x="1010" y="208" on="1"/>
        <pt x="974" y="152" on="0"/>
        <pt x="883" y="67" on="0"/>
        <pt x="783" y="8" on="0"/>
        <pt x="679" y="-27" on="0"/>
        <pt x="630" y="-33" on="1"/>
        <pt x="629" y="-274" on="1"/>
        <pt x="510" y="-274" on="1"/>
        <pt x="509" y="-33" on="1"/>
        <pt x="417" y="-22" on="0"/>
        <pt x="259" y="60" on="0"/>
        <pt x="141" y="195" on="0"/>
        <pt x="74" y="380" on="0"/>
        <pt x="74" y="494" on="1"/>
        <pt x="74" y="589" on="0"/>
        <pt x="137" y="775" on="0"/>
        <pt x="252" y="930" on="0"/>
        <pt x="414" y="1039" on="0"/>
        <pt x="513" y="1057" on="1"/>
        <pt x="512" y="1274" on="1"/>
        <pt x="645" y="1274" on="1"/>
        <pt x="643" y="1057" on="1"/>
        <pt x="721" y="1052" on="0"/>
        <pt x="848" y="1008" on="0"/>
        <pt x="938" y="940" on="0"/>
        <pt x="987" y="853" on="0"/>
        <pt x="987" y="806" on="1"/>
        <pt x="987" y="784" on="0"/>
        <pt x="974" y="745" on="0"/>
        <pt x="950" y="715" on="0"/>
        <pt x="915" y="698" on="0"/>
        <pt x="892" y="698" on="1"/>
        <pt x="865" y="698" on="0"/>
        <pt x="829" y="716" on="0"/>
        <pt x="807" y="744" on="0"/>
        <pt x="797" y="776" on="0"/>
        <pt x="797" y="790" on="1"/>
        <pt x="797" y="810" on="0"/>
        <pt x="810" y="854" on="0"/>
      </contour>
    </TTGlyph>
    <TTGlyph name="circumflex" xMin="92" yMin="1194" xMax="727" yMax="1593">
      <contour>
        <pt x="418" y="1593" on="1"/>
        <pt x="422" y="1593" on="1"/>
        <pt x="727" y="1260" on="1"/>
        <pt x="672" y="1194" on="1"/>
        <pt x="412" y="1417" on="1"/>
        <pt x="408" y="1417" on="1"/>
        <pt x="143" y="1208" on="1"/>
        <pt x="92" y="1268" on="1"/>
      </contour>
    </TTGlyph>
    <TTGlyph name="colon" xMin="137" yMin="-33" xMax="376" yMax="1057">
      <contour>
        <pt x="376" y="98" on="1"/>
        <pt x="376" y="71" on="0"/>
        <pt x="356" y="23" on="0"/>
        <pt x="323" y="-13" on="0"/>
        <pt x="280" y="-33" on="0"/>
        <pt x="256" y="-33" on="1"/>
        <pt x="232" y="-33" on="0"/>
        <pt x="189" y="-13" on="0"/>
        <pt x="156" y="23" on="0"/>
        <pt x="137" y="71" on="0"/>
        <pt x="137" y="98" on="1"/>
        <pt x="137" y="126" on="0"/>
        <pt x="157" y="175" on="0"/>
        <pt x="190" y="211" on="0"/>
        <pt x="234" y="232" on="0"/>
        <pt x="258" y="232" on="1"/>
        <pt x="283" y="232" on="0"/>
        <pt x="326" y="211" on="0"/>
        <pt x="358" y="175" on="0"/>
        <pt x="376" y="126" on="0"/>
      </contour>
      <contour>
        <pt x="376" y="923" on="1"/>
        <pt x="376" y="896" on="0"/>
        <pt x="356" y="848" on="0"/>
        <pt x="323" y="812" on="0"/>
        <pt x="280" y="792" on="0"/>
        <pt x="256" y="792" on="1"/>
        <pt x="232" y="792" on="0"/>
        <pt x="189" y="812" on="0"/>
        <pt x="156" y="848" on="0"/>
        <pt x="137" y="896" on="0"/>
        <pt x="137" y="923" on="1"/>
        <pt x="137" y="951" on="0"/>
        <pt x="157" y="1000" on="0"/>
        <pt x="190" y="1036" on="0"/>
        <pt x="234" y="1057" on="0"/>
        <pt x="258" y="1057" on="1"/>
        <pt x="283" y="1057" on="0"/>
        <pt x="326" y="1036" on="0"/>
        <pt x="358" y="1000" on="0"/>
        <pt x="376" y="951" on="0"/>
      </contour>
    </TTGlyph>
    <TTGlyph name="comma" xMin="135" yMin="-366" xMax="393" yMax="207">
      <contour>
        <pt x="186" y="-325" on="1"/>
        <pt x="203" y="-304" on="0"/>
        <pt x="241" y="-232" on="0"/>
        <pt x="270" y="-144" on="0"/>
        <pt x="286" y="-47" on="0"/>
        <pt x="280" y="0" on="1"/>
        <pt x="251" y="-13" on="0"/>
        <pt x="198" y="-9" on="0"/>
        <pt x="158" y="17" on="0"/>
        <pt x="135" y="61" on="0"/>
        <pt x="135" y="88" on="1"/>
        <pt x="135" y="145" on="0"/>
        <pt x="201" y="207" on="0"/>
        <pt x="248" y="207" on="1"/>
        <pt x="283" y="207" on="0"/>
        <pt x="337" y="178" on="0"/>
        <pt x="374" y="128" on="0"/>
        <pt x="393" y="60" on="0"/>
        <pt x="393" y="21" on="1"/>
        <pt x="393" y="-18" on="0"/>
        <pt x="371" y="-123" on="0"/>
        <pt x="331" y="-231" on="0"/>
        <pt x="275" y="-332" on="0"/>
        <pt x="241" y="-366" on="1"/>
      </contour>
    </TTGlyph>
    <TTGlyph name="commaaccentcomb" xMin="192" yMin="-531" xMax="407" yMax="-115">
      <contour>
        <pt x="383" y="-115" on="1"/>
        <pt x="407" y="-166" on="0"/>
        <pt x="407" y="-221" on="1"/>
        <pt x="407" y="-299" on="0"/>
        <pt x="319" y="-458" on="0"/>
        <pt x="246" y="-531" on="1"/>
        <pt x="192" y="-491" on="1"/>
        <pt x="225" y="-430" on="0"/>
        <pt x="256" y="-339" on="0"/>
        <pt x="262" y="-263" on="0"/>
        <pt x="251" y="-190" on="0"/>
        <pt x="242" y="-147" on="1"/>
      </contour>
    </TTGlyph>
    <TTGlyph name="copyright" xMin="90" yMin="-102" xMax="1710" yMax="1536">
      <contour>
        <pt x="90" y="713" on="1"/>
        <pt x="90" y="826" on="0"/>
        <pt x="145" y="1036" on="0"/>
        <pt x="246" y="1219" on="0"/>
        <pt x="391" y="1369" on="0"/>
        <pt x="572" y="1477" on="0"/>
        <pt x="783" y="1536" on="0"/>
        <pt x="901" y="1536" on="1"/>
        <pt x="1020" y="1536" on="0"/>
        <pt x="1232" y="1477" on="0"/>
        <pt x="1412" y="1369" on="0"/>
        <pt x="1556" y="1219" on="0"/>
        <pt x="1656" y="1036" on="0"/>
        <pt x="1710" y="826" on="0"/>
        <pt x="1710" y="713" on="1"/>
        <pt x="1710" y="601" on="0"/>
        <pt x="1652" y="393" on="0"/>
        <pt x="1547" y="212" on="0"/>
        <pt x="1399" y="63" on="0"/>
        <pt x="1218" y="-43" on="0"/>
        <pt x="1010" y="-102" on="0"/>
        <pt x="897" y="-102" on="1"/>
        <pt x="715" y="-102" on="0"/>
        <pt x="417" y="20" on="0"/>
        <pt x="206" y="238" on="0"/>
        <pt x="90" y="536" on="0"/>
      </contour>
      <contour>
        <pt x="228" y="713" on="1"/>
        <pt x="228" y="619" on="0"/>
        <pt x="270" y="440" on="0"/>
        <pt x="350" y="281" on="0"/>
        <pt x="467" y="149" on="0"/>
        <pt x="617" y="53" on="0"/>
        <pt x="798" y="0" on="0"/>
        <pt x="903" y="0" on="1"/>
        <pt x="1005" y="0" on="0"/>
        <pt x="1184" y="53" on="0"/>
        <pt x="1333" y="149" on="0"/>
        <pt x="1451" y="281" on="0"/>
        <pt x="1532" y="440" on="0"/>
        <pt x="1575" y="619" on="0"/>
        <pt x="1575" y="713" on="1"/>
        <pt x="1575" y="808" on="0"/>
        <pt x="1531" y="989" on="0"/>
        <pt x="1448" y="1149" on="0"/>
        <pt x="1329" y="1284" on="0"/>
        <pt x="1178" y="1382" on="0"/>
        <pt x="998" y="1436" on="0"/>
        <pt x="897" y="1436" on="1"/>
        <pt x="797" y="1436" on="0"/>
        <pt x="620" y="1382" on="0"/>
        <pt x="471" y="1284" on="0"/>
        <pt x="353" y="1149" on="0"/>
        <pt x="271" y="989" on="0"/>
        <pt x="228" y="808" on="0"/>
      </contour>
      <contour>
        <pt x="924" y="1116" on="1"/>
        <pt x="865" y="1116" on="0"/>
        <pt x="751" y="1067" on="0"/>
        <pt x="661" y="971" on="0"/>
        <pt x="606" y="827" on="0"/>
        <pt x="606" y="733" on="1"/>
        <pt x="606" y="648" on="0"/>
        <pt x="659" y="503" on="0"/>
        <pt x="755" y="398" on="0"/>
        <pt x="888" y="338" on="0"/>
        <pt x="969" y="338" on="1"/>
        <pt x="1003" y="338" on="0"/>
        <pt x="1082" y="359" on="0"/>
        <pt x="1161" y="398" on="0"/>
        <pt x="1235" y="454" on="0"/>
        <pt x="1264" y="489" on="1"/>
        <pt x="1325" y="418" on="1"/>
        <pt x="1280" y="356" on="0"/>
        <pt x="1171" y="275" on="0"/>
        <pt x="1060" y="228" on="0"/>
        <pt x="953" y="209" on="0"/>
        <pt x="910" y="209" on="1"/>
        <pt x="803" y="209" on="0"/>
        <pt x="622" y="286" on="0"/>
        <pt x="489" y="421" on="0"/>
        <pt x="414" y="604" on="0"/>
        <pt x="414" y="709" on="1"/>
        <pt x="414" y="769" on="0"/>
        <pt x="443" y="893" on="0"/>
        <pt x="499" y="1008" on="0"/>
        <pt x="583" y="1109" on="0"/>
        <pt x="695" y="1184" on="0"/>
        <pt x="834" y="1227" on="0"/>
        <pt x="916" y="1227" on="1"/>
        <pt x="991" y="1227" on="0"/>
        <pt x="1129" y="1181" on="0"/>
        <pt x="1183" y="1143" on="1"/>
        <pt x="1176" y="1217" on="1"/>
        <pt x="1278" y="1217" on="1"/>
        <pt x="1278" y="872" on="1"/>
        <pt x="1196" y="872" on="1"/>
        <pt x="1188" y="939" on="0"/>
        <pt x="1141" y="1032" on="0"/>
        <pt x="1069" y="1090" on="0"/>
        <pt x="977" y="1116" on="0"/>
      </contour>
    </TTGlyph>
    <TTGlyph name="currency" xMin="125" yMin="82" xMax="973" yMax="976">
      <contour>
        <pt x="208" y="976" on="1"/>
        <pt x="318" y="838" on="1"/>
        <pt x="364" y="875" on="0"/>
        <pt x="479" y="918" on="0"/>
        <pt x="549" y="918" on="1"/>
        <pt x="618" y="918" on="0"/>
        <pt x="731" y="876" on="0"/>
        <pt x="779" y="838" on="1"/>
        <pt x="890" y="976" on="1"/>
        <pt x="973" y="910" on="1"/>
        <pt x="847" y="766" on="1"/>
        <pt x="886" y="713" on="0"/>
        <pt x="926" y="585" on="0"/>
        <pt x="926" y="521" on="1"/>
        <pt x="926" y="458" on="0"/>
        <pt x="889" y="334" on="0"/>
        <pt x="852" y="285" on="1"/>
        <pt x="973" y="148" on="1"/>
        <pt x="890" y="82" on="1"/>
        <pt x="784" y="214" on="1"/>
        <pt x="739" y="179" on="0"/>
        <pt x="620" y="138" on="0"/>
        <pt x="548" y="138" on="1"/>
        <pt x="476" y="138" on="0"/>
        <pt x="359" y="178" on="0"/>
        <pt x="313" y="213" on="1"/>
        <pt x="208" y="82" on="1"/>
        <pt x="125" y="148" on="1"/>
        <pt x="245" y="284" on="1"/>
        <pt x="208" y="335" on="0"/>
        <pt x="172" y="458" on="0"/>
        <pt x="172" y="521" on="1"/>
        <pt x="172" y="585" on="0"/>
        <pt x="212" y="714" on="0"/>
        <pt x="251" y="767" on="1"/>
        <pt x="125" y="910" on="1"/>
      </contour>
      <contour>
        <pt x="549" y="845" on="1"/>
        <pt x="511" y="845" on="0"/>
        <pt x="451" y="816" on="0"/>
        <pt x="406" y="769" on="0"/>
        <pt x="375" y="708" on="0"/>
        <pt x="356" y="643" on="0"/>
        <pt x="348" y="580" on="0"/>
        <pt x="348" y="554" on="1"/>
        <pt x="348" y="505" on="0"/>
        <pt x="365" y="388" on="0"/>
        <pt x="410" y="286" on="0"/>
        <pt x="488" y="218" on="0"/>
        <pt x="549" y="218" on="1"/>
        <pt x="610" y="218" on="0"/>
        <pt x="688" y="286" on="0"/>
        <pt x="733" y="388" on="0"/>
        <pt x="750" y="505" on="0"/>
        <pt x="750" y="554" on="1"/>
        <pt x="750" y="593" on="0"/>
        <pt x="730" y="694" on="0"/>
        <pt x="684" y="783" on="0"/>
        <pt x="607" y="845" on="0"/>
      </contour>
    </TTGlyph>
    <TTGlyph name="d" xMin="86" yMin="-33" xMax="1163" yMax="1546">
      <contour>
        <pt x="1026" y="217" on="1"/>
        <pt x="1026" y="185" on="0"/>
        <pt x="1023" y="120" on="0"/>
        <pt x="1018" y="78" on="1"/>
        <pt x="1163" y="86" on="1"/>
        <pt x="1163" y="0" on="1"/>
        <pt x="870" y="0" on="1"/>
        <pt x="865" y="30" on="0"/>
        <pt x="859" y="82" on="0"/>
        <pt x="857" y="107" on="1"/>
        <pt x="798" y="43" on="0"/>
        <pt x="631" y="-33" on="0"/>
        <pt x="528" y="-33" on="1"/>
        <pt x="433" y="-33" on="0"/>
        <pt x="272" y="39" on="0"/>
        <pt x="153" y="173" on="0"/>
        <pt x="86" y="364" on="0"/>
        <pt x="86" y="483" on="1"/>
        <pt x="86" y="608" on="0"/>
        <pt x="165" y="819" on="0"/>
        <pt x="305" y="972" on="0"/>
        <pt x="498" y="1057" on="0"/>
        <pt x="612" y="1057" on="1"/>
        <pt x="646" y="1057" on="0"/>
        <pt x="714" y="1047" on="0"/>
        <pt x="777" y="1031" on="0"/>
        <pt x="831" y="1011" on="0"/>
        <pt x="851" y="1000" on="1"/>
        <pt x="852" y="1280" on="1"/>
        <pt x="852" y="1312" on="0"/>
        <pt x="853" y="1372" on="0"/>
        <pt x="858" y="1413" on="1"/>
        <pt x="713" y="1405" on="1"/>
        <pt x="713" y="1491" on="1"/>
        <pt x="780" y="1491" on="0"/>
        <pt x="868" y="1500" on="0"/>
        <pt x="924" y="1516" on="0"/>
        <pt x="955" y="1535" on="0"/>
        <pt x="967" y="1546" on="1"/>
        <pt x="1026" y="1546" on="1"/>
      </contour>
      <contour>
        <pt x="602" y="68" on="1"/>
        <pt x="636" y="68" on="0"/>
        <pt x="706" y="88" on="0"/>
        <pt x="771" y="124" on="0"/>
        <pt x="828" y="173" on="0"/>
        <pt x="851" y="202" on="1"/>
        <pt x="850" y="227" on="0"/>
        <pt x="850" y="283" on="0"/>
        <pt x="850" y="315" on="1"/>
        <pt x="851" y="905" on="1"/>
        <pt x="802" y="943" on="0"/>
        <pt x="686" y="976" on="0"/>
        <pt x="625" y="976" on="1"/>
        <pt x="548" y="976" on="0"/>
        <pt x="424" y="908" on="0"/>
        <pt x="337" y="783" on="0"/>
        <pt x="297" y="623" on="0"/>
        <pt x="297" y="502" on="1"/>
        <pt x="297" y="419" on="0"/>
        <pt x="342" y="248" on="0"/>
        <pt x="419" y="133" on="0"/>
        <pt x="530" y="68" on="0"/>
      </contour>
    </TTGlyph>
    <TTGlyph name="dagger" xMin="53" yMin="-555" xMax="996" yMax="1556">
      <contour>
        <pt x="496" y="-555" on="1"/>
        <pt x="487" y="-413" on="0"/>
        <pt x="473" y="-126" on="0"/>
        <pt x="457" y="158" on="0"/>
        <pt x="434" y="438" on="0"/>
        <pt x="416" y="573" on="1"/>
        <pt x="439" y="630" on="0"/>
        <pt x="481" y="796" on="0"/>
        <pt x="504" y="911" on="1"/>
        <pt x="429" y="895" on="0"/>
        <pt x="278" y="866" on="0"/>
        <pt x="203" y="856" on="1"/>
        <pt x="180" y="853" on="0"/>
        <pt x="158" y="853" on="1"/>
        <pt x="138" y="853" on="0"/>
        <pt x="100" y="860" on="0"/>
        <pt x="71" y="876" on="0"/>
        <pt x="53" y="905" on="0"/>
        <pt x="53" y="928" on="1"/>
        <pt x="53" y="950" on="0"/>
        <pt x="70" y="979" on="0"/>
        <pt x="99" y="995" on="0"/>
        <pt x="137" y="1002" on="0"/>
        <pt x="157" y="1002" on="1"/>
        <pt x="180" y="1002" on="0"/>
        <pt x="203" y="999" on="1"/>
        <pt x="278" y="989" on="0"/>
        <pt x="430" y="960" on="0"/>
        <pt x="505" y="944" on="1"/>
        <pt x="497" y="990" on="0"/>
        <pt x="476" y="1104" on="0"/>
        <pt x="455" y="1226" on="0"/>
        <pt x="437" y="1350" on="0"/>
        <pt x="431" y="1419" on="0"/>
        <pt x="431" y="1424" on="1"/>
        <pt x="431" y="1447" on="0"/>
        <pt x="441" y="1494" on="0"/>
        <pt x="464" y="1532" on="0"/>
        <pt x="500" y="1556" on="0"/>
        <pt x="527" y="1556" on="1"/>
        <pt x="552" y="1556" on="0"/>
        <pt x="587" y="1533" on="0"/>
        <pt x="609" y="1495" on="0"/>
        <pt x="618" y="1449" on="0"/>
        <pt x="618" y="1426" on="1"/>
        <pt x="618" y="1421" on="0"/>
        <pt x="611" y="1350" on="0"/>
        <pt x="593" y="1226" on="0"/>
        <pt x="573" y="1104" on="0"/>
        <pt x="552" y="990" on="0"/>
        <pt x="543" y="944" on="1"/>
        <pt x="619" y="960" on="0"/>
        <pt x="771" y="989" on="0"/>
        <pt x="846" y="999" on="1"/>
        <pt x="868" y="1002" on="0"/>
        <pt x="892" y="1002" on="1"/>
        <pt x="912" y="1002" on="0"/>
        <pt x="950" y="995" on="0"/>
        <pt x="979" y="979" on="0"/>
        <pt x="996" y="950" on="0"/>
        <pt x="996" y="928" on="1"/>
        <pt x="996" y="905" on="0"/>
        <pt x="978" y="876" on="0"/>
        <pt x="949" y="860" on="0"/>
        <pt x="911" y="853" on="0"/>
        <pt x="891" y="853" on="1"/>
        <pt x="867" y="853" on="0"/>
        <pt x="846" y="856" on="1"/>
        <pt x="771" y="866" on="0"/>
        <pt x="620" y="895" on="0"/>
        <pt x="544" y="910" on="1"/>
        <pt x="568" y="795" on="0"/>
        <pt x="610" y="630" on="0"/>
        <pt x="633" y="573" on="1"/>
        <pt x="615" y="438" on="0"/>
        <pt x="592" y="158" on="0"/>
        <pt x="576" y="-126" on="0"/>
        <pt x="562" y="-413" on="0"/>
        <pt x="553" y="-555" on="1"/>
      </contour>
    </TTGlyph>
    <TTGlyph name="daggerdbl" xMin="72" yMin="-555" xMax="1015" yMax="1556">
      <contour>
        <pt x="652" y="502" on="1"/>
        <pt x="641" y="474" on="0"/>
        <pt x="620" y="385" on="0"/>
        <pt x="598" y="279" on="0"/>
        <pt x="575" y="160" on="0"/>
        <pt x="563" y="102" on="1"/>
        <pt x="639" y="118" on="0"/>
        <pt x="790" y="147" on="0"/>
        <pt x="865" y="157" on="1"/>
        <pt x="886" y="160" on="0"/>
        <pt x="910" y="160" on="1"/>
        <pt x="930" y="160" on="0"/>
        <pt x="968" y="153" on="0"/>
        <pt x="997" y="136" on="0"/>
        <pt x="1015" y="107" on="0"/>
        <pt x="1015" y="85" on="1"/>
        <pt x="1015" y="63" on="0"/>
        <pt x="998" y="34" on="0"/>
        <pt x="969" y="18" on="0"/>
        <pt x="931" y="11" on="0"/>
        <pt x="911" y="11" on="1"/>
        <pt x="887" y="11" on="0"/>
        <pt x="865" y="14" on="1"/>
        <pt x="790" y="23" on="0"/>
        <pt x="638" y="53" on="0"/>
        <pt x="562" y="69" on="1"/>
        <pt x="571" y="23" on="0"/>
        <pt x="592" y="-94" on="0"/>
        <pt x="612" y="-220" on="0"/>
        <pt x="630" y="-348" on="0"/>
        <pt x="636" y="-405" on="1"/>
        <pt x="636" y="-409" on="0"/>
        <pt x="637" y="-417" on="0"/>
        <pt x="637" y="-422" on="1"/>
        <pt x="637" y="-445" on="0"/>
        <pt x="627" y="-492" on="0"/>
        <pt x="604" y="-531" on="0"/>
        <pt x="567" y="-555" on="0"/>
        <pt x="541" y="-555" on="1"/>
        <pt x="515" y="-555" on="0"/>
        <pt x="480" y="-531" on="0"/>
        <pt x="459" y="-494" on="0"/>
        <pt x="450" y="-447" on="0"/>
        <pt x="450" y="-424" on="1"/>
        <pt x="450" y="-419" on="0"/>
        <pt x="450" y="-410" on="0"/>
        <pt x="451" y="-405" on="1"/>
        <pt x="456" y="-348" on="0"/>
        <pt x="474" y="-220" on="0"/>
        <pt x="495" y="-94" on="0"/>
        <pt x="516" y="23" on="0"/>
        <pt x="524" y="69" on="1"/>
        <pt x="449" y="53" on="0"/>
        <pt x="297" y="23" on="0"/>
        <pt x="222" y="14" on="1"/>
        <pt x="199" y="11" on="0"/>
        <pt x="176" y="11" on="1"/>
        <pt x="156" y="11" on="0"/>
        <pt x="118" y="18" on="0"/>
        <pt x="89" y="34" on="0"/>
        <pt x="72" y="63" on="0"/>
        <pt x="72" y="85" on="1"/>
        <pt x="72" y="107" on="0"/>
        <pt x="90" y="136" on="0"/>
        <pt x="119" y="153" on="0"/>
        <pt x="157" y="160" on="0"/>
        <pt x="177" y="160" on="1"/>
        <pt x="199" y="160" on="0"/>
        <pt x="222" y="157" on="1"/>
        <pt x="297" y="147" on="0"/>
        <pt x="448" y="117" on="0"/>
        <pt x="523" y="102" on="1"/>
        <pt x="511" y="160" on="0"/>
        <pt x="489" y="279" on="0"/>
        <pt x="468" y="385" on="0"/>
        <pt x="446" y="473" on="0"/>
        <pt x="435" y="502" on="1"/>
        <pt x="446" y="530" on="0"/>
        <pt x="467" y="617" on="0"/>
        <pt x="489" y="723" on="0"/>
        <pt x="511" y="840" on="0"/>
        <pt x="523" y="898" on="1"/>
        <pt x="448" y="882" on="0"/>
        <pt x="297" y="853" on="0"/>
        <pt x="222" y="843" on="1"/>
        <pt x="199" y="840" on="0"/>
        <pt x="177" y="840" on="1"/>
        <pt x="157" y="840" on="0"/>
        <pt x="119" y="847" on="0"/>
        <pt x="90" y="863" on="0"/>
        <pt x="72" y="892" on="0"/>
        <pt x="72" y="915" on="1"/>
        <pt x="72" y="937" on="0"/>
        <pt x="89" y="966" on="0"/>
        <pt x="118" y="982" on="0"/>
        <pt x="156" y="989" on="0"/>
        <pt x="176" y="989" on="1"/>
        <pt x="199" y="989" on="0"/>
        <pt x="222" y="986" on="1"/>
        <pt x="297" y="976" on="0"/>
        <pt x="449" y="947" on="0"/>
        <pt x="524" y="931" on="1"/>
        <pt x="516" y="977" on="0"/>
        <pt x="495" y="1095" on="0"/>
        <pt x="474" y="1222" on="0"/>
        <pt x="456" y="1350" on="0"/>
        <pt x="451" y="1407" on="1"/>
        <pt x="450" y="1411" on="0"/>
        <pt x="450" y="1419" on="0"/>
        <pt x="450" y="1424" on="1"/>
        <pt x="450" y="1447" on="0"/>
        <pt x="460" y="1494" on="0"/>
        <pt x="483" y="1532" on="0"/>
        <pt x="519" y="1556" on="0"/>
        <pt x="546" y="1556" on="1"/>
        <pt x="571" y="1556" on="0"/>
        <pt x="606" y="1533" on="0"/>
        <pt x="628" y="1495" on="0"/>
        <pt x="637" y="1449" on="0"/>
        <pt x="637" y="1426" on="1"/>
        <pt x="637" y="1421" on="0"/>
        <pt x="636" y="1412" on="0"/>
        <pt x="636" y="1407" on="1"/>
        <pt x="630" y="1350" on="0"/>
        <pt x="612" y="1222" on="0"/>
        <pt x="592" y="1095" on="0"/>
        <pt x="571" y="977" on="0"/>
        <pt x="562" y="931" on="1"/>
        <pt x="638" y="947" on="0"/>
        <pt x="790" y="976" on="0"/>
        <pt x="865" y="986" on="1"/>
        <pt x="887" y="989" on="0"/>
        <pt x="911" y="989" on="1"/>
        <pt x="931" y="989" on="0"/>
        <pt x="969" y="982" on="0"/>
        <pt x="998" y="966" on="0"/>
        <pt x="1015" y="937" on="0"/>
        <pt x="1015" y="915" on="1"/>
        <pt x="1015" y="892" on="0"/>
        <pt x="997" y="863" on="0"/>
        <pt x="968" y="847" on="0"/>
        <pt x="930" y="840" on="0"/>
        <pt x="910" y="840" on="1"/>
        <pt x="886" y="840" on="0"/>
        <pt x="865" y="843" on="1"/>
        <pt x="790" y="853" on="0"/>
        <pt x="639" y="882" on="0"/>
        <pt x="563" y="897" on="1"/>
        <pt x="575" y="839" on="0"/>
        <pt x="597" y="722" on="0"/>
        <pt x="619" y="617" on="0"/>
        <pt x="641" y="530" on="0"/>
      </contour>
    </TTGlyph>
</ttFont>
